<?xml version="1.0" encoding="UTF-8" standalone="no"?>
<!DOCTYPE svg PUBLIC "-//W3C//DTD SVG 1.1//EN"
 "http://www.w3.org/Graphics/SVG/1.1/DTD/svg11.dtd">
<!-- Generated by graphviz version 9.0.0 (20230911.1827)
 -->
<!-- Title: G Pages: 1 -->
<svg width="268pt" height="116pt"
 viewBox="0.00 0.00 267.62 116.00" xmlns="http://www.w3.org/2000/svg" xmlns:xlink="http://www.w3.org/1999/xlink">
<g id="graph0" class="graph" transform="scale(1 1) rotate(0) translate(4 112)">
<title>G</title>
<polygon fill="white" stroke="none" points="-4,4 -4,-112 263.62,-112 263.62,4 -4,4"/>
<!-- :core:network -->
<g id="node1" class="node">
<title>:core:network</title>
<ellipse fill="none" stroke="black" cx="134.17" cy="-90" rx="62.1" ry="18"/>
<text text-anchor="middle" x="134.17" y="-84.95" font-family="Times,serif" font-size="14.00">:core:network</text>
</g>
<!-- :core:common -->
<g id="node2" class="node">
<title>:core:common</title>
<ellipse fill="none" stroke="black" cx="65.17" cy="-18" rx="65.17" ry="18"/>
<text text-anchor="middle" x="65.17" y="-12.95" font-family="Times,serif" font-size="14.00">:core:common</text>
</g>
<!-- :core:network&#45;&gt;:core:common -->
<g id="edge1" class="edge">
<title>:core:network&#45;&gt;:core:common</title>
<path fill="none" stroke="red" stroke-width="2" d="M117.82,-72.41C109.31,-63.78 98.75,-53.06 89.32,-43.5"/>
<polygon fill="red" stroke="red" stroke-width="2" points="93.04,-42.29 83.53,-37.63 88.06,-47.2 93.04,-42.29"/>
</g>
<!-- :core:model -->
<g id="node3" class="node">
<title>:core:model</title>
<ellipse fill="none" stroke="black" cx="204.17" cy="-18" rx="55.45" ry="18"/>
<text text-anchor="middle" x="204.17" y="-12.95" font-family="Times,serif" font-size="14.00">:core:model</text>
</g>
<!-- :core:network&#45;&gt;:core:model -->
<g id="edge2" class="edge">
<title>:core:network&#45;&gt;:core:model</title>
<path fill="none" stroke="black" d="M150.76,-72.41C159.39,-63.78 170.11,-53.06 179.67,-43.5"/>
<polygon fill="black" stroke="black" points="182.03,-46.09 186.63,-36.54 177.08,-41.14 182.03,-46.09"/>
</g>
</g>
</svg>
