<?xml version="1.0" encoding="UTF-8" standalone="no"?>
<!DOCTYPE svg PUBLIC "-//W3C//DTD SVG 1.1//EN"
 "http://www.w3.org/Graphics/SVG/1.1/DTD/svg11.dtd">
<!-- Generated by graphviz version 9.0.0 (20230911.1827)
 -->
<!-- Title: G Pages: 1 -->
<svg width="461pt" height="116pt"
 viewBox="0.00 0.00 460.86 116.00" xmlns="http://www.w3.org/2000/svg" xmlns:xlink="http://www.w3.org/1999/xlink">
<g id="graph0" class="graph" transform="scale(1 1) rotate(0) translate(4 112)">
<title>G</title>
<polygon fill="white" stroke="none" points="-4,4 -4,-112 456.86,-112 456.86,4 -4,4"/>
<!-- :core:datastore -->
<g id="node1" class="node">
<title>:core:datastore</title>
<ellipse fill="none" stroke="black" cx="248.69" cy="-90" rx="65.17" ry="18"/>
<text text-anchor="middle" x="248.69" y="-84.95" font-family="Times,serif" font-size="14.00">:core:datastore</text>
</g>
<!-- :core:datastore&#45;proto -->
<g id="node2" class="node">
<title>:core:datastore&#45;proto</title>
<ellipse fill="none" stroke="black" cx="87.69" cy="-18" rx="87.69" ry="18"/>
<text text-anchor="middle" x="87.69" y="-12.95" font-family="Times,serif" font-size="14.00">:core:datastore&#45;proto</text>
</g>
<!-- :core:datastore&#45;&gt;:core:datastore&#45;proto -->
<g id="edge1" class="edge">
<title>:core:datastore&#45;&gt;:core:datastore&#45;proto</title>
<path fill="none" stroke="red" stroke-width="2" d="M214.94,-74.33C191.52,-64.14 160.02,-50.45 134.22,-39.23"/>
<polygon fill="red" stroke="red" stroke-width="2" points="137.26,-36.73 126.69,-35.96 134.47,-43.15 137.26,-36.73"/>
</g>
<!-- :core:model -->
<g id="node3" class="node">
<title>:core:model</title>
<ellipse fill="none" stroke="black" cx="248.69" cy="-18" rx="55.45" ry="18"/>
<text text-anchor="middle" x="248.69" y="-12.95" font-family="Times,serif" font-size="14.00">:core:model</text>
</g>
<!-- :core:datastore&#45;&gt;:core:model -->
<g id="edge2" class="edge">
<title>:core:datastore&#45;&gt;:core:model</title>
<path fill="none" stroke="black" d="M248.69,-71.7C248.69,-64.41 248.69,-55.73 248.69,-47.54"/>
<polygon fill="black" stroke="black" points="252.19,-47.62 248.69,-37.62 245.19,-47.62 252.19,-47.62"/>
</g>
<!-- :core:common -->
<g id="node4" class="node">
<title>:core:common</title>
<ellipse fill="none" stroke="black" cx="387.69" cy="-18" rx="65.17" ry="18"/>
<text text-anchor="middle" x="387.69" y="-12.95" font-family="Times,serif" font-size="14.00">:core:common</text>
</g>
<!-- :core:datastore&#45;&gt;:core:common -->
<g id="edge3" class="edge">
<title>:core:datastore&#45;&gt;:core:common</title>
<path fill="none" stroke="black" d="M279.19,-73.64C299.11,-63.61 325.34,-50.4 347.03,-39.48"/>
<polygon fill="black" stroke="black" points="348.55,-42.63 355.91,-35.01 345.4,-36.38 348.55,-42.63"/>
</g>
</g>
</svg>
