<?xml version="1.0" encoding="UTF-8" standalone="no"?>
<!DOCTYPE svg PUBLIC "-//W3C//DTD SVG 1.1//EN" "http://www.w3.org/Graphics/SVG/1.1/DTD/svg11.dtd">
<svg xmlns="http://www.w3.org/2000/svg" xmlns:xlink="http://www.w3.org/1999/xlink" width="462pt" height="116pt" viewBox="0.00 0.00 462.50 116.00">
  <g id="graph0" class="graph" transform="scale(1 1) rotate(0) translate(4 112)">
    <title>G</title>
    <polygon fill="white" stroke="none" points="-4,4 -4,-112 458.5,-112 458.5,4 -4,4"/>
    <g id="node1" class="node">
      <title>:core:ui</title>
      <ellipse fill="none" stroke="black" cx="237.34" cy="-90" rx="40.53" ry="18"/>
      <text text-anchor="middle" x="237.34" y="-85.8" font-family="Times,serif" font-size="14.00">:core:ui</text>
    </g>
    <g id="node2" class="node">
      <title>:core:analytics</title>
      <ellipse fill="none" stroke="black" cx="67.34" cy="-18" rx="67.34" ry="18"/>
      <text text-anchor="middle" x="67.34" y="-13.8" font-family="Times,serif" font-size="14.00">:core:analytics</text>
    </g>
    <g id="edge1" class="edge">
      <title>:core:ui-&gt;:core:analytics</title>
      <path fill="none" stroke="red" stroke-width="2" d="M208.5,-77.13C182.4,-66.38 143.52,-50.37 113.16,-37.87"/>
      <polygon fill="red" stroke="red" stroke-width="2" points="116.2,-35.33 105.62,-34.76 113.53,-41.8 116.2,-35.33"/>
    </g>
    <g id="node3" class="node">
      <title>:core:designsystem</title>
      <ellipse fill="none" stroke="black" cx="237.34" cy="-18" rx="85.06" ry="18"/>
      <text text-anchor="middle" x="237.34" y="-13.8" font-family="Times,serif" font-size="14.00">:core:designsystem</text>
    </g>
    <g id="edge2" class="edge">
      <title>:core:ui-&gt;:core:designsystem</title>
      <path fill="none" stroke="black" d="M237.34,-71.7C237.34,-64.41 237.34,-55.73 237.34,-47.54"/>
      <polygon fill="black" stroke="black" points="240.84,-47.62 237.34,-37.62 233.84,-47.62 240.84,-47.62"/>
    </g>
    <g id="node4" class="node">
      <title>:core:model</title>
      <ellipse fill="none" stroke="black" cx="397.34" cy="-18" rx="57.16" ry="18"/>
      <text text-anchor="middle" x="397.34" y="-13.8" font-family="Times,serif" font-size="14.00">:core:model</text>
    </g>
    <g id="edge3" class="edge">
      <title>:core:ui-&gt;:core:model</title>
      <path fill="none" stroke="black" d="M265.58,-76.65C290.24,-65.86 326.4,-50.04 354.6,-37.7"/>
      <polygon fill="black" stroke="black" points="355.84,-40.98 363.6,-33.76 353.03,-34.57 355.84,-40.98"/>
    </g>
  </g>
</svg>
