<svg xmlns="http://www.w3.org/2000/svg" width="1381pt" height="476pt" viewBox="0 0 1380.72 476">
    <g class="graph">
        <path fill="#fff" d="M0 476V0h1380.72v476z"/>
        <g class="node" transform="translate(4 472)">
            <ellipse cx="605.03" cy="-450" fill="none" stroke="#000" rx="27" ry="18"/>
            <text x="605.03" y="-444.95" font-family="Times,serif" font-size="14" text-anchor="middle">:app</text>
        </g>
        <g class="node" transform="translate(4 472)">
            <ellipse cx="1024.03" cy="-234" fill="none" stroke="#000" rx="56.47" ry="18"/>
            <text x="1024.03" y="-228.95" font-family="Times,serif" font-size="14" text-anchor="middle">:core:testing</text>
        </g>
        <g stroke="#000" class="edge">
            <path fill="none" d="M636.3 23.55c105.59 2.4 483.53 13.66 518.73 52.45 43.4 47.82-38.48 108.71-89.88 140.14"/>
            <path d="m1067 219.11-10.38 2.13 6.79-8.14z"/>
        </g>
        <g class="node" transform="translate(4 472)">
            <ellipse cx="167.03" cy="-234" fill="none" stroke="#000" rx="63.12" ry="18"/>
            <text x="167.03" y="-228.95" font-family="Times,serif" font-size="14" text-anchor="middle">:core:data-test</text>
        </g>
        <g stroke="#000" class="edge">
            <path fill="none" d="M581.74 24.09C487.49 28.11 179.85 43.65 151.03 76c-32.77 36.78-11.43 98.46 5.39 133.84"/>
            <path d="m159.43 208.05 1.32 10.52-7.58-7.4z"/>
        </g>
        <g class="node" transform="translate(4 472)">
            <ellipse cx="531.03" cy="-162" fill="none" stroke="#000" rx="81.04" ry="18"/>
            <text x="531.03" y="-156.95" font-family="Times,serif" font-size="14" text-anchor="middle">:core:datastore-test</text>
        </g>
        <g stroke="#000" class="edge">
            <path fill="none" d="M581.91 23.56C476.89 26.01 101.03 37.42 66.03 76c-53.75 59.25-53.3 120.34 0 180 24.71 27.66 249.01 42.7 378.26 49.14"/>
            <path d="m444.4 301.64 9.81 3.99-10.16 3z"/>
        </g>
        <g class="node" transform="translate(4 472)">
            <ellipse cx="403.03" cy="-378" fill="none" stroke="#000" rx="72.34" ry="18"/>
            <text x="403.03" y="-372.95" font-family="Times,serif" font-size="14" text-anchor="middle">:feature:interests</text>
        </g>
        <g stroke="red" stroke-width="2" class="edge">
            <path fill="none" d="M585.46 31.17 458.73 75.08"/>
            <path fill="red" d="m461.35 77.88-10.59-.03 8.3-6.58z"/>
        </g>
        <g class="node" transform="translate(4 472)">
            <ellipse cx="246.03" cy="-378" fill="none" stroke="#000" rx="66.19" ry="18"/>
            <text x="246.03" y="-372.95" font-family="Times,serif" font-size="14" text-anchor="middle">:feature:foryou</text>
        </g>
        <g stroke="#000" class="edge">
            <path fill="none" d="M582.83 27.59C532.81 36.43 420.29 56.64 326.03 76c-5.11 1.05-10.41 2.17-15.72 3.31"/>
            <path d="m311.44 82.65-10.52-1.29 9.03-5.55z"/>
        </g>
        <g class="node" transform="translate(4 472)">
            <ellipse cx="1059.03" cy="-378" fill="none" stroke="#000" rx="83.08" ry="18"/>
            <text x="1059.03" y="-372.95" font-family="Times,serif" font-size="14" text-anchor="middle">:feature:bookmarks</text>
        </g>
        <g stroke="#000" class="edge">
            <path fill="none" d="M635.43 26.52C695.25 34.57 845.7 55.25 971.03 76c6.47 1.07 13.18 2.23 19.91 3.41"/>
            <path d="m991.5 75.96 9.23 5.2-10.46 1.69z"/>
        </g>
        <g class="node" transform="translate(4 472)">
            <ellipse cx="898.03" cy="-378" fill="none" stroke="#000" rx="60.05" ry="18"/>
            <text x="898.03" y="-372.95" font-family="Times,serif" font-size="14" text-anchor="middle">:feature:topic</text>
        </g>
        <g stroke="#000" class="edge">
            <path fill="none" d="M634.24 28.89C675.73 38.59 760.97 58.6 833.03 76c4.2 1.01 8.54 2.07 12.9 3.13"/>
            <path d="m846.41 75.65 8.88 5.77-10.54 1.03z"/>
        </g>
        <g class="node" transform="translate(4 472)">
            <ellipse cx="559.03" cy="-378" fill="none" stroke="#000" rx="65.17" ry="18"/>
            <text x="559.03" y="-372.95" font-family="Times,serif" font-size="14" text-anchor="middle">:feature:search</text>
        </g>
        <g stroke="#000" class="edge">
            <path fill="none" d="M598.59 38.88c-5.43 8.27-12.21 18.58-18.38 27.98"/>
            <path d="m583.32 68.5-8.42 6.44 2.57-10.28z"/>
        </g>
        <g class="node" transform="translate(4 472)">
            <ellipse cx="750.03" cy="-378" fill="none" stroke="#000" rx="69.78" ry="18"/>
            <text x="750.03" y="-372.95" font-family="Times,serif" font-size="14" text-anchor="middle">:feature:settings</text>
        </g>
        <g stroke="#000" class="edge">
            <path fill="none" d="M630.43 33.33c21.35 10.31 54.73 26.42 81.42 39.31"/>
            <path d="m713.24 69.42 7.48 7.5-10.53-1.2z"/>
        </g>
        <g class="node" transform="translate(4 472)">
            <ellipse cx="934.03" cy="-18" fill="none" stroke="#000" rx="65.17" ry="18"/>
            <text x="934.03" y="-12.95" font-family="Times,serif" font-size="14" text-anchor="middle">:core:common</text>
        </g>
        <g stroke="#000" class="edge">
            <path fill="none" d="M636.4 23.15c108.36.93 507.17 7.4 623.63 52.85 59.88 23.37 114 24.72 114 89v146c0 40.45 10.77 61.62-19 89-48.21 44.32-233.75 52.55-340.39 53.51"/>
            <path d="m1014.84 457-10.02-3.43 9.98-3.57z"/>
        </g>
        <g class="node" transform="translate(4 472)">
            <ellipse cx="721.03" cy="-306" fill="none" stroke="#000" rx="39.07" ry="18"/>
            <text x="721.03" y="-300.95" font-family="Times,serif" font-size="14" text-anchor="middle">:core:ui</text>
        </g>
        <g stroke="#000" class="edge">
            <path fill="none" d="M619.94 38.86C632.6 57 654.4 87.37 675.03 112c8.25 9.85 17.82 20.22 26.37 29.16"/>
            <path d="m703.71 138.51 4.44 9.62-9.47-4.75z"/>
        </g>
        <g class="node" transform="translate(4 472)">
            <ellipse cx="612.03" cy="-234" fill="none" stroke="#000" rx="82.06" ry="18"/>
            <text x="612.03" y="-228.95" font-family="Times,serif" font-size="14" text-anchor="middle">:core:designsystem</text>
        </g>
        <g stroke="#000" class="edge">
            <path fill="none" d="M581.92 24.26C491.15 28.75 202.14 45.38 175.03 76 72.01 192.36 367.1 224.7 524.41 233.63"/>
            <path d="m524.19 230.11 9.79 4.04-10.17 2.95z"/>
        </g>
        <g class="node" transform="translate(4 472)">
            <ellipse cx="826.03" cy="-162" fill="none" stroke="#000" rx="47.26" ry="18"/>
            <text x="826.03" y="-156.95" font-family="Times,serif" font-size="14" text-anchor="middle">:core:data</text>
        </g>
        <g stroke="#000" class="edge">
            <path fill="none" d="M581.81 24.19C485.49 28.66 164.78 45.72 131.03 76c-60.48 54.26-87.46 120.62-32 180 39.98 42.81 467.59 31.58 526 36 50.02 3.79 106.87 8.53 147.99 12.05"/>
            <path d="m773.28 300.56 9.66 4.34-10.26 2.63z"/>
        </g>
        <g class="node" transform="translate(4 472)">
            <ellipse cx="662.03" cy="-18" fill="none" stroke="#000" rx="55.45" ry="18"/>
            <text x="662.03" y="-12.95" font-family="Times,serif" font-size="14" text-anchor="middle">:core:model</text>
        </g>
        <g stroke="#000" class="edge">
            <path fill="none" d="M581.97 23.83C474.38 27.37 80.71 42.51 37.03 76c-33.48 25.67-33 46.81-33 89v146c0 135.76 465.23 96.67 598 125 4 .85 8.13 1.8 12.27 2.79"/>
            <path d="m614.88 435.33 8.86 5.82-10.55.97z"/>
        </g>
        <g class="node" transform="translate(4 472)">
            <ellipse cx="1277.03" cy="-90" fill="none" stroke="#000" rx="64.66" ry="18"/>
            <text x="1277.03" y="-84.95" font-family="Times,serif" font-size="14" text-anchor="middle">:core:analytics</text>
        </g>
        <g stroke="#000" class="edge">
            <path fill="none" d="M636.33 22.95c103.64.17 472.12 4.27 576.7 53.05 50.7 23.65 89 33.06 89 89v74c0 39.69-8.13 84.95-14.27 113.49"/>
            <path d="m1291.2 353.16-5.59 9-1.24-10.53z"/>
        </g>
        <g class="node" transform="translate(4 472)">
            <ellipse cx="1216.03" cy="-306" fill="none" stroke="#000" rx="51.86" ry="18"/>
            <text x="1216.03" y="-300.95" font-family="Times,serif" font-size="14" text-anchor="middle">:sync:work</text>
        </g>
        <g stroke="#000" class="edge">
            <path fill="none" d="M636.07 23.79c108.4 3.38 507.85 18.08 551.96 52.21 18.48 14.29 26.3 40.19 29.6 60.38"/>
            <path d="m1221.1 135.89-2.16 10.37-4.78-9.46z"/>
        </g>
        <g stroke="#000" class="edge">
            <path fill="none" d="M1057.98 253.48c53.43 27.73 155.61 90.58 111.05 146.52-19.6 24.6-98.19 38.72-158.31 46.11"/>
            <path d="m1011.19 449.58-10.34-2.31 9.52-4.65z"/>
        </g>
        <g stroke="red" stroke-width="2" class="edge">
            <path fill="none" d="m991.25 252-116.82 41.3"/>
            <path fill="red" d="m877.42 295.96-10.6.03 8.26-6.63z"/>
        </g>
        <g stroke="#000" class="edge">
            <path fill="none" d="M1021.51 256.33C1007.96 289.87 973.4 363.51 919.03 400c-55.4 37.18-131.79 49.05-186.09 52.47"/>
            <path d="M733.38 455.95 723.21 453l9.8-4.04z"/>
        </g>
        <g stroke="#000" class="edge">
            <path fill="none" d="M1077.97 246.69c36.56 7.35 86.18 21.02 124.06 45.31 25.29 16.22 47.34 42.73 61.67 62.61"/>
            <path d="m1266.56 352.59 2.86 10.2-8.6-6.19z"/>
        </g>
        <g class="node" transform="translate(4 472)">
            <ellipse cx="1078.03" cy="-90" fill="none" stroke="#000" rx="77.97" ry="18"/>
            <text x="1078.03" y="-84.95" font-family="Times,serif" font-size="14" text-anchor="middle">:core:notifications</text>
        </g>
        <g stroke="#000" class="edge">
            <path fill="none" d="M1034.54 256.13c9.17 24.09 25.97 68.27 36.93 97.1"/>
            <path d="m1074.67 351.8.29 10.6-6.83-8.11z"/>
        </g>
        <g stroke="#000" class="edge">
            <path fill="none" d="M218.09 250.38c9.85 2.1 20.2 4.11 29.94 5.62 50.96 7.91 388.1 36.69 524.69 48.2"/>
            <path d="m772.96 300.7 9.67 4.33-10.26 2.65z"/>
        </g>
        <g stroke="#000" class="edge">
            <path fill="none" d="M603.46 319.94c41.21 7.48 93.65 20.81 135.57 44.06 20.35 11.28 18.02 24.07 38 36 30.63 18.28 68.34 31.13 99.57 39.6"/>
            <path d="m877.1 436.11 8.79 5.92-10.56.85z"/>
        </g>
        <g class="node" transform="translate(4 472)">
            <ellipse cx="515.03" cy="-90" fill="none" stroke="#000" rx="65.17" ry="18"/>
            <text x="515.03" y="-84.95" font-family="Times,serif" font-size="14" text-anchor="middle">:core:datastore</text>
        </g>
        <g stroke="#000" class="edge">
            <path fill="none" d="M531.07 328.3c-1.68 7.38-3.69 16.18-5.58 24.45"/>
            <path d="m528.92 353.45-5.64 8.97-1.19-10.53z"/>
        </g>
        <g stroke="#000" class="edge">
            <path fill="none" d="M457.79 107.11c38.42 9.67 92.23 24.31 138.24 40.89 37.06 13.35 43.18 24.96 81 36 97.01 28.32 213.75 42.11 285.15 48.36"/>
            <path d="m962.06 228.83 9.67 4.34-10.26 2.64z"/>
        </g>
        <g stroke="red" stroke-width="2" class="edge">
            <path fill="none" d="M459.9 106.64c61.26 13.48 161.21 35.48 219.3 48.27"/>
            <path fill="red" d="m678.27 151.12 9.01 5.57-10.52 1.27z"/>
        </g>
        <g stroke="#000" class="edge">
            <path fill="none" d="m431 111.29 151.35 102.83"/>
            <path d="m584.13 211.1 6.31 8.51-10.24-2.72z"/>
        </g>
        <g stroke="#000" class="edge">
            <path fill="none" d="M412.25 112.26c11.17 33.72 40.78 108.19 93.78 143.74 42.61 28.58 185.53 43.17 266.6 49.32"/>
            <path d="m772.41 301.79 9.72 4.23-10.23 2.75z"/>
        </g>
        <g class="node" transform="translate(4 472)">
            <ellipse cx="300.03" cy="-306" fill="none" stroke="#000" rx="60.05" ry="18"/>
            <text x="300.03" y="-300.95" font-family="Times,serif" font-size="14" text-anchor="middle">:core:domain</text>
        </g>
        <g stroke="#000" class="edge">
            <path fill="none" d="M382.88 111.41c-13.75 9.35-31.18 21.19-46.14 31.36"/>
            <path d="m338.81 145.6-10.24 2.72 6.3-8.51z"/>
        </g>
        <g stroke="#000" class="edge">
            <path fill="none" d="M295.3 107.43c79.86 21.78 242.76 65.61 300.73 76.57 128.83 24.37 281.5 40.05 366.49 47.63"/>
            <path d="m962.64 228.13 9.66 4.36-10.27 2.61z"/>
        </g>
        <g stroke="#000" class="edge">
            <path fill="none" d="M298.55 106.52c9.11 1.97 18.56 3.89 27.48 5.48 8.58 1.53 246.15 32.87 350.56 46.62"/>
            <path d="m676.79 155.12 9.46 4.77-10.37 2.17z"/>
        </g>
        <g stroke="#000" class="edge">
            <path fill="none" d="M286.8 109.27c66.09 25.64 204.98 79.53 279.5 108.43"/>
            <path d="m567.34 214.35 8.05 6.88-10.58-.35z"/>
        </g>
        <g stroke="#000" class="edge">
            <path fill="none" d="M241.24 112.01c-8.32 18.64-17.94 48.95-6.21 71.99 24.69 48.48 48.23 52.45 99 72 20.25 7.8 313.01 35.89 439.01 47.71"/>
            <path d="m773.2 300.21 9.63 4.41-10.28 2.55z"/>
        </g>
        <g stroke="#000" class="edge">
            <path fill="none" d="M263.1 111.95c6.3 8.16 14 18.14 21.01 27.23"/>
            <path d="m286.82 136.96 3.33 10.05-8.88-5.78z"/>
        </g>
        <g stroke="#000" class="edge">
            <path fill="none" d="M1058.74 112.41c-5.94 24.09-16.72 67.84-23.8 96.56"/>
            <path d="m1038.4 209.55-5.79 8.87-1.01-10.55z"/>
        </g>
        <g stroke="#000" class="edge">
            <path fill="none" d="M1004.54 107.11c-66.21 13.72-172.72 35.77-233.35 48.33"/>
            <path d="m772.05 158.84-10.5-1.4 9.08-5.46z"/>
        </g>
        <g stroke="#000" class="edge">
            <path fill="none" d="M1024.03 110.24c-48.38 18.63-133.59 50.54-208 73.76-44.73 13.96-95.79 27.45-135.13 37.33"/>
            <path d="m681.89 224.69-10.55-.98 8.85-5.81z"/>
        </g>
        <g stroke="#000" class="edge">
            <path fill="none" d="M1044.75 111.79c-41.21 37.85-141.43 129.89-188.93 173.52"/>
            <path d="m858.44 287.66-9.73 4.19 4.99-9.34z"/>
        </g>
        <g stroke="#000" class="edge">
            <path fill="none" d="M920.85 111.54c11.19 10.14 25.45 23.61 37.18 36.46 18.51 20.28 37.65 44.92 51.23 63.13"/>
            <path d="m1011.8 208.67 3.13 10.12-8.76-5.96z"/>
        </g>
        <g stroke="#000" class="edge">
            <path fill="none" d="M866.64 109c-29.6 11.7-71.78 28.38-102.4 40.49"/>
            <path d="m765.92 152.59-10.58.42 8.01-6.93z"/>
        </g>
        <g stroke="#000" class="edge">
            <path fill="none" d="M882.14 111.36c-24.44 19.46-67.76 51.91-109.11 72.64-29.99 15.03-65.23 27.37-94.72 36.34"/>
            <path d="m679.35 223.69-10.58-.5 8.58-6.21z"/>
        </g>
        <g stroke="#000" class="edge">
            <path fill="none" d="M896.26 112.15c-12.4 36.86-41.7 123.93-56.82 168.89"/>
            <path d="m842.82 281.97-6.51 8.36-.13-10.59z"/>
        </g>
        <g stroke="#000" class="edge">
            <path fill="none" d="M612.16 106.1c42.78 9.97 106.31 25.53 160.87 41.9 74.06 22.22 158.51 52.74 209.24 71.65"/>
            <path d="m983.32 216.31 8.14 6.78-10.59-.23z"/>
        </g>
        <g stroke="#000" class="edge">
            <path fill="none" d="M596.99 109.67c26.29 11.37 62.7 27.1 89.98 38.88"/>
            <path d="m688.12 145.24 7.79 7.18-10.56-.75z"/>
        </g>
        <g stroke="#000" class="edge">
            <path fill="none" d="M569.42 112.13c9 24.09 25.48 68.27 36.24 97.1"/>
            <path d="m608.87 207.8.22 10.59-6.78-8.14z"/>
        </g>
        <g stroke="#000" class="edge">
            <path fill="none" d="M550.78 111.75c-21.71 31.86-61.43 101.83-25.75 144.25 15.82 18.81 164.72 37.79 248.46 47.1"/>
            <path d="m773.79 299.62 9.56 4.57-10.32 2.38z"/>
        </g>
        <g stroke="#000" class="edge">
            <path fill="none" d="M517.62 107.27c-44.32 11.98-111.8 30.22-159.02 42.98"/>
            <path d="m359.69 153.58-10.57-.77 8.74-5.98z"/>
        </g>
        <g stroke="#000" class="edge">
            <path fill="none" d="M746.86 112.3c-3.12 7.55-6.87 16.58-10.36 25.02"/>
            <path d="m739.76 138.6-7.06 7.9.59-10.58z"/>
        </g>
        <g stroke="#000" class="edge">
            <path fill="none" d="M725.8 110.92c-15.45 9.54-34.33 22.61-48.77 37.08-18.53 18.57-35.05 43.46-46.2 62.2"/>
            <path d="m634.01 211.69-8.05 6.9 1.99-10.41z"/>
        </g>
        <g stroke="#000" class="edge">
            <path fill="none" d="M760.21 112.18c3.72 10.37 8.56 23.85 12.82 35.82 16.66 46.77 35.91 101.23 47.24 133.32"/>
            <path d="m823.53 280.05.03 10.59-6.63-8.26z"/>
        </g>
        <g stroke="red" stroke-width="2" class="edge">
            <path fill="none" d="M759.8 174.74c45.58 10.19 127.96 28.74 198.23 45.26 4.93 1.16 10.04 2.38 15.17 3.6"/>
            <path fill="red" d="m972.52 219.84 8.9 5.74-10.54 1.06z"/>
        </g>
        <g stroke="#000" class="edge">
            <path fill="none" d="M702.97 181.17c-14.87 9.55-34.81 22.35-51.84 33.29"/>
            <path d="m653.07 217.37-10.3 2.46 6.52-8.35z"/>
        </g>
        <g stroke="#000" class="edge">
            <path fill="none" d="M726.92 184.17c1.17 20.26-.35 53.49-19.89 71.83-85.69 80.45-184.75-52.59-262 36-31.55 36.18-29.91 70.46 0 108 44.61 55.99 87.51 18.81 157 36 3.74.93 7.6 1.9 11.48 2.89"/>
            <path d="m614.16 435.45 8.8 5.9-10.56.87z"/>
        </g>
        <g stroke="#000" class="edge">
            <path fill="none" d="M754.38 178.34c4.89 1.89 9.91 3.83 14.65 5.66 170.83 65.86 373.8 143.89 464.32 178.68"/>
            <path d="m1234.59 359.41 8.08 6.85-10.59-.32z"/>
        </g>
        <g stroke="#000" class="edge">
            <path fill="none" d="M863.59 323.07c19.08 8.56 41.82 21.93 55.44 40.93 12.54 17.49 17.11 41.55 18.65 60.25"/>
            <path d="m941.17 423.95-2.95 10.18-4.04-9.8z"/>
        </g>
        <g stroke="#000" class="edge">
            <path fill="none" d="M872.33 318.37c17.8 3.06 38.75 6.59 57.7 9.63 106.07 17 132.79 19.94 239 36 14.57 2.2 30.2 4.57 45.02 6.82"/>
            <path d="m1214.34 367.33 9.37 4.96-10.42 1.96z"/>
        </g>
        <g stroke="#000" class="edge">
            <path fill="none" d="m867.48 321.4 155.21 43.12"/>
            <path d="m1023.41 361.08 8.69 6.05-10.57.7z"/>
        </g>
        <g class="node" transform="translate(4 472)">
            <ellipse cx="662.03" cy="-90" fill="none" stroke="#000" rx="63.63" ry="18"/>
            <text x="662.03" y="-84.95" font-family="Times,serif" font-size="14" text-anchor="middle">:core:database</text>
        </g>
        <g stroke="red" stroke-width="2" class="edge">
            <path fill="none" d="M799.57 324c-24.97 10.66-60.67 25.89-88.87 37.93"/>
            <path fill="red" d="m713.65 364.48-10.57.71 7.82-7.15z"/>
        </g>
        <g stroke="#000" class="edge">
            <path fill="none" d="M789.76 319.93c-47.17 10.48-127.65 28.41-196.73 44.07-4.56 1.03-9.27 2.11-14.01 3.19"/>
            <path d="m579.99 370.56-10.53-1.19 8.96-5.64z"/>
        </g>
        <g class="node" transform="translate(4 472)">
            <ellipse cx="844.03" cy="-90" fill="none" stroke="#000" rx="62.1" ry="18"/>
            <text x="844.03" y="-84.95" font-family="Times,serif" font-size="14" text-anchor="middle">:core:network</text>
        </g>
        <g stroke="#000" class="edge">
            <path fill="none" d="M834.48 328.3c1.9 7.38 4.16 16.18 6.29 24.45"/>
            <path d="m844.15 351.87-.9 10.56-5.88-8.81z"/>
        </g>
        <g stroke="#000" class="edge">
            <path fill="none" d="m1185.26 179.68-110.45 40.27"/>
            <path d="m1076.19 223.17-10.6.14 8.2-6.72z"/>
        </g>
        <g stroke="#000" class="edge">
            <path fill="none" d="M1194.45 181.91c-16.95 10.18-39.47 24.27-58.42 38.09-20.14 14.68-20.53 25.2-43 36-65.85 31.64-149.73 44.4-204.83 49.55"/>
            <path d="m888.67 309.02-10.27-2.62 9.66-4.36z"/>
        </g>
        <g stroke="#000" class="edge">
            <path fill="none" d="M1224.92 184.15c10.48 36.78 35.22 123.56 48.06 168.61"/>
            <path d="m1276.33 351.74-.63 10.57-6.1-8.66z"/>
        </g>
        <g stroke="#000" class="edge">
            <path fill="none" d="M1209.2 183.79c-23.81 36.93-80.91 125.47-109.8 170.27"/>
            <path d="m1102.37 355.91-8.36 6.51 2.48-10.3z"/>
        </g>
        <g stroke="#000" class="edge">
            <path fill="none" d="M1049.71 398.71c-20.76 10.09-47.92 23.29-70.25 34.15"/>
            <path d="m981.13 435.94-10.52 1.22 7.46-7.52z"/>
        </g>
        <g stroke="#000" class="edge">
            <path fill="none" d="M1023.17 394.06c-11.01 2.02-22.42 4.07-33.14 5.94-91.77 15.98-198.42 33.16-263.55 43.49"/>
            <path d="m727.13 446.93-10.43-1.89 9.33-5.02z"/>
        </g>
        <g stroke="red" stroke-width="2" class="edge">
            <path fill="none" d="M666.03 400.3v24.16"/>
            <path fill="red" d="m669.53 422.87-3.5 10-3.5-10z"/>
        </g>
        <g stroke="#000" class="edge">
            <path fill="none" d="M567.09 394.58c8.61 1.92 17.52 3.81 25.94 5.42 95.14 18.21 205.98 34.34 275.82 43.89"/>
            <path d="m869.19 440.41 9.43 4.81-10.38 2.12z"/>
        </g>
        <g stroke="#000" class="edge">
            <path fill="none" d="M550.57 398.02c21.8 10.38 51 24.29 74.59 35.52"/>
            <path d="m626.66 430.38 7.53 7.46-10.54-1.14z"/>
        </g>
        <g class="node" transform="translate(4 472)">
            <ellipse cx="501.03" cy="-18" fill="none" stroke="#000" rx="87.69" ry="18"/>
            <text x="501.03" y="-12.95" font-family="Times,serif" font-size="14" text-anchor="middle">:core:datastore-proto</text>
        </g>
        <g stroke="#000" class="edge">
            <path fill="none" d="M515.57 400.3c-1.48 7.38-3.24 16.18-4.89 24.45"/>
            <path d="m514.14 425.29-5.39 9.12-1.47-10.49z"/>
        </g>
        <g stroke="#000" class="edge">
            <path fill="none" d="M868.9 399.24c11.62 9.03 26.28 20.43 39.11 30.41"/>
            <path d="m910.02 426.78 5.74 8.9-10.04-3.38z"/>
        </g>
        <g stroke="#000" class="edge">
            <path fill="none" d="M811.64 397c-28.86 11.1-69.35 26.67-100.31 38.58"/>
            <path d="m712.82 438.75-10.59.33 8.08-6.86z"/>
        </g>
        <g stroke="#000" class="edge">
            <path fill="none" d="M312.89 184.14c11.8 20.87 34.76 55.38 65.14 71.86 34.04 18.46 280.95 39.72 394.79 48.67"/>
            <path d="m772.86 301.17 9.7 4.26-10.25 2.72z"/>
        </g>
        <g stroke="#000" class="edge">
            <path fill="none" d="M307 184.39c8.6 44.39 37.88 162.18 114.03 215.61 67.14 47.11 101.1 17.46 181 36 3.81.88 7.74 1.83 11.69 2.82"/>
            <path d="m614.52 435.41 8.83 5.86-10.56.92z"/>
        </g>
    </g>
</svg>
