<?xml version="1.0" encoding="UTF-8" standalone="no"?>
<!DOCTYPE svg PUBLIC "-//W3C//DTD SVG 1.1//EN"
 "http://www.w3.org/Graphics/SVG/1.1/DTD/svg11.dtd">
<!-- Generated by graphviz version 9.0.0 (20230911.1827)
 -->
<!-- Title: G Pages: 1 -->
<svg width="1034pt" height="404pt"
 viewBox="0.00 0.00 1033.76 404.00" xmlns="http://www.w3.org/2000/svg" xmlns:xlink="http://www.w3.org/1999/xlink">
<g id="graph0" class="graph" transform="scale(1 1) rotate(0) translate(4 400)">
<title>G</title>
<polygon fill="white" stroke="none" points="-4,4 -4,-400 1029.76,-400 1029.76,4 -4,4"/>
<!-- :feature:search -->
<g id="node1" class="node">
<title>:feature:search</title>
<ellipse fill="none" stroke="black" cx="278.07" cy="-378" rx="65.17" ry="18"/>
<text text-anchor="middle" x="278.07" y="-372.95" font-family="Times,serif" font-size="14.00">:feature:search</text>
</g>
<!-- :core:ui -->
<g id="node2" class="node">
<title>:core:ui</title>
<ellipse fill="none" stroke="black" cx="111.07" cy="-234" rx="39.07" ry="18"/>
<text text-anchor="middle" x="111.07" y="-228.95" font-family="Times,serif" font-size="14.00">:core:ui</text>
</g>
<!-- :feature:search&#45;&gt;:core:ui -->
<g id="edge1" class="edge">
<title>:feature:search&#45;&gt;:core:ui</title>
<path fill="none" stroke="black" d="M215.02,-373.03C146.44,-367.24 43.34,-353.74 19.07,-324 8.95,-311.6 11.06,-301.85 19.07,-288 29.76,-269.5 49.63,-256.89 68.17,-248.63"/>
<polygon fill="black" stroke="black" points="69.24,-251.97 77.16,-244.94 66.58,-245.5 69.24,-251.97"/>
</g>
<!-- :core:designsystem -->
<g id="node3" class="node">
<title>:core:designsystem</title>
<ellipse fill="none" stroke="black" cx="200.07" cy="-162" rx="82.06" ry="18"/>
<text text-anchor="middle" x="200.07" y="-156.95" font-family="Times,serif" font-size="14.00">:core:designsystem</text>
</g>
<!-- :feature:search&#45;&gt;:core:designsystem -->
<g id="edge2" class="edge">
<title>:feature:search&#45;&gt;:core:designsystem</title>
<path fill="none" stroke="black" d="M214.52,-373.54C143.34,-368.18 34.58,-355.02 9.07,-324 -25.99,-281.35 57.01,-220.59 63.07,-216 84.59,-199.7 111.73,-187.82 136.17,-179.49"/>
<polygon fill="black" stroke="black" points="136.95,-182.92 145.37,-176.49 134.78,-176.26 136.95,-182.92"/>
</g>
<!-- :core:data -->
<g id="node4" class="node">
<title>:core:data</title>
<ellipse fill="none" stroke="black" cx="517.07" cy="-162" rx="47.26" ry="18"/>
<text text-anchor="middle" x="517.07" y="-156.95" font-family="Times,serif" font-size="14.00">:core:data</text>
</g>
<!-- :feature:search&#45;&gt;:core:data -->
<g id="edge3" class="edge">
<title>:feature:search&#45;&gt;:core:data</title>
<path fill="none" stroke="black" d="M341.07,-372.8C408.59,-366.84 509.31,-353.2 533.07,-324 563.94,-286.05 545.4,-225.23 530.4,-190.21"/>
<polygon fill="black" stroke="black" points="533.63,-188.87 526.34,-181.19 527.25,-191.75 533.63,-188.87"/>
</g>
<!-- :core:domain -->
<g id="node5" class="node">
<title>:core:domain</title>
<ellipse fill="none" stroke="black" cx="429.07" cy="-234" rx="60.05" ry="18"/>
<text text-anchor="middle" x="429.07" y="-228.95" font-family="Times,serif" font-size="14.00">:core:domain</text>
</g>
<!-- :feature:search&#45;&gt;:core:domain -->
<g id="edge4" class="edge">
<title>:feature:search&#45;&gt;:core:domain</title>
<path fill="none" stroke="black" d="M339.78,-371.88C402.79,-365.22 494.35,-351.08 516.07,-324 526.08,-311.52 523.91,-301.95 516.07,-288 507.47,-272.69 492.46,-261.29 477.31,-253.06"/>
<polygon fill="black" stroke="black" points="479.25,-250.12 468.74,-248.78 476.12,-256.38 479.25,-250.12"/>
</g>
<!-- :feature:bookmarks -->
<g id="node6" class="node">
<title>:feature:bookmarks</title>
<ellipse fill="none" stroke="black" cx="111.07" cy="-306" rx="83.08" ry="18"/>
<text text-anchor="middle" x="111.07" y="-300.95" font-family="Times,serif" font-size="14.00">:feature:bookmarks</text>
</g>
<!-- :feature:search&#45;&gt;:feature:bookmarks -->
<g id="edge5" class="edge">
<title>:feature:search&#45;&gt;:feature:bookmarks</title>
<path fill="none" stroke="black" d="M243.47,-362.5C218.84,-352.17 185.45,-338.18 158.36,-326.82"/>
<polygon fill="black" stroke="black" points="159.92,-323.68 149.34,-323.04 157.21,-330.14 159.92,-323.68"/>
</g>
<!-- :feature:foryou -->
<g id="node7" class="node">
<title>:feature:foryou</title>
<ellipse fill="none" stroke="black" cx="278.07" cy="-306" rx="66.19" ry="18"/>
<text text-anchor="middle" x="278.07" y="-300.95" font-family="Times,serif" font-size="14.00">:feature:foryou</text>
</g>
<!-- :feature:search&#45;&gt;:feature:foryou -->
<g id="edge6" class="edge">
<title>:feature:search&#45;&gt;:feature:foryou</title>
<path fill="none" stroke="red" stroke-width="2" d="M278.07,-359.7C278.07,-352.41 278.07,-343.73 278.07,-335.54"/>
<polygon fill="red" stroke="red" stroke-width="2" points="281.57,-337.13 278.07,-327.13 274.57,-337.13 281.57,-337.13"/>
</g>
<!-- :feature:interests -->
<g id="node8" class="node">
<title>:feature:interests</title>
<ellipse fill="none" stroke="black" cx="435.07" cy="-306" rx="72.34" ry="18"/>
<text text-anchor="middle" x="435.07" y="-300.95" font-family="Times,serif" font-size="14.00">:feature:interests</text>
</g>
<!-- :feature:search&#45;&gt;:feature:interests -->
<g id="edge7" class="edge">
<title>:feature:search&#45;&gt;:feature:interests</title>
<path fill="none" stroke="black" d="M311.36,-362.15C334.36,-351.9 365.21,-338.15 390.35,-326.94"/>
<polygon fill="black" stroke="black" points="391.65,-330.19 399.35,-322.92 388.8,-323.8 391.65,-330.19"/>
</g>
<!-- :core:ui&#45;&gt;:core:designsystem -->
<g id="edge9" class="edge">
<title>:core:ui&#45;&gt;:core:designsystem</title>
<path fill="none" stroke="black" d="M129.94,-218.15C141.55,-209.02 156.69,-197.12 169.93,-186.71"/>
<polygon fill="black" stroke="black" points="171.84,-189.66 177.53,-180.72 167.51,-184.16 171.84,-189.66"/>
</g>
<!-- :core:analytics -->
<g id="node9" class="node">
<title>:core:analytics</title>
<ellipse fill="none" stroke="black" cx="291.07" cy="-90" rx="64.66" ry="18"/>
<text text-anchor="middle" x="291.07" y="-84.95" font-family="Times,serif" font-size="14.00">:core:analytics</text>
</g>
<!-- :core:ui&#45;&gt;:core:analytics -->
<g id="edge8" class="edge">
<title>:core:ui&#45;&gt;:core:analytics</title>
<path fill="none" stroke="black" d="M105,-216.04C99.22,-196.61 93.49,-164.77 109.07,-144 123.26,-125.09 178.83,-110.72 224.88,-101.74"/>
<polygon fill="black" stroke="black" points="225.38,-105.21 234.56,-99.91 224.08,-98.33 225.38,-105.21"/>
</g>
<!-- :core:model -->
<g id="node10" class="node">
<title>:core:model</title>
<ellipse fill="none" stroke="black" cx="517.07" cy="-18" rx="55.45" ry="18"/>
<text text-anchor="middle" x="517.07" y="-12.95" font-family="Times,serif" font-size="14.00">:core:model</text>
</g>
<!-- :core:ui&#45;&gt;:core:model -->
<g id="edge10" class="edge">
<title>:core:ui&#45;&gt;:core:model</title>
<path fill="none" stroke="black" d="M101.91,-216.22C93.05,-197.52 82.63,-166.9 95.07,-144 123.14,-92.33 151.29,-93.38 206.07,-72 286.93,-40.44 386.87,-27.64 451.27,-22.47"/>
<polygon fill="black" stroke="black" points="451.26,-25.98 460.96,-21.74 450.73,-19 451.26,-25.98"/>
</g>
<!-- :core:data&#45;&gt;:core:analytics -->
<g id="edge15" class="edge">
<title>:core:data&#45;&gt;:core:analytics</title>
<path fill="none" stroke="black" d="M481.26,-149.91C444.35,-138.48 386.41,-120.53 344.17,-107.45"/>
<polygon fill="black" stroke="black" points="345.28,-104.13 334.7,-104.51 343.21,-110.81 345.28,-104.13"/>
</g>
<!-- :core:common -->
<g id="node11" class="node">
<title>:core:common</title>
<ellipse fill="none" stroke="black" cx="761.07" cy="-18" rx="65.17" ry="18"/>
<text text-anchor="middle" x="761.07" y="-12.95" font-family="Times,serif" font-size="14.00">:core:common</text>
</g>
<!-- :core:data&#45;&gt;:core:common -->
<g id="edge11" class="edge">
<title>:core:data&#45;&gt;:core:common</title>
<path fill="none" stroke="black" d="M564.54,-160.03C642.71,-157.31 793.18,-147.01 826.07,-108 836.38,-95.77 832.93,-86.45 826.07,-72 820.22,-59.69 809.96,-49.3 799.3,-41.07"/>
<polygon fill="black" stroke="black" points="801.34,-38.22 791.16,-35.27 797.28,-43.92 801.34,-38.22"/>
</g>
<!-- :core:database -->
<g id="node12" class="node">
<title>:core:database</title>
<ellipse fill="none" stroke="black" cx="437.07" cy="-90" rx="63.63" ry="18"/>
<text text-anchor="middle" x="437.07" y="-84.95" font-family="Times,serif" font-size="14.00">:core:database</text>
</g>
<!-- :core:data&#45;&gt;:core:database -->
<g id="edge12" class="edge">
<title>:core:data&#45;&gt;:core:database</title>
<path fill="none" stroke="red" stroke-width="2" d="M498.92,-145.12C488.7,-136.18 475.75,-124.85 464.34,-114.86"/>
<polygon fill="red" stroke="red" stroke-width="2" points="468.09,-113.5 458.26,-109.54 463.48,-118.76 468.09,-113.5"/>
</g>
<!-- :core:datastore -->
<g id="node13" class="node">
<title>:core:datastore</title>
<ellipse fill="none" stroke="black" cx="938.07" cy="-90" rx="65.17" ry="18"/>
<text text-anchor="middle" x="938.07" y="-84.95" font-family="Times,serif" font-size="14.00">:core:datastore</text>
</g>
<!-- :core:data&#45;&gt;:core:datastore -->
<g id="edge13" class="edge">
<title>:core:data&#45;&gt;:core:datastore</title>
<path fill="none" stroke="black" d="M561.21,-155C626.5,-145.93 752.57,-127.69 859.07,-108 865.1,-106.88 871.38,-105.65 877.65,-104.38"/>
<polygon fill="black" stroke="black" points="878.29,-107.82 887.37,-102.36 876.87,-100.97 878.29,-107.82"/>
</g>
<!-- :core:network -->
<g id="node14" class="node">
<title>:core:network</title>
<ellipse fill="none" stroke="black" cx="755.07" cy="-90" rx="62.1" ry="18"/>
<text text-anchor="middle" x="755.07" y="-84.95" font-family="Times,serif" font-size="14.00">:core:network</text>
</g>
<!-- :core:data&#45;&gt;:core:network -->
<g id="edge14" class="edge">
<title>:core:data&#45;&gt;:core:network</title>
<path fill="none" stroke="black" d="M553.73,-150.22C593.28,-138.58 656.63,-119.95 701.7,-106.7"/>
<polygon fill="black" stroke="black" points="702.68,-110.06 711.28,-103.88 700.7,-103.34 702.68,-110.06"/>
</g>
<!-- :core:notifications -->
<g id="node15" class="node">
<title>:core:notifications</title>
<ellipse fill="none" stroke="black" cx="597.07" cy="-90" rx="77.97" ry="18"/>
<text text-anchor="middle" x="597.07" y="-84.95" font-family="Times,serif" font-size="14.00">:core:notifications</text>
</g>
<!-- :core:data&#45;&gt;:core:notifications -->
<g id="edge16" class="edge">
<title>:core:data&#45;&gt;:core:notifications</title>
<path fill="none" stroke="black" d="M535.22,-145.12C545.26,-136.33 557.95,-125.23 569.22,-115.37"/>
<polygon fill="black" stroke="black" points="571.51,-118.01 576.73,-108.79 566.9,-112.75 571.51,-118.01"/>
</g>
<!-- :core:domain&#45;&gt;:core:data -->
<g id="edge25" class="edge">
<title>:core:domain&#45;&gt;:core:data</title>
<path fill="none" stroke="red" stroke-width="2" d="M449.48,-216.76C461.08,-207.53 475.79,-195.83 488.53,-185.7"/>
<polygon fill="red" stroke="red" stroke-width="2" points="489.36,-189.51 495.01,-180.55 485,-184.04 489.36,-189.51"/>
</g>
<!-- :core:domain&#45;&gt;:core:model -->
<g id="edge26" class="edge">
<title>:core:domain&#45;&gt;:core:model</title>
<path fill="none" stroke="black" d="M406.15,-217.01C379.19,-198.48 332.8,-167.5 291.07,-144 259.2,-126.06 236.47,-139.01 217.07,-108 208.58,-94.44 206.79,-84.26 217.07,-72 246.27,-37.19 371.39,-25.23 450.53,-21.13"/>
<polygon fill="black" stroke="black" points="450.53,-24.64 460.35,-20.66 450.19,-17.64 450.53,-24.64"/>
</g>
<!-- :feature:bookmarks&#45;&gt;:core:ui -->
<g id="edge27" class="edge">
<title>:feature:bookmarks&#45;&gt;:core:ui</title>
<path fill="none" stroke="black" d="M111.07,-287.7C111.07,-280.41 111.07,-271.73 111.07,-263.54"/>
<polygon fill="black" stroke="black" points="114.57,-263.62 111.07,-253.62 107.57,-263.62 114.57,-263.62"/>
</g>
<!-- :feature:bookmarks&#45;&gt;:core:designsystem -->
<g id="edge28" class="edge">
<title>:feature:bookmarks&#45;&gt;:core:designsystem</title>
<path fill="none" stroke="black" d="M128.96,-287.98C138.68,-278.09 150.45,-265.05 159.07,-252 171.8,-232.72 182.57,-208.85 189.86,-190.68"/>
<polygon fill="black" stroke="black" points="193.03,-192.2 193.4,-181.61 186.51,-189.66 193.03,-192.2"/>
</g>
<!-- :feature:bookmarks&#45;&gt;:core:data -->
<g id="edge29" class="edge">
<title>:feature:bookmarks&#45;&gt;:core:data</title>
<path fill="none" stroke="black" d="M143.65,-289.12C183.77,-270 254.3,-237.74 317.07,-216 366.71,-198.81 424.91,-183.96 465.68,-174.39"/>
<polygon fill="black" stroke="black" points="466.27,-177.85 475.22,-172.18 464.69,-171.03 466.27,-177.85"/>
</g>
<!-- :feature:foryou&#45;&gt;:core:ui -->
<g id="edge30" class="edge">
<title>:feature:foryou&#45;&gt;:core:ui</title>
<path fill="none" stroke="black" d="M243.06,-290.33C215.75,-278.88 177.85,-262.99 149.67,-251.18"/>
<polygon fill="black" stroke="black" points="151.36,-248.09 140.78,-247.45 148.65,-254.55 151.36,-248.09"/>
</g>
<!-- :feature:foryou&#45;&gt;:core:designsystem -->
<g id="edge31" class="edge">
<title>:feature:foryou&#45;&gt;:core:designsystem</title>
<path fill="none" stroke="black" d="M268.66,-287.87C255.31,-263.56 230.73,-218.82 214.91,-190.01"/>
<polygon fill="black" stroke="black" points="218.12,-188.6 210.24,-181.52 211.99,-191.97 218.12,-188.6"/>
</g>
<!-- :feature:foryou&#45;&gt;:core:data -->
<g id="edge32" class="edge">
<title>:feature:foryou&#45;&gt;:core:data</title>
<path fill="none" stroke="black" d="M289.73,-287.85C304.09,-267.93 330.29,-235.34 360.07,-216 391.9,-195.33 432.63,-181.89 464.62,-173.71"/>
<polygon fill="black" stroke="black" points="465.2,-177.18 474.08,-171.4 463.53,-170.38 465.2,-177.18"/>
</g>
<!-- :feature:foryou&#45;&gt;:core:domain -->
<g id="edge33" class="edge">
<title>:feature:foryou&#45;&gt;:core:domain</title>
<path fill="none" stroke="red" stroke-width="2" d="M310.46,-289.98C332.88,-279.59 362.93,-265.66 387.17,-254.42"/>
<polygon fill="red" stroke="red" stroke-width="2" points="387.16,-258.29 394.76,-250.91 384.21,-251.94 387.16,-258.29"/>
</g>
<!-- :feature:interests&#45;&gt;:core:ui -->
<g id="edge34" class="edge">
<title>:feature:interests&#45;&gt;:core:ui</title>
<path fill="none" stroke="black" d="M381.93,-293.52C319.19,-279.96 215.9,-257.65 156.65,-244.85"/>
<polygon fill="black" stroke="black" points="157.76,-241.51 147.25,-242.82 156.28,-248.35 157.76,-241.51"/>
</g>
<!-- :feature:interests&#45;&gt;:core:designsystem -->
<g id="edge35" class="edge">
<title>:feature:interests&#45;&gt;:core:designsystem</title>
<path fill="none" stroke="black" d="M408.57,-288.99C366.54,-263.59 284.5,-214.02 236.82,-185.21"/>
<polygon fill="black" stroke="black" points="238.86,-182.35 228.49,-180.17 235.24,-188.34 238.86,-182.35"/>
</g>
<!-- :feature:interests&#45;&gt;:core:data -->
<g id="edge36" class="edge">
<title>:feature:interests&#45;&gt;:core:data</title>
<path fill="none" stroke="black" d="M461.4,-288.93C474.36,-279.69 489.09,-266.95 498.07,-252 509.03,-233.75 513.71,-210.07 515.69,-191.72"/>
<polygon fill="black" stroke="black" points="519.18,-192.04 516.53,-181.78 512.21,-191.45 519.18,-192.04"/>
</g>
<!-- :feature:interests&#45;&gt;:core:domain -->
<g id="edge37" class="edge">
<title>:feature:interests&#45;&gt;:core:domain</title>
<path fill="none" stroke="black" d="M433.59,-287.7C432.96,-280.41 432.22,-271.73 431.51,-263.54"/>
<polygon fill="black" stroke="black" points="435.01,-263.28 430.66,-253.61 428.03,-263.87 435.01,-263.28"/>
</g>
<!-- :core:database&#45;&gt;:core:model -->
<g id="edge17" class="edge">
<title>:core:database&#45;&gt;:core:model</title>
<path fill="none" stroke="red" stroke-width="2" d="M456.03,-72.41C466.16,-63.54 478.82,-52.47 489.97,-42.71"/>
<polygon fill="red" stroke="red" stroke-width="2" points="491.02,-46.44 496.24,-37.22 486.41,-41.17 491.02,-46.44"/>
</g>
<!-- :core:datastore&#45;&gt;:core:model -->
<g id="edge19" class="edge">
<title>:core:datastore&#45;&gt;:core:model</title>
<path fill="none" stroke="black" d="M883.46,-79.92C804.42,-66.78 658.64,-42.54 576.82,-28.93"/>
<polygon fill="black" stroke="black" points="577.64,-25.52 567.2,-27.34 576.49,-32.43 577.64,-25.52"/>
</g>
<!-- :core:datastore&#45;&gt;:core:common -->
<g id="edge20" class="edge">
<title>:core:datastore&#45;&gt;:core:common</title>
<path fill="none" stroke="black" d="M901.82,-74.67C874.62,-63.91 837.15,-49.09 807.72,-37.45"/>
<polygon fill="black" stroke="black" points="809.26,-34.29 798.67,-33.87 806.69,-40.8 809.26,-34.29"/>
</g>
<!-- :core:datastore&#45;proto -->
<g id="node16" class="node">
<title>:core:datastore&#45;proto</title>
<ellipse fill="none" stroke="black" cx="938.07" cy="-18" rx="87.69" ry="18"/>
<text text-anchor="middle" x="938.07" y="-12.95" font-family="Times,serif" font-size="14.00">:core:datastore&#45;proto</text>
</g>
<!-- :core:datastore&#45;&gt;:core:datastore&#45;proto -->
<g id="edge18" class="edge">
<title>:core:datastore&#45;&gt;:core:datastore&#45;proto</title>
<path fill="none" stroke="black" d="M938.07,-71.7C938.07,-64.41 938.07,-55.73 938.07,-47.54"/>
<polygon fill="black" stroke="black" points="941.57,-47.62 938.07,-37.62 934.57,-47.62 941.57,-47.62"/>
</g>
<!-- :core:network&#45;&gt;:core:model -->
<g id="edge22" class="edge">
<title>:core:network&#45;&gt;:core:model</title>
<path fill="none" stroke="black" d="M712.52,-76.49C672.05,-64.58 611.13,-46.67 568.08,-34"/>
<polygon fill="black" stroke="black" points="569.3,-30.71 558.72,-31.25 567.33,-37.43 569.3,-30.71"/>
</g>
<!-- :core:network&#45;&gt;:core:common -->
<g id="edge21" class="edge">
<title>:core:network&#45;&gt;:core:common</title>
<path fill="none" stroke="black" d="M756.55,-71.7C757.18,-64.41 757.92,-55.73 758.62,-47.54"/>
<polygon fill="black" stroke="black" points="762.11,-47.87 759.47,-37.61 755.13,-47.28 762.11,-47.87"/>
</g>
<!-- :core:notifications&#45;&gt;:core:model -->
<g id="edge23" class="edge">
<title>:core:notifications&#45;&gt;:core:model</title>
<path fill="none" stroke="black" d="M578.11,-72.41C567.97,-63.54 555.32,-52.47 544.16,-42.71"/>
<polygon fill="black" stroke="black" points="546.59,-40.18 536.75,-36.23 541.98,-45.44 546.59,-40.18"/>
</g>
<!-- :core:notifications&#45;&gt;:core:common -->
<g id="edge24" class="edge">
<title>:core:notifications&#45;&gt;:core:common</title>
<path fill="none" stroke="black" d="M633.06,-73.64C657.51,-63.2 690.02,-49.33 716.16,-38.17"/>
<polygon fill="black" stroke="black" points="717.35,-41.47 725.17,-34.32 714.6,-35.03 717.35,-41.47"/>
</g>
</g>
</svg>
