<?xml version="1.0" encoding="UTF-8" standalone="no"?>
<!DOCTYPE svg PUBLIC "-//W3C//DTD SVG 1.1//EN"
 "http://www.w3.org/Graphics/SVG/1.1/DTD/svg11.dtd">
<!-- Generated by graphviz version 9.0.0 (20230911.1827)
 -->
<!-- Title: G Pages: 1 -->
<svg width="1028pt" height="260pt"
 viewBox="0.00 0.00 1027.75 260.00" xmlns="http://www.w3.org/2000/svg" xmlns:xlink="http://www.w3.org/1999/xlink">
<g id="graph0" class="graph" transform="scale(1 1) rotate(0) translate(4 256)">
<title>G</title>
<polygon fill="white" stroke="none" points="-4,4 -4,-256 1023.75,-256 1023.75,4 -4,4"/>
<!-- :feature:settings -->
<g id="node1" class="node">
<title>:feature:settings</title>
<ellipse fill="none" stroke="black" cx="192.06" cy="-234" rx="69.78" ry="18"/>
<text text-anchor="middle" x="192.06" y="-228.95" font-family="Times,serif" font-size="14.00">:feature:settings</text>
</g>
<!-- :core:ui -->
<g id="node2" class="node">
<title>:core:ui</title>
<ellipse fill="none" stroke="black" cx="192.06" cy="-162" rx="39.07" ry="18"/>
<text text-anchor="middle" x="192.06" y="-156.95" font-family="Times,serif" font-size="14.00">:core:ui</text>
</g>
<!-- :feature:settings&#45;&gt;:core:ui -->
<g id="edge1" class="edge">
<title>:feature:settings&#45;&gt;:core:ui</title>
<path fill="none" stroke="black" d="M192.06,-215.7C192.06,-208.41 192.06,-199.73 192.06,-191.54"/>
<polygon fill="black" stroke="black" points="195.56,-191.62 192.06,-181.62 188.56,-191.62 195.56,-191.62"/>
</g>
<!-- :core:designsystem -->
<g id="node3" class="node">
<title>:core:designsystem</title>
<ellipse fill="none" stroke="black" cx="82.06" cy="-90" rx="82.06" ry="18"/>
<text text-anchor="middle" x="82.06" y="-84.95" font-family="Times,serif" font-size="14.00">:core:designsystem</text>
</g>
<!-- :feature:settings&#45;&gt;:core:designsystem -->
<g id="edge2" class="edge">
<title>:feature:settings&#45;&gt;:core:designsystem</title>
<path fill="none" stroke="black" d="M175.93,-216.3C166.33,-206.1 154.11,-192.63 144.06,-180 128.01,-159.83 111.39,-135.78 99.41,-117.77"/>
<polygon fill="black" stroke="black" points="102.35,-115.88 93.93,-109.46 96.51,-119.73 102.35,-115.88"/>
</g>
<!-- :core:data -->
<g id="node4" class="node">
<title>:core:data</title>
<ellipse fill="none" stroke="black" cx="591.06" cy="-162" rx="47.26" ry="18"/>
<text text-anchor="middle" x="591.06" y="-156.95" font-family="Times,serif" font-size="14.00">:core:data</text>
</g>
<!-- :feature:settings&#45;&gt;:core:data -->
<g id="edge3" class="edge">
<title>:feature:settings&#45;&gt;:core:data</title>
<path fill="none" stroke="red" stroke-width="2" d="M248.38,-223.12C325.31,-209.62 462.27,-185.59 537.65,-172.37"/>
<polygon fill="red" stroke="red" stroke-width="2" points="536.53,-176.12 545.77,-170.95 535.32,-169.23 536.53,-176.12"/>
</g>
<!-- :core:ui&#45;&gt;:core:designsystem -->
<g id="edge5" class="edge">
<title>:core:ui&#45;&gt;:core:designsystem</title>
<path fill="none" stroke="black" d="M169.8,-146.83C154.65,-137.19 134.29,-124.24 117,-113.23"/>
<polygon fill="black" stroke="black" points="119.35,-110.58 109.04,-108.17 115.59,-116.49 119.35,-110.58"/>
</g>
<!-- :core:analytics -->
<g id="node5" class="node">
<title>:core:analytics</title>
<ellipse fill="none" stroke="black" cx="285.06" cy="-90" rx="64.66" ry="18"/>
<text text-anchor="middle" x="285.06" y="-84.95" font-family="Times,serif" font-size="14.00">:core:analytics</text>
</g>
<!-- :core:ui&#45;&gt;:core:analytics -->
<g id="edge4" class="edge">
<title>:core:ui&#45;&gt;:core:analytics</title>
<path fill="none" stroke="black" d="M211.78,-146.15C224.2,-136.81 240.49,-124.54 254.56,-113.96"/>
<polygon fill="black" stroke="black" points="256.32,-117.01 262.21,-108.2 252.11,-111.42 256.32,-117.01"/>
</g>
<!-- :core:model -->
<g id="node6" class="node">
<title>:core:model</title>
<ellipse fill="none" stroke="black" cx="591.06" cy="-18" rx="55.45" ry="18"/>
<text text-anchor="middle" x="591.06" y="-12.95" font-family="Times,serif" font-size="14.00">:core:model</text>
</g>
<!-- :core:ui&#45;&gt;:core:model -->
<g id="edge6" class="edge">
<title>:core:ui&#45;&gt;:core:model</title>
<path fill="none" stroke="black" d="M190.4,-143.81C189.47,-123.54 191.4,-90.3 211.06,-72 255.22,-30.9 427.13,-21.43 523.91,-19.4"/>
<polygon fill="black" stroke="black" points="523.87,-22.9 533.81,-19.22 523.74,-15.9 523.87,-22.9"/>
</g>
<!-- :core:data&#45;&gt;:core:analytics -->
<g id="edge11" class="edge">
<title>:core:data&#45;&gt;:core:analytics</title>
<path fill="none" stroke="black" d="M551.05,-151.97C504.63,-141.47 425.78,-123.59 358.06,-108 353.57,-106.97 348.92,-105.89 344.24,-104.81"/>
<polygon fill="black" stroke="black" points="345.36,-101.48 334.82,-102.62 343.78,-108.29 345.36,-101.48"/>
</g>
<!-- :core:common -->
<g id="node7" class="node">
<title>:core:common</title>
<ellipse fill="none" stroke="black" cx="755.06" cy="-18" rx="65.17" ry="18"/>
<text text-anchor="middle" x="755.06" y="-12.95" font-family="Times,serif" font-size="14.00">:core:common</text>
</g>
<!-- :core:data&#45;&gt;:core:common -->
<g id="edge7" class="edge">
<title>:core:data&#45;&gt;:core:common</title>
<path fill="none" stroke="black" d="M636.86,-157.02C697,-150.74 797.62,-136.23 820.06,-108 830.02,-95.48 826.92,-86.45 820.06,-72 814.21,-59.69 803.96,-49.3 793.29,-41.07"/>
<polygon fill="black" stroke="black" points="795.33,-38.22 785.15,-35.27 791.27,-43.92 795.33,-38.22"/>
</g>
<!-- :core:database -->
<g id="node8" class="node">
<title>:core:database</title>
<ellipse fill="none" stroke="black" cx="431.06" cy="-90" rx="63.63" ry="18"/>
<text text-anchor="middle" x="431.06" y="-84.95" font-family="Times,serif" font-size="14.00">:core:database</text>
</g>
<!-- :core:data&#45;&gt;:core:database -->
<g id="edge8" class="edge">
<title>:core:data&#45;&gt;:core:database</title>
<path fill="none" stroke="red" stroke-width="2" d="M560.97,-147.83C536.75,-137.24 502.38,-122.2 475.07,-110.26"/>
<polygon fill="red" stroke="red" stroke-width="2" points="477.95,-107.7 467.39,-106.89 475.15,-114.11 477.95,-107.7"/>
</g>
<!-- :core:datastore -->
<g id="node9" class="node">
<title>:core:datastore</title>
<ellipse fill="none" stroke="black" cx="932.06" cy="-90" rx="65.17" ry="18"/>
<text text-anchor="middle" x="932.06" y="-84.95" font-family="Times,serif" font-size="14.00">:core:datastore</text>
</g>
<!-- :core:data&#45;&gt;:core:datastore -->
<g id="edge9" class="edge">
<title>:core:data&#45;&gt;:core:datastore</title>
<path fill="none" stroke="black" d="M632.39,-152.8C684.04,-142.52 775.15,-124.26 853.06,-108 858.9,-106.78 864.97,-105.5 871.05,-104.21"/>
<polygon fill="black" stroke="black" points="871.4,-107.71 880.45,-102.2 869.94,-100.87 871.4,-107.71"/>
</g>
<!-- :core:network -->
<g id="node10" class="node">
<title>:core:network</title>
<ellipse fill="none" stroke="black" cx="749.06" cy="-90" rx="62.1" ry="18"/>
<text text-anchor="middle" x="749.06" y="-84.95" font-family="Times,serif" font-size="14.00">:core:network</text>
</g>
<!-- :core:data&#45;&gt;:core:network -->
<g id="edge10" class="edge">
<title>:core:data&#45;&gt;:core:network</title>
<path fill="none" stroke="black" d="M621.15,-147.67C645.1,-137.06 678.94,-122.07 705.79,-110.17"/>
<polygon fill="black" stroke="black" points="706.97,-113.47 714.7,-106.22 704.14,-107.07 706.97,-113.47"/>
</g>
<!-- :core:notifications -->
<g id="node11" class="node">
<title>:core:notifications</title>
<ellipse fill="none" stroke="black" cx="591.06" cy="-90" rx="77.97" ry="18"/>
<text text-anchor="middle" x="591.06" y="-84.95" font-family="Times,serif" font-size="14.00">:core:notifications</text>
</g>
<!-- :core:data&#45;&gt;:core:notifications -->
<g id="edge12" class="edge">
<title>:core:data&#45;&gt;:core:notifications</title>
<path fill="none" stroke="black" d="M591.06,-143.7C591.06,-136.41 591.06,-127.73 591.06,-119.54"/>
<polygon fill="black" stroke="black" points="594.56,-119.62 591.06,-109.62 587.56,-119.62 594.56,-119.62"/>
</g>
<!-- :core:database&#45;&gt;:core:model -->
<g id="edge13" class="edge">
<title>:core:database&#45;&gt;:core:model</title>
<path fill="none" stroke="red" stroke-width="2" d="M464.6,-74.33C489,-63.65 522.23,-49.11 548.51,-37.62"/>
<polygon fill="red" stroke="red" stroke-width="2" points="548.4,-41.49 556.15,-34.27 545.59,-35.07 548.4,-41.49"/>
</g>
<!-- :core:datastore&#45;&gt;:core:model -->
<g id="edge15" class="edge">
<title>:core:datastore&#45;&gt;:core:model</title>
<path fill="none" stroke="black" d="M881.01,-78.52C818.61,-65.71 713.32,-44.1 648.25,-30.74"/>
<polygon fill="black" stroke="black" points="648.97,-27.31 638.47,-28.73 647.56,-34.17 648.97,-27.31"/>
</g>
<!-- :core:datastore&#45;&gt;:core:common -->
<g id="edge16" class="edge">
<title>:core:datastore&#45;&gt;:core:common</title>
<path fill="none" stroke="black" d="M895.81,-74.67C868.61,-63.91 831.14,-49.09 801.71,-37.45"/>
<polygon fill="black" stroke="black" points="803.25,-34.29 792.66,-33.87 800.68,-40.8 803.25,-34.29"/>
</g>
<!-- :core:datastore&#45;proto -->
<g id="node12" class="node">
<title>:core:datastore&#45;proto</title>
<ellipse fill="none" stroke="black" cx="932.06" cy="-18" rx="87.69" ry="18"/>
<text text-anchor="middle" x="932.06" y="-12.95" font-family="Times,serif" font-size="14.00">:core:datastore&#45;proto</text>
</g>
<!-- :core:datastore&#45;&gt;:core:datastore&#45;proto -->
<g id="edge14" class="edge">
<title>:core:datastore&#45;&gt;:core:datastore&#45;proto</title>
<path fill="none" stroke="black" d="M932.06,-71.7C932.06,-64.41 932.06,-55.73 932.06,-47.54"/>
<polygon fill="black" stroke="black" points="935.56,-47.62 932.06,-37.62 928.56,-47.62 935.56,-47.62"/>
</g>
<!-- :core:network&#45;&gt;:core:model -->
<g id="edge18" class="edge">
<title>:core:network&#45;&gt;:core:model</title>
<path fill="none" stroke="black" d="M715.94,-74.33C691.84,-63.65 659.03,-49.11 633.08,-37.62"/>
<polygon fill="black" stroke="black" points="634.74,-34.52 624.17,-33.67 631.9,-40.92 634.74,-34.52"/>
</g>
<!-- :core:network&#45;&gt;:core:common -->
<g id="edge17" class="edge">
<title>:core:network&#45;&gt;:core:common</title>
<path fill="none" stroke="black" d="M750.54,-71.7C751.17,-64.41 751.91,-55.73 752.61,-47.54"/>
<polygon fill="black" stroke="black" points="756.1,-47.87 753.46,-37.61 749.12,-47.28 756.1,-47.87"/>
</g>
<!-- :core:notifications&#45;&gt;:core:model -->
<g id="edge19" class="edge">
<title>:core:notifications&#45;&gt;:core:model</title>
<path fill="none" stroke="black" d="M591.06,-71.7C591.06,-64.41 591.06,-55.73 591.06,-47.54"/>
<polygon fill="black" stroke="black" points="594.56,-47.62 591.06,-37.62 587.56,-47.62 594.56,-47.62"/>
</g>
<!-- :core:notifications&#45;&gt;:core:common -->
<g id="edge20" class="edge">
<title>:core:notifications&#45;&gt;:core:common</title>
<path fill="none" stroke="black" d="M627.05,-73.64C651.5,-63.2 684.01,-49.33 710.15,-38.17"/>
<polygon fill="black" stroke="black" points="711.34,-41.47 719.17,-34.32 708.59,-35.03 711.34,-41.47"/>
</g>
</g>
</svg>
