<svg xmlns="http://www.w3.org/2000/svg" width="829pt" height="260pt" viewBox="0 0 829.46 260">
    <g class="graph">
        <path fill="#fff" d="M0 260V0h829.46v260z"/>
        <g class="node" transform="translate(4 256)">
            <ellipse cx="623.69" cy="-234" fill="none" stroke="#000" rx="60.05" ry="18"/>
            <text x="623.69" y="-228.95" font-family="Times,serif" font-size="14" text-anchor="middle">:core:domain</text>
        </g>
        <g class="node" transform="translate(4 256)">
            <ellipse cx="418.69" cy="-162" fill="none" stroke="#000" rx="47.26" ry="18"/>
            <text x="418.69" y="-156.95" font-family="Times,serif" font-size="14" text-anchor="middle">:core:data</text>
        </g>
        <g stroke="red" stroke-width="2" class="edge">
            <path fill="none" d="M589.13 36.17c-34.48 11.77-85.02 29.03-121.36 41.44"/>
            <path fill="red" d="m470.45 80.39-10.6-.08 8.33-6.54z"/>
        </g>
        <g class="node" transform="translate(4 256)">
            <ellipse cx="576.69" cy="-18" fill="none" stroke="#000" rx="55.45" ry="18"/>
            <text x="576.69" y="-12.95" font-family="Times,serif" font-size="14" text-anchor="middle">:core:model</text>
        </g>
        <g stroke="#000" class="edge">
            <path fill="none" d="M666.34 36.14c68.3 25.25 198.5 83.77 147.35 147.86-20.77 26.02-107.09 40.25-168.6 47.24"/>
            <path d="m645.74 234.69-10.32-2.39 9.56-4.57z"/>
        </g>
        <g class="node" transform="translate(4 256)">
            <ellipse cx="338.69" cy="-18" fill="none" stroke="#000" rx="65.17" ry="18"/>
            <text x="338.69" y="-12.95" font-family="Times,serif" font-size="14" text-anchor="middle">:core:common</text>
        </g>
        <g stroke="#000" class="edge">
            <path fill="none" d="M377.15 99.48c-57.73 6.73-152.29 21.62-173.46 48.52-9.89 12.57-9.08 22.82 0 36 15.77 22.89 42.85 35.9 68.94 43.29"/>
            <path d="m273.43 223.89 8.82 5.87-10.56.91z"/>
        </g>
        <g class="node" transform="translate(4 256)">
            <ellipse cx="736.69" cy="-90" fill="none" stroke="#000" rx="63.63" ry="18"/>
            <text x="736.69" y="-84.95" font-family="Times,serif" font-size="14" text-anchor="middle">:core:database</text>
        </g>
        <g stroke="red" stroke-width="2" class="edge">
            <path fill="none" d="M463.48 103.62c48.66 10.33 132.45 28.26 204.21 44.38 4.57 1.03 9.3 2.1 14.05 3.19"/>
            <path fill="red" d="m680.9 147.4 8.96 5.66-10.53 1.16z"/>
        </g>
        <g class="node" transform="translate(4 256)">
            <ellipse cx="87.69" cy="-90" fill="none" stroke="#000" rx="65.17" ry="18"/>
            <text x="87.69" y="-84.95" font-family="Times,serif" font-size="14" text-anchor="middle">:core:datastore</text>
        </g>
        <g stroke="#000" class="edge">
            <path fill="none" d="M382.09 103.48c-49.82 10.41-136.84 28.66-211.4 44.52-5.83 1.24-11.9 2.54-17.98 3.84"/>
            <path d="m153.82 155.18-10.51-1.32 9.05-5.52z"/>
        </g>
        <g class="node" transform="translate(4 256)">
            <ellipse cx="418.69" cy="-90" fill="none" stroke="#000" rx="62.1" ry="18"/>
            <text x="418.69" y="-84.95" font-family="Times,serif" font-size="14" text-anchor="middle">:core:network</text>
        </g>
        <g stroke="#000" class="edge">
            <path fill="none" d="M422.69 112.3v24.16"/>
            <path d="m426.19 136.38-3.5 10-3.5-10z"/>
        </g>
        <g class="node" transform="translate(4 256)">
            <ellipse cx="273.69" cy="-90" fill="none" stroke="#000" rx="64.66" ry="18"/>
            <text x="273.69" y="-84.95" font-family="Times,serif" font-size="14" text-anchor="middle">:core:analytics</text>
        </g>
        <g stroke="#000" class="edge">
            <path fill="none" d="M394.39 108.66c-21.4 10.33-51.09 24.67-75.18 36.29"/>
            <path d="m320.83 148.06-10.53 1.2 7.48-7.5z"/>
        </g>
        <g class="node" transform="translate(4 256)">
            <ellipse cx="576.69" cy="-90" fill="none" stroke="#000" rx="77.97" ry="18"/>
            <text x="576.69" y="-84.95" font-family="Times,serif" font-size="14" text-anchor="middle">:core:notifications</text>
        </g>
        <g stroke="#000" class="edge">
            <path fill="none" d="M452.78 108.33c23.4 10.37 56.23 24.91 82.77 36.67"/>
            <path d="m536.64 141.66 7.73 7.25-10.56-.85z"/>
        </g>
        <g stroke="red" stroke-width="2" class="edge">
            <path fill="none" d="M707.15 181.67c-24.4 10.68-57.63 25.22-83.91 36.71"/>
            <path fill="red" d="m626.16 220.93-10.56.8 7.75-7.22z"/>
        </g>
        <g stroke="#000" class="edge">
            <path fill="none" d="M147.5 175.59c17.94 2.73 37.9 5.74 56.19 8.41 111.19 16.25 240.98 34.3 315.62 44.58"/>
            <path d="m519.43 225.06 9.43 4.84-10.39 2.1z"/>
        </g>
        <g stroke="#000" class="edge">
            <path fill="none" d="M136.27 179.43c42.17 11.76 105.58 29.45 150.99 42.11"/>
            <path d="m287.95 218.1 8.69 6.06-10.57.68z"/>
        </g>
        <g class="node" transform="translate(4 256)">
            <ellipse cx="87.69" cy="-18" fill="none" stroke="#000" rx="87.69" ry="18"/>
            <text x="87.69" y="-12.95" font-family="Times,serif" font-size="14" text-anchor="middle">:core:datastore-proto</text>
        </g>
        <g stroke="#000" class="edge">
            <path fill="none" d="M91.69 184.3v24.16"/>
            <path d="m95.19 208.38-3.5 10-3.5-10z"/>
        </g>
        <g stroke="#000" class="edge">
            <path fill="none" d="M455.81 181.67c24.1 10.68 56.91 25.22 82.86 36.71"/>
            <path d="m539.85 215.08 7.73 7.25-10.57-.85z"/>
        </g>
        <g stroke="#000" class="edge">
            <path fill="none" d="M403.73 183.59c-10.06 8.8-22.61 19.78-33.7 29.49"/>
            <path d="m372.48 215.58-9.83 3.95 5.22-9.22z"/>
        </g>
        <g stroke="#000" class="edge">
            <path fill="none" d="M580.69 184.3v24.16"/>
            <path d="m584.19 208.38-3.5 10-3.5-10z"/>
        </g>
        <g stroke="#000" class="edge">
            <path fill="none" d="M533.95 180.75c-39.31 11.56-95.55 28.1-136.87 40.25"/>
            <path d="m398.15 224.34-10.59-.54 8.61-6.18z"/>
        </g>
    </g>
</svg>
