<svg xmlns="http://www.w3.org/2000/svg" width="449pt" height="188pt" viewBox="0 0 448.51 188">
    <g class="graph">
        <path fill="#fff" d="M0 188V0h448.51v188z"/>
        <g class="node" transform="translate(4 184)">
            <ellipse cx="164.06" cy="-162" fill="none" stroke="#000" rx="70.8" ry="18"/>
            <text x="164.06" y="-156.95" font-family="Times,serif" font-size="14" text-anchor="middle">:app-nia-catalog</text>
        </g>
        <g class="node" transform="translate(4 184)">
            <ellipse cx="82.06" cy="-18" fill="none" stroke="#000" rx="82.06" ry="18"/>
            <text x="82.06" y="-12.95" font-family="Times,serif" font-size="14" text-anchor="middle">:core:designsystem</text>
        </g>
        <g stroke="#000" class="edge">
            <path fill="none" d="M158.17 40.13c-14.04 24.31-39.88 69.05-56.51 97.86"/>
            <path d="m104.77 139.59-8.03 6.91 1.97-10.41z"/>
        </g>
        <g class="node" transform="translate(4 184)">
            <ellipse cx="222.06" cy="-90" fill="none" stroke="#000" rx="39.07" ry="18"/>
            <text x="222.06" y="-84.95" font-family="Times,serif" font-size="14" text-anchor="middle">:core:ui</text>
        </g>
        <g stroke="red" stroke-width="2" class="edge">
            <path fill="none" d="M182.1 39.95c6.94 8.37 15.45 18.65 23.13 27.92"/>
            <path fill="red" d="m206.93 64.43 3.69 9.93-9.08-5.47z"/>
        </g>
        <g stroke="#000" class="edge">
            <path fill="none" d="M200.38 107.84c-20.21 10.11-48.81 24.4-72.34 36.17"/>
            <path d="m129.83 147.03-10.51 1.34 7.38-7.6z"/>
        </g>
        <g class="node" transform="translate(4 184)">
            <ellipse cx="247.06" cy="-18" fill="none" stroke="#000" rx="64.66" ry="18"/>
            <text x="247.06" y="-12.95" font-family="Times,serif" font-size="14" text-anchor="middle">:core:analytics</text>
        </g>
        <g stroke="red" stroke-width="2" class="edge">
            <path fill="none" d="M232.11 111.95c2.69 7.53 5.94 16.61 8.97 25.11"/>
            <path fill="red" d="m243.8 134.28.07 10.59-6.66-8.24z"/>
        </g>
        <g class="node" transform="translate(4 184)">
            <ellipse cx="385.06" cy="-18" fill="none" stroke="#000" rx="55.45" ry="18"/>
            <text x="385.06" y="-12.95" font-family="Times,serif" font-size="14" text-anchor="middle">:core:model</text>
        </g>
        <g stroke="#000" class="edge">
            <path fill="none" d="M254.08 107.03c25.37 10.9 63.13 27.11 92.27 39.63"/>
            <path d="m347.45 143.32 7.81 7.16-10.57-.73z"/>
        </g>
    </g>
</svg>
