<?xml version="1.0" encoding="UTF-8" standalone="no"?>
<!DOCTYPE svg PUBLIC "-//W3C//DTD SVG 1.1//EN"
 "http://www.w3.org/Graphics/SVG/1.1/DTD/svg11.dtd">
<!-- Generated by graphviz version 9.0.0 (20230911.1827)
 -->
<!-- Title: G Pages: 1 -->
<svg width="829pt" height="260pt"
 viewBox="0.00 0.00 829.46 260.00" xmlns="http://www.w3.org/2000/svg" xmlns:xlink="http://www.w3.org/1999/xlink">
<g id="graph0" class="graph" transform="scale(1 1) rotate(0) translate(4 256)">
<title>G</title>
<polygon fill="white" stroke="none" points="-4,4 -4,-256 825.46,-256 825.46,4 -4,4"/>
<!-- :core:domain -->
<g id="node1" class="node">
<title>:core:domain</title>
<ellipse fill="none" stroke="black" cx="623.69" cy="-234" rx="60.05" ry="18"/>
<text text-anchor="middle" x="623.69" y="-228.95" font-family="Times,serif" font-size="14.00">:core:domain</text>
</g>
<!-- :core:data -->
<g id="node2" class="node">
<title>:core:data</title>
<ellipse fill="none" stroke="black" cx="418.69" cy="-162" rx="47.26" ry="18"/>
<text text-anchor="middle" x="418.69" y="-156.95" font-family="Times,serif" font-size="14.00">:core:data</text>
</g>
<!-- :core:domain&#45;&gt;:core:data -->
<g id="edge1" class="edge">
<title>:core:domain&#45;&gt;:core:data</title>
<path fill="none" stroke="red" stroke-width="2" d="M585.13,-219.83C550.65,-208.06 500.11,-190.8 463.77,-178.39"/>
<polygon fill="red" stroke="red" stroke-width="2" points="466.45,-175.61 455.85,-175.69 464.18,-182.23 466.45,-175.61"/>
</g>
<!-- :core:model -->
<g id="node3" class="node">
<title>:core:model</title>
<ellipse fill="none" stroke="black" cx="576.69" cy="-18" rx="55.45" ry="18"/>
<text text-anchor="middle" x="576.69" y="-12.95" font-family="Times,serif" font-size="14.00">:core:model</text>
</g>
<!-- :core:domain&#45;&gt;:core:model -->
<g id="edge2" class="edge">
<title>:core:domain&#45;&gt;:core:model</title>
<path fill="none" stroke="black" d="M662.34,-219.86C730.64,-194.61 860.84,-136.09 809.69,-72 788.92,-45.98 702.6,-31.75 641.09,-24.76"/>
<polygon fill="black" stroke="black" points="641.74,-21.31 631.42,-23.7 640.98,-28.27 641.74,-21.31"/>
</g>
<!-- :core:common -->
<g id="node4" class="node">
<title>:core:common</title>
<ellipse fill="none" stroke="black" cx="338.69" cy="-18" rx="65.17" ry="18"/>
<text text-anchor="middle" x="338.69" y="-12.95" font-family="Times,serif" font-size="14.00">:core:common</text>
</g>
<!-- :core:data&#45;&gt;:core:common -->
<g id="edge3" class="edge">
<title>:core:data&#45;&gt;:core:common</title>
<path fill="none" stroke="black" d="M373.15,-156.52C315.42,-149.79 220.86,-134.9 199.69,-108 189.8,-95.43 190.61,-85.18 199.69,-72 215.46,-49.11 242.54,-36.1 268.63,-28.71"/>
<polygon fill="black" stroke="black" points="269.43,-32.11 278.25,-26.24 267.69,-25.33 269.43,-32.11"/>
</g>
<!-- :core:database -->
<g id="node5" class="node">
<title>:core:database</title>
<ellipse fill="none" stroke="black" cx="736.69" cy="-90" rx="63.63" ry="18"/>
<text text-anchor="middle" x="736.69" y="-84.95" font-family="Times,serif" font-size="14.00">:core:database</text>
</g>
<!-- :core:data&#45;&gt;:core:database -->
<g id="edge4" class="edge">
<title>:core:data&#45;&gt;:core:database</title>
<path fill="none" stroke="red" stroke-width="2" d="M459.48,-152.38C508.14,-142.05 591.93,-124.12 663.69,-108 668.26,-106.97 672.99,-105.9 677.74,-104.81"/>
<polygon fill="red" stroke="red" stroke-width="2" points="676.9,-108.6 685.86,-102.94 675.33,-101.78 676.9,-108.6"/>
</g>
<!-- :core:datastore -->
<g id="node6" class="node">
<title>:core:datastore</title>
<ellipse fill="none" stroke="black" cx="87.69" cy="-90" rx="65.17" ry="18"/>
<text text-anchor="middle" x="87.69" y="-84.95" font-family="Times,serif" font-size="14.00">:core:datastore</text>
</g>
<!-- :core:data&#45;&gt;:core:datastore -->
<g id="edge5" class="edge">
<title>:core:data&#45;&gt;:core:datastore</title>
<path fill="none" stroke="black" d="M378.09,-152.52C328.27,-142.11 241.25,-123.86 166.69,-108 160.86,-106.76 154.79,-105.46 148.71,-104.16"/>
<polygon fill="black" stroke="black" points="149.82,-100.82 139.31,-102.14 148.36,-107.66 149.82,-100.82"/>
</g>
<!-- :core:network -->
<g id="node7" class="node">
<title>:core:network</title>
<ellipse fill="none" stroke="black" cx="418.69" cy="-90" rx="62.1" ry="18"/>
<text text-anchor="middle" x="418.69" y="-84.95" font-family="Times,serif" font-size="14.00">:core:network</text>
</g>
<!-- :core:data&#45;&gt;:core:network -->
<g id="edge6" class="edge">
<title>:core:data&#45;&gt;:core:network</title>
<path fill="none" stroke="black" d="M418.69,-143.7C418.69,-136.41 418.69,-127.73 418.69,-119.54"/>
<polygon fill="black" stroke="black" points="422.19,-119.62 418.69,-109.62 415.19,-119.62 422.19,-119.62"/>
</g>
<!-- :core:analytics -->
<g id="node8" class="node">
<title>:core:analytics</title>
<ellipse fill="none" stroke="black" cx="273.69" cy="-90" rx="64.66" ry="18"/>
<text text-anchor="middle" x="273.69" y="-84.95" font-family="Times,serif" font-size="14.00">:core:analytics</text>
</g>
<!-- :core:data&#45;&gt;:core:analytics -->
<g id="edge7" class="edge">
<title>:core:data&#45;&gt;:core:analytics</title>
<path fill="none" stroke="black" d="M390.39,-147.34C368.99,-137.01 339.3,-122.67 315.21,-111.05"/>
<polygon fill="black" stroke="black" points="316.83,-107.94 306.3,-106.74 313.78,-114.24 316.83,-107.94"/>
</g>
<!-- :core:notifications -->
<g id="node9" class="node">
<title>:core:notifications</title>
<ellipse fill="none" stroke="black" cx="576.69" cy="-90" rx="77.97" ry="18"/>
<text text-anchor="middle" x="576.69" y="-84.95" font-family="Times,serif" font-size="14.00">:core:notifications</text>
</g>
<!-- :core:data&#45;&gt;:core:notifications -->
<g id="edge8" class="edge">
<title>:core:data&#45;&gt;:core:notifications</title>
<path fill="none" stroke="black" d="M448.78,-147.67C472.18,-137.3 505.01,-122.76 531.55,-111"/>
<polygon fill="black" stroke="black" points="532.64,-114.34 540.37,-107.09 529.81,-107.94 532.64,-114.34"/>
</g>
<!-- :core:database&#45;&gt;:core:model -->
<g id="edge9" class="edge">
<title>:core:database&#45;&gt;:core:model</title>
<path fill="none" stroke="red" stroke-width="2" d="M703.15,-74.33C678.75,-63.65 645.52,-49.11 619.24,-37.62"/>
<polygon fill="red" stroke="red" stroke-width="2" points="622.16,-35.07 611.6,-34.27 619.35,-41.49 622.16,-35.07"/>
</g>
<!-- :core:datastore&#45;&gt;:core:model -->
<g id="edge11" class="edge">
<title>:core:datastore&#45;&gt;:core:model</title>
<path fill="none" stroke="black" d="M143.5,-80.41C161.44,-77.68 181.4,-74.67 199.69,-72 310.88,-55.75 440.67,-37.7 515.31,-27.42"/>
<polygon fill="black" stroke="black" points="515.43,-30.94 524.86,-26.1 514.47,-24 515.43,-30.94"/>
</g>
<!-- :core:datastore&#45;&gt;:core:common -->
<g id="edge12" class="edge">
<title>:core:datastore&#45;&gt;:core:common</title>
<path fill="none" stroke="black" d="M132.27,-76.57C174.44,-64.81 237.85,-47.12 283.26,-34.46"/>
<polygon fill="black" stroke="black" points="283.95,-37.9 292.64,-31.84 282.07,-31.16 283.95,-37.9"/>
</g>
<!-- :core:datastore&#45;proto -->
<g id="node10" class="node">
<title>:core:datastore&#45;proto</title>
<ellipse fill="none" stroke="black" cx="87.69" cy="-18" rx="87.69" ry="18"/>
<text text-anchor="middle" x="87.69" y="-12.95" font-family="Times,serif" font-size="14.00">:core:datastore&#45;proto</text>
</g>
<!-- :core:datastore&#45;&gt;:core:datastore&#45;proto -->
<g id="edge10" class="edge">
<title>:core:datastore&#45;&gt;:core:datastore&#45;proto</title>
<path fill="none" stroke="black" d="M87.69,-71.7C87.69,-64.41 87.69,-55.73 87.69,-47.54"/>
<polygon fill="black" stroke="black" points="91.19,-47.62 87.69,-37.62 84.19,-47.62 91.19,-47.62"/>
</g>
<!-- :core:network&#45;&gt;:core:model -->
<g id="edge14" class="edge">
<title>:core:network&#45;&gt;:core:model</title>
<path fill="none" stroke="black" d="M451.81,-74.33C475.91,-63.65 508.72,-49.11 534.67,-37.62"/>
<polygon fill="black" stroke="black" points="535.85,-40.92 543.58,-33.67 533.01,-34.52 535.85,-40.92"/>
</g>
<!-- :core:network&#45;&gt;:core:common -->
<g id="edge13" class="edge">
<title>:core:network&#45;&gt;:core:common</title>
<path fill="none" stroke="black" d="M399.73,-72.41C389.67,-63.61 377.12,-52.63 366.03,-42.92"/>
<polygon fill="black" stroke="black" points="368.48,-40.42 358.65,-36.47 363.87,-45.69 368.48,-40.42"/>
</g>
<!-- :core:notifications&#45;&gt;:core:model -->
<g id="edge15" class="edge">
<title>:core:notifications&#45;&gt;:core:model</title>
<path fill="none" stroke="black" d="M576.69,-71.7C576.69,-64.41 576.69,-55.73 576.69,-47.54"/>
<polygon fill="black" stroke="black" points="580.19,-47.62 576.69,-37.62 573.19,-47.62 580.19,-47.62"/>
</g>
<!-- :core:notifications&#45;&gt;:core:common -->
<g id="edge16" class="edge">
<title>:core:notifications&#45;&gt;:core:common</title>
<path fill="none" stroke="black" d="M529.95,-75.25C490.64,-63.69 434.4,-47.15 393.08,-35"/>
<polygon fill="black" stroke="black" points="394.15,-31.66 383.56,-32.2 392.17,-38.38 394.15,-31.66"/>
</g>
</g>
</svg>
