<svg xmlns="http://www.w3.org/2000/svg" width="785pt" height="260pt" viewBox="0 0 784.62 260">
    <g class="graph">
        <path fill="#fff" d="M0 260V0h784.62v260z"/>
        <g class="node" transform="translate(4 256)">
            <ellipse cx="423.66" cy="-234" fill="none" stroke="#000" rx="51.86" ry="18"/>
            <text x="423.66" y="-228.95" font-family="Times,serif" font-size="14" text-anchor="middle">:sync:work</text>
        </g>
        <g class="node" transform="translate(4 256)">
            <ellipse cx="64.66" cy="-90" fill="none" stroke="#000" rx="64.66" ry="18"/>
            <text x="64.66" y="-84.95" font-family="Times,serif" font-size="14" text-anchor="middle">:core:analytics</text>
        </g>
        <g stroke="#000" class="edge">
            <path fill="none" d="M394.21 36.23 115.14 146.61"/>
            <path d="m116.8 149.72-10.58.42 8.01-6.93z"/>
        </g>
        <g class="node" transform="translate(4 256)">
            <ellipse cx="423.66" cy="-162" fill="none" stroke="#000" rx="47.26" ry="18"/>
            <text x="423.66" y="-156.95" font-family="Times,serif" font-size="14" text-anchor="middle">:core:data</text>
        </g>
        <g stroke="red" stroke-width="2" class="edge">
            <path fill="none" d="M427.66 40.3v24.16"/>
            <path fill="red" d="m431.16 62.87-3.5 10-3.5-10z"/>
        </g>
        <g class="node" transform="translate(4 256)">
            <ellipse cx="698.66" cy="-90" fill="none" stroke="#000" rx="77.97" ry="18"/>
            <text x="698.66" y="-84.95" font-family="Times,serif" font-size="14" text-anchor="middle">:core:notifications</text>
        </g>
        <g stroke="#000" class="edge">
            <path fill="none" d="m455.8 37.53 206.02 106.38"/>
            <path d="m663.22 140.7 7.28 7.69-10.49-1.48z"/>
        </g>
        <g stroke="#000" class="edge">
            <path fill="none" d="M385.38 102.21c-55.92 9.69-157.47 27.76-243.72 45.79-4.59.96-9.33 1.98-14.09 3.04"/>
            <path d="m128.5 154.42-10.53-1.22 8.99-5.61z"/>
        </g>
        <g stroke="#000" class="edge">
            <path fill="none" d="M466.19 104.81c45.26 11.52 120.97 30.79 174.51 44.42"/>
            <path d="m641.48 145.82 8.83 5.85-10.56.93z"/>
        </g>
        <g class="node" transform="translate(4 256)">
            <ellipse cx="592.66" cy="-18" fill="none" stroke="#000" rx="65.17" ry="18"/>
            <text x="592.66" y="-12.95" font-family="Times,serif" font-size="14" text-anchor="middle">:core:common</text>
        </g>
        <g stroke="#000" class="edge">
            <path fill="none" d="M473.25 99.34c33.67 5.65 78.07 18.67 104.41 48.66 14.44 16.44 18.81 41.13 19.79 60.34"/>
            <path d="m600.95 208.17-3.3 10.07-3.7-9.93z"/>
        </g>
        <g class="node" transform="translate(4 256)">
            <ellipse cx="210.66" cy="-90" fill="none" stroke="#000" rx="63.63" ry="18"/>
            <text x="210.66" y="-84.95" font-family="Times,serif" font-size="14" text-anchor="middle">:core:database</text>
        </g>
        <g stroke="red" stroke-width="2" class="edge">
            <path fill="none" d="M392.96 106.4c-34.48 11.33-87.76 28.84-127.1 41.77"/>
            <path fill="red" d="m268.63 150.95-10.59-.21 8.4-6.44z"/>
        </g>
        <g class="node" transform="translate(4 256)">
            <ellipse cx="357.66" cy="-90" fill="none" stroke="#000" rx="65.17" ry="18"/>
            <text x="357.66" y="-84.95" font-family="Times,serif" font-size="14" text-anchor="middle">:core:datastore</text>
        </g>
        <g stroke="#000" class="edge">
            <path fill="none" d="M412.35 111.24c-8.13 8.62-18.29 19.4-27.38 29.03"/>
            <path d="m387.79 142.39-9.41 4.88 4.31-9.68z"/>
        </g>
        <g class="node" transform="translate(4 256)">
            <ellipse cx="502.66" cy="-90" fill="none" stroke="#000" rx="62.1" ry="18"/>
            <text x="502.66" y="-84.95" font-family="Times,serif" font-size="14" text-anchor="middle">:core:network</text>
        </g>
        <g stroke="#000" class="edge">
            <path fill="none" d="M445.58 110.88c9.99 8.85 22.63 20.05 33.82 29.96"/>
            <path d="m481.68 138.19 5.17 9.25-9.81-4.01z"/>
        </g>
        <g stroke="#000" class="edge">
            <path fill="none" d="M677.81 183.41c-14.19 9.37-32.17 21.25-47.6 31.43"/>
            <path d="m632.53 217.51-10.28 2.59 6.42-8.43z"/>
        </g>
        <g class="node" transform="translate(4 256)">
            <ellipse cx="453.66" cy="-18" fill="none" stroke="#000" rx="55.45" ry="18"/>
            <text x="453.66" y="-12.95" font-family="Times,serif" font-size="14" text-anchor="middle">:core:model</text>
        </g>
        <g stroke="#000" class="edge">
            <path fill="none" d="M654.84 180.66c-41.8 11.95-102.37 29.25-145.32 41.52"/>
            <path d="m510.48 225.55-10.58-.62 8.66-6.11z"/>
        </g>
        <g stroke="red" stroke-width="2" class="edge">
            <path fill="none" d="M258.1 179.51c41.44 11.94 103.9 29.93 147.88 42.6"/>
            <path fill="red" d="m405.47 218.32 8.64 6.13-10.58.6z"/>
        </g>
        <g stroke="#000" class="edge">
            <path fill="none" d="M404.76 179.84c38.8 11.56 95.99 28.59 137.84 41.06"/>
            <path d="m543.4 217.48 8.58 6.21-10.58.5z"/>
        </g>
        <g stroke="#000" class="edge">
            <path fill="none" d="M383.92 183.24c12.7 9.25 28.79 20.99 42.71 31.13"/>
            <path d="m428.6 211.48 6.02 8.72-10.14-3.06z"/>
        </g>
        <g class="node" transform="translate(4 256)">
            <ellipse cx="292.66" cy="-18" fill="none" stroke="#000" rx="87.69" ry="18"/>
            <text x="292.66" y="-12.95" font-family="Times,serif" font-size="14" text-anchor="middle">:core:datastore-proto</text>
        </g>
        <g stroke="#000" class="edge">
            <path fill="none" d="M345.92 183.95c-7.82 8.42-17.43 18.77-26.08 28.08"/>
            <path d="m322.65 214.16-9.37 4.94 4.24-9.71z"/>
        </g>
        <g stroke="#000" class="edge">
            <path fill="none" d="M527.53 183.24c11.62 9.03 26.28 20.43 39.11 30.41"/>
            <path d="m568.65 210.78 5.74 8.9-10.04-3.38z"/>
        </g>
        <g stroke="#000" class="edge">
            <path fill="none" d="M494.8 183.95c-5.66 8.08-12.56 17.93-18.86 26.94"/>
            <path d="m478.88 212.79-8.6 6.18 2.87-10.2z"/>
        </g>
    </g>
</svg>
