<?xml version="1.0" encoding="UTF-8" standalone="no"?>
<!DOCTYPE svg PUBLIC "-//W3C//DTD SVG 1.1//EN"
 "http://www.w3.org/Graphics/SVG/1.1/DTD/svg11.dtd">
<!-- Generated by graphviz version 9.0.0 (20230911.1827)
 -->
<!-- Title: G Pages: 1 -->
<svg width="785pt" height="260pt"
 viewBox="0.00 0.00 785.29 260.00" xmlns="http://www.w3.org/2000/svg" xmlns:xlink="http://www.w3.org/1999/xlink">
<g id="graph0" class="graph" transform="scale(1 1) rotate(0) translate(4 256)">
<title>G</title>
<polygon fill="white" stroke="none" points="-4,4 -4,-256 781.29,-256 781.29,4 -4,4"/>
<!-- :sync:work -->
<g id="node1" class="node">
<title>:sync:work</title>
<ellipse fill="none" stroke="black" cx="155.66" cy="-234" rx="51.86" ry="18"/>
<text text-anchor="middle" x="155.66" y="-228.95" font-family="Times,serif" font-size="14.00">:sync:work</text>
</g>
<!-- :core:analytics -->
<g id="node2" class="node">
<title>:core:analytics</title>
<ellipse fill="none" stroke="black" cx="64.66" cy="-90" rx="64.66" ry="18"/>
<text text-anchor="middle" x="64.66" y="-84.95" font-family="Times,serif" font-size="14.00">:core:analytics</text>
</g>
<!-- :sync:work&#45;&gt;:core:analytics -->
<g id="edge1" class="edge">
<title>:sync:work&#45;&gt;:core:analytics</title>
<path fill="none" stroke="black" d="M144.86,-216.15C129.2,-191.71 100.01,-146.17 81.5,-117.29"/>
<polygon fill="black" stroke="black" points="84.6,-115.63 76.26,-109.1 78.71,-119.41 84.6,-115.63"/>
</g>
<!-- :core:data -->
<g id="node3" class="node">
<title>:core:data</title>
<ellipse fill="none" stroke="black" cx="247.66" cy="-162" rx="47.26" ry="18"/>
<text text-anchor="middle" x="247.66" y="-156.95" font-family="Times,serif" font-size="14.00">:core:data</text>
</g>
<!-- :sync:work&#45;&gt;:core:data -->
<g id="edge2" class="edge">
<title>:sync:work&#45;&gt;:core:data</title>
<path fill="none" stroke="red" stroke-width="2" d="M176.53,-217.12C188.85,-207.74 204.64,-195.73 218.21,-185.41"/>
<polygon fill="red" stroke="red" stroke-width="2" points="218.93,-189.25 224.77,-180.41 214.7,-183.68 218.93,-189.25"/>
</g>
<!-- :core:data&#45;&gt;:core:analytics -->
<g id="edge7" class="edge">
<title>:core:data&#45;&gt;:core:analytics</title>
<path fill="none" stroke="black" d="M215.36,-148.65C186.78,-137.72 144.7,-121.62 112.27,-109.21"/>
<polygon fill="black" stroke="black" points="113.67,-106 103.08,-105.7 111.17,-112.54 113.67,-106"/>
</g>
<!-- :core:common -->
<g id="node4" class="node">
<title>:core:common</title>
<ellipse fill="none" stroke="black" cx="257.66" cy="-18" rx="65.17" ry="18"/>
<text text-anchor="middle" x="257.66" y="-12.95" font-family="Times,serif" font-size="14.00">:core:common</text>
</g>
<!-- :core:data&#45;&gt;:core:common -->
<g id="edge3" class="edge">
<title>:core:data&#45;&gt;:core:common</title>
<path fill="none" stroke="black" d="M218.41,-147.49C202.96,-138.64 185.41,-125.46 176.66,-108 169.49,-93.7 169.05,-86.07 176.66,-72 184.31,-57.84 197.57,-46.86 211.18,-38.66"/>
<polygon fill="black" stroke="black" points="212.7,-41.82 219.74,-33.91 209.3,-35.7 212.7,-41.82"/>
</g>
<!-- :core:database -->
<g id="node5" class="node">
<title>:core:database</title>
<ellipse fill="none" stroke="black" cx="713.66" cy="-90" rx="63.63" ry="18"/>
<text text-anchor="middle" x="713.66" y="-84.95" font-family="Times,serif" font-size="14.00">:core:database</text>
</g>
<!-- :core:data&#45;&gt;:core:database -->
<g id="edge4" class="edge">
<title>:core:data&#45;&gt;:core:database</title>
<path fill="none" stroke="red" stroke-width="2" d="M292.97,-156.3C366.34,-148.38 515.55,-130.95 640.66,-108 645.62,-107.09 650.74,-106.07 655.88,-104.99"/>
<polygon fill="red" stroke="red" stroke-width="2" points="655.08,-108.74 664.11,-103.19 653.59,-101.9 655.08,-108.74"/>
</g>
<!-- :core:datastore -->
<g id="node6" class="node">
<title>:core:datastore</title>
<ellipse fill="none" stroke="black" cx="566.66" cy="-90" rx="65.17" ry="18"/>
<text text-anchor="middle" x="566.66" y="-84.95" font-family="Times,serif" font-size="14.00">:core:datastore</text>
</g>
<!-- :core:data&#45;&gt;:core:datastore -->
<g id="edge5" class="edge">
<title>:core:data&#45;&gt;:core:datastore</title>
<path fill="none" stroke="black" d="M288.01,-152.44C336.6,-142.09 420.66,-124.06 492.66,-108 497.29,-106.97 502.08,-105.89 506.9,-104.8"/>
<polygon fill="black" stroke="black" points="507.67,-108.21 516.64,-102.58 506.11,-101.39 507.67,-108.21"/>
</g>
<!-- :core:network -->
<g id="node7" class="node">
<title>:core:network</title>
<ellipse fill="none" stroke="black" cx="247.66" cy="-90" rx="62.1" ry="18"/>
<text text-anchor="middle" x="247.66" y="-84.95" font-family="Times,serif" font-size="14.00">:core:network</text>
</g>
<!-- :core:data&#45;&gt;:core:network -->
<g id="edge6" class="edge">
<title>:core:data&#45;&gt;:core:network</title>
<path fill="none" stroke="black" d="M247.66,-143.7C247.66,-136.41 247.66,-127.73 247.66,-119.54"/>
<polygon fill="black" stroke="black" points="251.16,-119.62 247.66,-109.62 244.16,-119.62 251.16,-119.62"/>
</g>
<!-- :core:notifications -->
<g id="node8" class="node">
<title>:core:notifications</title>
<ellipse fill="none" stroke="black" cx="405.66" cy="-90" rx="77.97" ry="18"/>
<text text-anchor="middle" x="405.66" y="-84.95" font-family="Times,serif" font-size="14.00">:core:notifications</text>
</g>
<!-- :core:data&#45;&gt;:core:notifications -->
<g id="edge8" class="edge">
<title>:core:data&#45;&gt;:core:notifications</title>
<path fill="none" stroke="black" d="M277.75,-147.67C301.15,-137.3 333.98,-122.76 360.52,-111"/>
<polygon fill="black" stroke="black" points="361.61,-114.34 369.34,-107.09 358.78,-107.94 361.61,-114.34"/>
</g>
<!-- :core:model -->
<g id="node9" class="node">
<title>:core:model</title>
<ellipse fill="none" stroke="black" cx="405.66" cy="-18" rx="55.45" ry="18"/>
<text text-anchor="middle" x="405.66" y="-12.95" font-family="Times,serif" font-size="14.00">:core:model</text>
</g>
<!-- :core:database&#45;&gt;:core:model -->
<g id="edge9" class="edge">
<title>:core:database&#45;&gt;:core:model</title>
<path fill="none" stroke="red" stroke-width="2" d="M665.79,-77.7C657.42,-75.77 648.79,-73.8 640.66,-72 564.83,-55.19 545.22,-53.98 469.66,-36 465.85,-35.09 461.93,-34.13 457.98,-33.14"/>
<polygon fill="red" stroke="red" stroke-width="2" points="460.38,-30.14 449.82,-31.04 458.64,-36.92 460.38,-30.14"/>
</g>
<!-- :core:datastore&#45;&gt;:core:common -->
<g id="edge12" class="edge">
<title>:core:datastore&#45;&gt;:core:common</title>
<path fill="none" stroke="black" d="M517.7,-77.72C509.35,-75.81 500.76,-73.84 492.66,-72 433.39,-58.51 365.66,-43.25 318.2,-32.58"/>
<polygon fill="black" stroke="black" points="319.19,-29.22 308.66,-30.44 317.65,-36.05 319.19,-29.22"/>
</g>
<!-- :core:datastore&#45;&gt;:core:model -->
<g id="edge11" class="edge">
<title>:core:datastore&#45;&gt;:core:model</title>
<path fill="none" stroke="black" d="M532.91,-74.33C508.35,-63.65 474.91,-49.11 448.48,-37.62"/>
<polygon fill="black" stroke="black" points="449.95,-34.44 439.38,-33.66 447.16,-40.86 449.95,-34.44"/>
</g>
<!-- :core:datastore&#45;proto -->
<g id="node10" class="node">
<title>:core:datastore&#45;proto</title>
<ellipse fill="none" stroke="black" cx="566.66" cy="-18" rx="87.69" ry="18"/>
<text text-anchor="middle" x="566.66" y="-12.95" font-family="Times,serif" font-size="14.00">:core:datastore&#45;proto</text>
</g>
<!-- :core:datastore&#45;&gt;:core:datastore&#45;proto -->
<g id="edge10" class="edge">
<title>:core:datastore&#45;&gt;:core:datastore&#45;proto</title>
<path fill="none" stroke="black" d="M566.66,-71.7C566.66,-64.41 566.66,-55.73 566.66,-47.54"/>
<polygon fill="black" stroke="black" points="570.16,-47.62 566.66,-37.62 563.16,-47.62 570.16,-47.62"/>
</g>
<!-- :core:network&#45;&gt;:core:common -->
<g id="edge13" class="edge">
<title>:core:network&#45;&gt;:core:common</title>
<path fill="none" stroke="black" d="M250.13,-71.7C251.18,-64.32 252.44,-55.52 253.62,-47.25"/>
<polygon fill="black" stroke="black" points="257.05,-48 255,-37.6 250.12,-47.01 257.05,-48"/>
</g>
<!-- :core:network&#45;&gt;:core:model -->
<g id="edge14" class="edge">
<title>:core:network&#45;&gt;:core:model</title>
<path fill="none" stroke="black" d="M280.78,-74.33C304.88,-63.65 337.69,-49.11 363.64,-37.62"/>
<polygon fill="black" stroke="black" points="364.82,-40.92 372.54,-33.67 361.98,-34.52 364.82,-40.92"/>
</g>
<!-- :core:notifications&#45;&gt;:core:common -->
<g id="edge16" class="edge">
<title>:core:notifications&#45;&gt;:core:common</title>
<path fill="none" stroke="black" d="M372.44,-73.29C350.94,-63.12 322.75,-49.79 299.69,-38.88"/>
<polygon fill="black" stroke="black" points="301.4,-35.82 290.86,-34.7 298.4,-42.14 301.4,-35.82"/>
</g>
<!-- :core:notifications&#45;&gt;:core:model -->
<g id="edge15" class="edge">
<title>:core:notifications&#45;&gt;:core:model</title>
<path fill="none" stroke="black" d="M405.66,-71.7C405.66,-64.41 405.66,-55.73 405.66,-47.54"/>
<polygon fill="black" stroke="black" points="409.16,-47.62 405.66,-37.62 402.16,-47.62 409.16,-47.62"/>
</g>
</g>
</svg>
