<?xml version="1.0" encoding="UTF-8" standalone="no"?>
<!DOCTYPE svg PUBLIC "-//W3C//DTD SVG 1.1//EN"
 "http://www.w3.org/Graphics/SVG/1.1/DTD/svg11.dtd">
<!-- Generated by graphviz version 9.0.0 (20230911.1827)
 -->
<!-- Title: G Pages: 1 -->
<svg width="1073pt" height="332pt"
 viewBox="0.00 0.00 1072.75 332.00" xmlns="http://www.w3.org/2000/svg" xmlns:xlink="http://www.w3.org/1999/xlink">
<g id="graph0" class="graph" transform="scale(1 1) rotate(0) translate(4 328)">
<title>G</title>
<polygon fill="white" stroke="none" points="-4,4 -4,-328 1068.75,-328 1068.75,4 -4,4"/>
<!-- :feature:foryou -->
<g id="node1" class="node">
<title>:feature:foryou</title>
<ellipse fill="none" stroke="black" cx="250.06" cy="-306" rx="66.19" ry="18"/>
<text text-anchor="middle" x="250.06" y="-300.95" font-family="Times,serif" font-size="14.00">:feature:foryou</text>
</g>
<!-- :core:ui -->
<g id="node2" class="node">
<title>:core:ui</title>
<ellipse fill="none" stroke="black" cx="192.06" cy="-234" rx="39.07" ry="18"/>
<text text-anchor="middle" x="192.06" y="-228.95" font-family="Times,serif" font-size="14.00">:core:ui</text>
</g>
<!-- :feature:foryou&#45;&gt;:core:ui -->
<g id="edge1" class="edge">
<title>:feature:foryou&#45;&gt;:core:ui</title>
<path fill="none" stroke="black" d="M236.02,-288.05C229.08,-279.68 220.57,-269.4 212.89,-260.13"/>
<polygon fill="black" stroke="black" points="215.61,-257.94 206.54,-252.47 210.22,-262.41 215.61,-257.94"/>
</g>
<!-- :core:designsystem -->
<g id="node3" class="node">
<title>:core:designsystem</title>
<ellipse fill="none" stroke="black" cx="82.06" cy="-162" rx="82.06" ry="18"/>
<text text-anchor="middle" x="82.06" y="-156.95" font-family="Times,serif" font-size="14.00">:core:designsystem</text>
</g>
<!-- :feature:foryou&#45;&gt;:core:designsystem -->
<g id="edge2" class="edge">
<title>:feature:foryou&#45;&gt;:core:designsystem</title>
<path fill="none" stroke="black" d="M211.24,-291.1C189.86,-282.17 163.75,-269.02 144.06,-252 123.99,-234.64 107.23,-209.43 96.22,-190.27"/>
<polygon fill="black" stroke="black" points="99.35,-188.7 91.44,-181.66 93.23,-192.1 99.35,-188.7"/>
</g>
<!-- :core:data -->
<g id="node4" class="node">
<title>:core:data</title>
<ellipse fill="none" stroke="black" cx="568.06" cy="-162" rx="47.26" ry="18"/>
<text text-anchor="middle" x="568.06" y="-156.95" font-family="Times,serif" font-size="14.00">:core:data</text>
</g>
<!-- :feature:foryou&#45;&gt;:core:data -->
<g id="edge3" class="edge">
<title>:feature:foryou&#45;&gt;:core:data</title>
<path fill="none" stroke="black" d="M286.11,-290.58C311.86,-280.16 347.25,-265.59 378.06,-252 430.92,-228.69 491.2,-200.11 529.43,-181.73"/>
<polygon fill="black" stroke="black" points="530.74,-184.98 538.23,-177.48 527.71,-178.67 530.74,-184.98"/>
</g>
<!-- :core:domain -->
<g id="node5" class="node">
<title>:core:domain</title>
<ellipse fill="none" stroke="black" cx="309.06" cy="-234" rx="60.05" ry="18"/>
<text text-anchor="middle" x="309.06" y="-228.95" font-family="Times,serif" font-size="14.00">:core:domain</text>
</g>
<!-- :feature:foryou&#45;&gt;:core:domain -->
<g id="edge4" class="edge">
<title>:feature:foryou&#45;&gt;:core:domain</title>
<path fill="none" stroke="red" stroke-width="2" d="M264.34,-288.05C271.3,-279.8 279.81,-269.7 287.54,-260.54"/>
<polygon fill="red" stroke="red" stroke-width="2" points="289.19,-264.01 292.96,-254.1 283.84,-259.49 289.19,-264.01"/>
</g>
<!-- :core:ui&#45;&gt;:core:designsystem -->
<g id="edge6" class="edge">
<title>:core:ui&#45;&gt;:core:designsystem</title>
<path fill="none" stroke="black" d="M169.8,-218.83C154.65,-209.19 134.29,-196.24 117,-185.23"/>
<polygon fill="black" stroke="black" points="119.35,-182.58 109.04,-180.17 115.59,-188.49 119.35,-182.58"/>
</g>
<!-- :core:analytics -->
<g id="node6" class="node">
<title>:core:analytics</title>
<ellipse fill="none" stroke="black" cx="342.06" cy="-90" rx="64.66" ry="18"/>
<text text-anchor="middle" x="342.06" y="-84.95" font-family="Times,serif" font-size="14.00">:core:analytics</text>
</g>
<!-- :core:ui&#45;&gt;:core:analytics -->
<g id="edge5" class="edge">
<title>:core:ui&#45;&gt;:core:analytics</title>
<path fill="none" stroke="black" d="M208.69,-217.26C234.76,-192.58 285.48,-144.57 316.3,-115.38"/>
<polygon fill="black" stroke="black" points="318.48,-118.14 323.33,-108.73 313.67,-113.06 318.48,-118.14"/>
</g>
<!-- :core:model -->
<g id="node7" class="node">
<title>:core:model</title>
<ellipse fill="none" stroke="black" cx="568.06" cy="-18" rx="55.45" ry="18"/>
<text text-anchor="middle" x="568.06" y="-12.95" font-family="Times,serif" font-size="14.00">:core:model</text>
</g>
<!-- :core:ui&#45;&gt;:core:model -->
<g id="edge7" class="edge">
<title>:core:ui&#45;&gt;:core:model</title>
<path fill="none" stroke="black" d="M192.94,-215.73C195.65,-182.32 206.61,-108.88 251.06,-72 288.33,-41.08 420.81,-27.72 502.24,-22.33"/>
<polygon fill="black" stroke="black" points="502.11,-25.84 511.87,-21.71 501.66,-18.86 502.11,-25.84"/>
</g>
<!-- :core:data&#45;&gt;:core:analytics -->
<g id="edge12" class="edge">
<title>:core:data&#45;&gt;:core:analytics</title>
<path fill="none" stroke="black" d="M532.25,-149.91C495.35,-138.48 437.4,-120.53 395.16,-107.45"/>
<polygon fill="black" stroke="black" points="396.27,-104.13 385.69,-104.51 394.2,-110.81 396.27,-104.13"/>
</g>
<!-- :core:common -->
<g id="node8" class="node">
<title>:core:common</title>
<ellipse fill="none" stroke="black" cx="806.06" cy="-18" rx="65.17" ry="18"/>
<text text-anchor="middle" x="806.06" y="-12.95" font-family="Times,serif" font-size="14.00">:core:common</text>
</g>
<!-- :core:data&#45;&gt;:core:common -->
<g id="edge8" class="edge">
<title>:core:data&#45;&gt;:core:common</title>
<path fill="none" stroke="black" d="M614.84,-159.04C725.87,-153.9 998.07,-138.31 1025.06,-108 1035.7,-96.05 1034.95,-84.57 1025.06,-72 1023.79,-70.39 929.84,-48.06 865.42,-32.9"/>
<polygon fill="black" stroke="black" points="866.57,-29.58 856.03,-30.7 864.97,-36.39 866.57,-29.58"/>
</g>
<!-- :core:database -->
<g id="node9" class="node">
<title>:core:database</title>
<ellipse fill="none" stroke="black" cx="488.06" cy="-90" rx="63.63" ry="18"/>
<text text-anchor="middle" x="488.06" y="-84.95" font-family="Times,serif" font-size="14.00">:core:database</text>
</g>
<!-- :core:data&#45;&gt;:core:database -->
<g id="edge9" class="edge">
<title>:core:data&#45;&gt;:core:database</title>
<path fill="none" stroke="red" stroke-width="2" d="M549.91,-145.12C539.69,-136.18 526.74,-124.85 515.33,-114.86"/>
<polygon fill="red" stroke="red" stroke-width="2" points="519.08,-113.5 509.25,-109.54 514.48,-118.76 519.08,-113.5"/>
</g>
<!-- :core:datastore -->
<g id="node10" class="node">
<title>:core:datastore</title>
<ellipse fill="none" stroke="black" cx="951.06" cy="-90" rx="65.17" ry="18"/>
<text text-anchor="middle" x="951.06" y="-84.95" font-family="Times,serif" font-size="14.00">:core:datastore</text>
</g>
<!-- :core:data&#45;&gt;:core:datastore -->
<g id="edge10" class="edge">
<title>:core:data&#45;&gt;:core:datastore</title>
<path fill="none" stroke="black" d="M611.44,-154.34C671.36,-144.97 782.73,-126.91 877.06,-108 881.92,-107.03 886.94,-105.97 891.98,-104.88"/>
<polygon fill="black" stroke="black" points="892.49,-108.35 901.5,-102.78 890.98,-101.52 892.49,-108.35"/>
</g>
<!-- :core:network -->
<g id="node11" class="node">
<title>:core:network</title>
<ellipse fill="none" stroke="black" cx="806.06" cy="-90" rx="62.1" ry="18"/>
<text text-anchor="middle" x="806.06" y="-84.95" font-family="Times,serif" font-size="14.00">:core:network</text>
</g>
<!-- :core:data&#45;&gt;:core:network -->
<g id="edge11" class="edge">
<title>:core:data&#45;&gt;:core:network</title>
<path fill="none" stroke="black" d="M604.73,-150.22C644.27,-138.58 707.62,-119.95 752.69,-106.7"/>
<polygon fill="black" stroke="black" points="753.67,-110.06 762.27,-103.88 751.69,-103.34 753.67,-110.06"/>
</g>
<!-- :core:notifications -->
<g id="node12" class="node">
<title>:core:notifications</title>
<ellipse fill="none" stroke="black" cx="648.06" cy="-90" rx="77.97" ry="18"/>
<text text-anchor="middle" x="648.06" y="-84.95" font-family="Times,serif" font-size="14.00">:core:notifications</text>
</g>
<!-- :core:data&#45;&gt;:core:notifications -->
<g id="edge13" class="edge">
<title>:core:data&#45;&gt;:core:notifications</title>
<path fill="none" stroke="black" d="M586.21,-145.12C596.25,-136.33 608.94,-125.23 620.21,-115.37"/>
<polygon fill="black" stroke="black" points="622.5,-118.01 627.72,-108.79 617.89,-112.75 622.5,-118.01"/>
</g>
<!-- :core:domain&#45;&gt;:core:data -->
<g id="edge22" class="edge">
<title>:core:domain&#45;&gt;:core:data</title>
<path fill="none" stroke="red" stroke-width="2" d="M352.7,-221.2C398.75,-208.76 471.15,-189.19 519.11,-176.23"/>
<polygon fill="red" stroke="red" stroke-width="2" points="518.48,-180.02 527.22,-174.04 516.66,-173.27 518.48,-180.02"/>
</g>
<!-- :core:domain&#45;&gt;:core:model -->
<g id="edge23" class="edge">
<title>:core:domain&#45;&gt;:core:model</title>
<path fill="none" stroke="black" d="M296.33,-216.3C273.75,-184.5 232.28,-114.65 268.06,-72 297.26,-37.19 422.38,-25.23 501.52,-21.13"/>
<polygon fill="black" stroke="black" points="501.52,-24.64 511.34,-20.66 501.18,-17.64 501.52,-24.64"/>
</g>
<!-- :core:database&#45;&gt;:core:model -->
<g id="edge14" class="edge">
<title>:core:database&#45;&gt;:core:model</title>
<path fill="none" stroke="red" stroke-width="2" d="M507.02,-72.41C517.15,-63.54 529.81,-52.47 540.96,-42.71"/>
<polygon fill="red" stroke="red" stroke-width="2" points="542.01,-46.44 547.23,-37.22 537.4,-41.17 542.01,-46.44"/>
</g>
<!-- :core:datastore&#45;&gt;:core:model -->
<g id="edge16" class="edge">
<title>:core:datastore&#45;&gt;:core:model</title>
<path fill="none" stroke="black" d="M902.98,-77.54C894.37,-75.61 885.46,-73.68 877.06,-72 791.15,-54.78 691.1,-38.26 628.66,-28.37"/>
<polygon fill="black" stroke="black" points="629.37,-24.94 618.95,-26.83 628.28,-31.85 629.37,-24.94"/>
</g>
<!-- :core:datastore&#45;&gt;:core:common -->
<g id="edge17" class="edge">
<title>:core:datastore&#45;&gt;:core:common</title>
<path fill="none" stroke="black" d="M919.6,-73.81C898.51,-63.63 870.51,-50.11 847.59,-39.05"/>
<polygon fill="black" stroke="black" points="849.35,-36.01 838.82,-34.82 846.31,-42.32 849.35,-36.01"/>
</g>
<!-- :core:datastore&#45;proto -->
<g id="node13" class="node">
<title>:core:datastore&#45;proto</title>
<ellipse fill="none" stroke="black" cx="977.06" cy="-18" rx="87.69" ry="18"/>
<text text-anchor="middle" x="977.06" y="-12.95" font-family="Times,serif" font-size="14.00">:core:datastore&#45;proto</text>
</g>
<!-- :core:datastore&#45;&gt;:core:datastore&#45;proto -->
<g id="edge15" class="edge">
<title>:core:datastore&#45;&gt;:core:datastore&#45;proto</title>
<path fill="none" stroke="black" d="M957.49,-71.7C960.29,-64.15 963.64,-55.12 966.78,-46.68"/>
<polygon fill="black" stroke="black" points="969.98,-48.12 970.18,-37.52 963.42,-45.68 969.98,-48.12"/>
</g>
<!-- :core:network&#45;&gt;:core:model -->
<g id="edge19" class="edge">
<title>:core:network&#45;&gt;:core:model</title>
<path fill="none" stroke="black" d="M763.51,-76.49C723.04,-64.58 662.12,-46.67 619.07,-34"/>
<polygon fill="black" stroke="black" points="620.29,-30.71 609.71,-31.25 618.32,-37.43 620.29,-30.71"/>
</g>
<!-- :core:network&#45;&gt;:core:common -->
<g id="edge18" class="edge">
<title>:core:network&#45;&gt;:core:common</title>
<path fill="none" stroke="black" d="M806.06,-71.7C806.06,-64.41 806.06,-55.73 806.06,-47.54"/>
<polygon fill="black" stroke="black" points="809.56,-47.62 806.06,-37.62 802.56,-47.62 809.56,-47.62"/>
</g>
<!-- :core:notifications&#45;&gt;:core:model -->
<g id="edge20" class="edge">
<title>:core:notifications&#45;&gt;:core:model</title>
<path fill="none" stroke="black" d="M629.1,-72.41C618.97,-63.54 606.31,-52.47 595.15,-42.71"/>
<polygon fill="black" stroke="black" points="597.58,-40.18 587.75,-36.23 592.97,-45.44 597.58,-40.18"/>
</g>
<!-- :core:notifications&#45;&gt;:core:common -->
<g id="edge21" class="edge">
<title>:core:notifications&#45;&gt;:core:common</title>
<path fill="none" stroke="black" d="M683.13,-73.46C706.43,-63.14 737.22,-49.5 762.16,-38.45"/>
<polygon fill="black" stroke="black" points="763.34,-41.76 771.06,-34.51 760.5,-35.36 763.34,-41.76"/>
</g>
</g>
</svg>
