<svg xmlns="http://www.w3.org/2000/svg" width="763pt" height="188pt" viewBox="0 0 762.55 188">
    <g class="graph">
        <path fill="#fff" d="M0 188V0h762.55v188z"/>
        <g class="node" transform="translate(4 184)">
            <ellipse cx="315.89" cy="-162" fill="none" stroke="#000" rx="47.26" ry="18"/>
            <text x="315.89" y="-156.95" font-family="Times,serif" font-size="14" text-anchor="middle">:core:data</text>
        </g>
        <g class="node" transform="translate(4 184)">
            <ellipse cx="87.89" cy="-18" fill="none" stroke="#000" rx="65.17" ry="18"/>
            <text x="87.89" y="-12.95" font-family="Times,serif" font-size="14" text-anchor="middle">:core:common</text>
        </g>
        <g stroke="#000" class="edge">
            <path fill="none" d="M272.42 23.97C194.25 26.69 43.78 36.99 10.89 76c-10.31 12.23-7.61 21.93 0 36 7.65 14.16 20.92 25.14 34.52 33.34"/>
            <path d="m46.93 142.18 7.04 7.91-10.44-1.79z"/>
        </g>
        <g class="node" transform="translate(4 184)">
            <ellipse cx="543.89" cy="-90" fill="none" stroke="#000" rx="63.63" ry="18"/>
            <text x="543.89" y="-84.95" font-family="Times,serif" font-size="14" text-anchor="middle">:core:database</text>
        </g>
        <g stroke="red" stroke-width="2" class="edge">
            <path fill="none" d="M356.02 34.09c37.54 11.53 96.66 29.68 139.36 42.79"/>
            <path fill="red" d="m494.71 73.01 8.53 6.28-10.59.41z"/>
        </g>
        <g class="node" transform="translate(4 184)">
            <ellipse cx="396.89" cy="-90" fill="none" stroke="#000" rx="65.17" ry="18"/>
            <text x="396.89" y="-84.95" font-family="Times,serif" font-size="14" text-anchor="middle">:core:datastore</text>
        </g>
        <g stroke="#000" class="edge">
            <path fill="none" d="M338.27 38.88c10.34 8.94 23.46 20.27 35.01 30.26"/>
            <path d="m375.31 66.27 5.28 9.19-9.85-3.89z"/>
        </g>
        <g class="node" transform="translate(4 184)">
            <ellipse cx="77.89" cy="-90" fill="none" stroke="#000" rx="62.1" ry="18"/>
            <text x="77.89" y="-84.95" font-family="Times,serif" font-size="14" text-anchor="middle">:core:network</text>
        </g>
        <g stroke="#000" class="edge">
            <path fill="none" d="M283.22 33.78C243.68 45.42 180.33 64.05 135.26 77.3"/>
            <path d="m136.26 80.66-10.58-.54 8.6-6.18z"/>
        </g>
        <g class="node" transform="translate(4 184)">
            <ellipse cx="689.89" cy="-90" fill="none" stroke="#000" rx="64.66" ry="18"/>
            <text x="689.89" y="-84.95" font-family="Times,serif" font-size="14" text-anchor="middle">:core:analytics</text>
        </g>
        <g stroke="#000" class="edge">
            <path fill="none" d="M362.9 29.82C421.44 39.27 529.39 57.31 620.89 76c4.59.94 9.33 1.95 14.09 2.99"/>
            <path d="m635.59 75.54 9 5.6-10.52 1.23z"/>
        </g>
        <g class="node" transform="translate(4 184)">
            <ellipse cx="235.89" cy="-90" fill="none" stroke="#000" rx="77.97" ry="18"/>
            <text x="235.89" y="-84.95" font-family="Times,serif" font-size="14" text-anchor="middle">:core:notifications</text>
        </g>
        <g stroke="#000" class="edge">
            <path fill="none" d="M301.74 38.88c-10.04 8.79-22.73 19.89-34 29.75"/>
            <path d="m270.06 71.25-9.83 3.96 5.22-9.22z"/>
        </g>
        <g class="node" transform="translate(4 184)">
            <ellipse cx="235.89" cy="-18" fill="none" stroke="#000" rx="55.45" ry="18"/>
            <text x="235.89" y="-12.95" font-family="Times,serif" font-size="14" text-anchor="middle">:core:model</text>
        </g>
        <g stroke="red" stroke-width="2" class="edge">
            <path fill="none" d="M500.02 106.3c-8.37 1.93-17 3.9-25.13 5.7-75.83 16.81-95.44 18.02-171 36-3.81.91-7.73 1.87-11.68 2.86"/>
            <path fill="red" d="m294.61 153.86-10.55-.9 8.81-5.88z"/>
        </g>
        <g stroke="#000" class="edge">
            <path fill="none" d="M351.94 106.28c-8.36 1.91-16.95 3.88-25.05 5.72-59.27 13.49-126.99 28.75-174.46 39.42"/>
            <path d="m153.42 154.78-10.53-1.22 8.99-5.61z"/>
        </g>
        <g stroke="#000" class="edge">
            <path fill="none" d="M367.14 109.67c-24.56 10.68-57.99 25.22-84.43 36.71"/>
            <path d="m284.18 149.56-10.57.78 7.78-7.2z"/>
        </g>
        <g class="node" transform="translate(4 184)">
            <ellipse cx="396.89" cy="-18" fill="none" stroke="#000" rx="87.69" ry="18"/>
            <text x="396.89" y="-12.95" font-family="Times,serif" font-size="14" text-anchor="middle">:core:datastore-proto</text>
        </g>
        <g stroke="#000" class="edge">
            <path fill="none" d="M400.89 112.3v24.16"/>
            <path d="m404.39 136.38-3.5 10-3.5-10z"/>
        </g>
        <g stroke="#000" class="edge">
            <path fill="none" d="M84.36 112.3c1.06 7.38 2.31 16.18 3.49 24.45"/>
            <path d="m91.28 136-2.05 10.4-4.88-9.41z"/>
        </g>
        <g stroke="#000" class="edge">
            <path fill="none" d="M115.01 109.67c24.1 10.68 56.91 25.22 82.86 36.71"/>
            <path d="m199.05 143.08 7.73 7.25-10.57-.85z"/>
        </g>
        <g stroke="#000" class="edge">
            <path fill="none" d="M206.68 110.71c-21.51 10.17-49.7 23.5-72.76 34.41"/>
            <path d="m135.63 148.18-10.54 1.12 7.55-7.44z"/>
        </g>
        <g stroke="#000" class="edge">
            <path fill="none" d="M239.89 112.3v24.16"/>
            <path d="m243.39 136.38-3.5 10-3.5-10z"/>
        </g>
    </g>
</svg>
