<svg xmlns="http://www.w3.org/2000/svg" width="616" height="188pt" viewBox="0 0 462.21 188">
    <g class="graph">
        <path fill="#fff" d="M0 188V0h462.21v188z"/>
        <g class="node" transform="translate(4 184)">
            <ellipse cx="169.06" cy="-162" fill="none" stroke="#000" rx="73.77" ry="18"/>
            <text x="169.06" y="-157.8" font-family="Times,serif" font-size="14" text-anchor="middle">:app-nia-catalog</text>
        </g>
        <g class="node" transform="translate(4 184)">
            <ellipse cx="85.06" cy="-18" fill="none" stroke="#000" rx="85.06" ry="18"/>
            <text x="85.06" y="-13.8" font-family="Times,serif" font-size="14" text-anchor="middle">:core:designsystem</text>
        </g>
        <g stroke="#000" class="edge">
            <path fill="none" d="M162.93 40.13c-14.38 24.31-40.85 69.05-57.89 97.86"/>
            <path d="m108.1 139.68-8.1 6.83 2.08-10.39z"/>
        </g>
        <g class="node" transform="translate(4 184)">
            <ellipse cx="229.06" cy="-90" fill="none" stroke="#000" rx="40.53" ry="18"/>
            <text x="229.06" y="-85.8" font-family="Times,serif" font-size="14" text-anchor="middle">:core:ui</text>
        </g>
        <g stroke="red" stroke-width="2" class="edge">
            <path fill="none" d="M187.58 39.95c7.26 8.46 16.17 18.86 24.18 28.21"/>
            <path fill="red" d="m213.26 64.52 3.85 9.87-9.17-5.31z"/>
        </g>
        <g stroke="#000" class="edge">
            <path fill="none" d="M206.31 108c-20.76 10.09-49.96 24.29-74.03 35.99"/>
            <path d="m133.87 147.11-10.53 1.22 7.47-7.52z"/>
        </g>
        <g class="node" transform="translate(4 184)">
            <ellipse cx="255.06" cy="-18" fill="none" stroke="#000" rx="67.34" ry="18"/>
            <text x="255.06" y="-13.8" font-family="Times,serif" font-size="14" text-anchor="middle">:core:analytics</text>
        </g>
        <g stroke="red" stroke-width="2" class="edge">
            <path fill="none" d="M239.35 111.95c2.8 7.53 6.17 16.61 9.33 25.11"/>
            <path fill="red" d="m251.39 134.29.2 10.6-6.77-8.16z"/>
        </g>
        <g class="node" transform="translate(4 184)">
            <ellipse cx="397.06" cy="-18" fill="none" stroke="#000" rx="57.16" ry="18"/>
            <text x="397.06" y="-13.8" font-family="Times,serif" font-size="14" text-anchor="middle">:core:model</text>
        </g>
        <g stroke="#000" class="edge">
            <path fill="none" d="M261.94 107.03c26.15 10.9 65.07 27.11 95.09 39.63"/>
            <path d="m358.37 143.42 7.89 7.08-10.58-.62z"/>
        </g>
    </g>
</svg>
