<svg xmlns="http://www.w3.org/2000/svg" width="1178pt" height="404pt" viewBox="0 0 1178.13 404">
    <g class="graph">
        <path fill="#fff" d="M0 404V0h1178.13v404z"/>
        <g class="node" transform="translate(4 400)">
            <ellipse cx="626.13" cy="-378" fill="none" stroke="#000" rx="27" ry="18"/>
            <text x="626.13" y="-372.95" font-family="Times,serif" font-size="14" text-anchor="middle">:app</text>
        </g>
        <g class="node" transform="translate(4 400)">
            <ellipse cx="289.13" cy="-306" fill="none" stroke="#000" rx="72.34" ry="18"/>
            <text x="289.13" y="-300.95" font-family="Times,serif" font-size="14" text-anchor="middle">:feature:interests</text>
        </g>
        <g stroke="red" stroke-width="2" class="edge">
            <path fill="none" d="M604.52 28.32c-51.94 10.79-171.09 35.54-246.03 51.1"/>
            <path fill="red" d="m360.78 82.52-10.5-1.39 9.08-5.46z"/>
        </g>
        <g class="node" transform="translate(4 400)">
            <ellipse cx="132.13" cy="-306" fill="none" stroke="#000" rx="66.19" ry="18"/>
            <text x="132.13" y="-300.95" font-family="Times,serif" font-size="14" text-anchor="middle">:feature:foryou</text>
        </g>
        <g stroke="#000" class="edge">
            <path fill="none" d="M603.59 25.49C537.28 31.9 359.12 50.3 212.13 76c-5.3.93-10.79 1.98-16.28 3.09"/>
            <path d="m196.63 82.5-10.51-1.38 9.07-5.47z"/>
        </g>
        <g class="node" transform="translate(4 400)">
            <ellipse cx="787.13" cy="-306" fill="none" stroke="#000" rx="83.08" ry="18"/>
            <text x="787.13" y="-300.95" font-family="Times,serif" font-size="14" text-anchor="middle">:feature:bookmarks</text>
        </g>
        <g stroke="#000" class="edge">
            <path fill="none" d="M652.51 32.73c23.81 10.35 62.13 27.02 92.46 40.2"/>
            <path d="m746.16 69.63 7.77 7.2-10.56-.78z"/>
        </g>
        <g class="node" transform="translate(4 400)">
            <ellipse cx="626.13" cy="-306" fill="none" stroke="#000" rx="60.05" ry="18"/>
            <text x="626.13" y="-300.95" font-family="Times,serif" font-size="14" text-anchor="middle">:feature:topic</text>
        </g>
        <g stroke="#000" class="edge">
            <path fill="none" d="M630.13 40.3v24.16"/>
            <path d="m633.63 64.38-3.5 10-3.5-10z"/>
        </g>
        <g class="node" transform="translate(4 400)">
            <ellipse cx="445.13" cy="-306" fill="none" stroke="#000" rx="65.17" ry="18"/>
            <text x="445.13" y="-300.95" font-family="Times,serif" font-size="14" text-anchor="middle">:feature:search</text>
        </g>
        <g stroke="#000" class="edge">
            <path fill="none" d="M607.2 31.87c-27.67 10.7-74.93 28.97-110.58 42.76"/>
            <path d="m497.96 77.87-10.59.34 8.07-6.87z"/>
        </g>
        <g class="node" transform="translate(4 400)">
            <ellipse cx="958.13" cy="-306" fill="none" stroke="#000" rx="69.78" ry="18"/>
            <text x="958.13" y="-300.95" font-family="Times,serif" font-size="14" text-anchor="middle">:feature:settings</text>
        </g>
        <g stroke="#000" class="edge">
            <path fill="none" d="M655.63 28.3c45.65 9.48 144.31 30.04 227.5 47.7 5.13 1.09 10.45 2.22 15.79 3.37"/>
            <path d="m899.34 75.88 9.05 5.52-10.51 1.32z"/>
        </g>
        <g class="node" transform="translate(4 400)">
            <ellipse cx="850.13" cy="-18" fill="none" stroke="#000" rx="65.17" ry="18"/>
            <text x="850.13" y="-12.95" font-family="Times,serif" font-size="14" text-anchor="middle">:core:common</text>
        </g>
        <g stroke="#000" class="edge">
            <path fill="none" d="M657.44 22.87c91.23.05 383.95 4.11 461.69 53.13 39.33 24.8 55 42.5 55 89v74c0 44.53-10.35 62.32-46 89-31.19 23.34-131.3 38.27-201.45 46.15"/>
            <path d="m927.09 377.62-10.32-2.39 9.56-4.57z"/>
        </g>
        <g class="node" transform="translate(4 400)">
            <ellipse cx="530.13" cy="-234" fill="none" stroke="#000" rx="39.07" ry="18"/>
            <text x="530.13" y="-228.95" font-family="Times,serif" font-size="14" text-anchor="middle">:core:ui</text>
        </g>
        <g stroke="#000" class="edge">
            <path fill="none" d="M609.49 34.09c-15.42 9.29-35.9 23.9-48.36 41.91-12.44 17.97-19.27 41.82-22.95 60.31"/>
            <path d="m541.64 136.83-5.19 9.24-1.7-10.45z"/>
        </g>
        <g class="node" transform="translate(4 400)">
            <ellipse cx="749.13" cy="-162" fill="none" stroke="#000" rx="82.06" ry="18"/>
            <text x="749.13" y="-156.95" font-family="Times,serif" font-size="14" text-anchor="middle">:core:designsystem</text>
        </g>
        <g stroke="#000" class="edge">
            <path fill="none" d="M657.33 24.46c87.62 4.98 358.35 22.6 383.8 51.54 10.56 12.02 8.77 22.62 0 36-13.78 21-157.03 76.57-236.16 106.03"/>
            <path d="m806.26 221.29-10.59.19 8.15-6.76z"/>
        </g>
        <g class="node" transform="translate(4 400)">
            <ellipse cx="564.13" cy="-162" fill="none" stroke="#000" rx="47.26" ry="18"/>
            <text x="564.13" y="-156.95" font-family="Times,serif" font-size="14" text-anchor="middle">:core:data</text>
        </g>
        <g stroke="#000" class="edge">
            <path fill="none" d="M602.83 23.44C494.37 25.45 98 35.53 61.13 76-68.66 218.44 349.93 235.64 509.2 237.13"/>
            <path d="m509.17 233.63 9.97 3.58-10.02 3.42z"/>
        </g>
        <g class="node" transform="translate(4 400)">
            <ellipse cx="393.13" cy="-18" fill="none" stroke="#000" rx="55.45" ry="18"/>
            <text x="393.13" y="-12.95" font-family="Times,serif" font-size="14" text-anchor="middle">:core:model</text>
        </g>
        <g stroke="#000" class="edge">
            <path fill="none" d="M603.09 23.7C492.77 26.81 80.42 40.69 35.13 76c-33.04 25.76-31 47.11-31 89v74c0 69.72 221.52 114.79 331.93 132.93"/>
            <path d="m336.55 368.46 9.31 5.05-10.43 1.86z"/>
        </g>
        <g class="node" transform="translate(4 400)">
            <ellipse cx="1050.13" cy="-90" fill="none" stroke="#000" rx="64.66" ry="18"/>
            <text x="1050.13" y="-84.95" font-family="Times,serif" font-size="14" text-anchor="middle">:core:analytics</text>
        </g>
        <g stroke="#000" class="edge">
            <path fill="none" d="M657.6 22.45c88.91-1.21 367.03-.52 434.53 53.55 38.45 30.8 36.39 60.07 25 108-8.66 36.41-29.7 74.25-45.09 98.62"/>
            <path d="m1075.03 284.43-8.37 6.5 2.5-10.3z"/>
        </g>
        <g class="node" transform="translate(4 400)">
            <ellipse cx="1052.13" cy="-234" fill="none" stroke="#000" rx="51.86" ry="18"/>
            <text x="1052.13" y="-228.95" font-family="Times,serif" font-size="14" text-anchor="middle">:sync:work</text>
        </g>
        <g stroke="#000" class="edge">
            <path fill="none" d="M657.22 24.18c92.12 4.29 389.08 20.47 416.91 51.82 14.92 16.81 7.63 42.51-1.75 61.97"/>
            <path d="m1075.54 139.49-7.76 7.22 1.56-10.48z"/>
        </g>
        <g stroke="#000" class="edge">
            <path fill="none" d="M339.02 108.33c43.63 12.67 108.77 31.59 151.59 44.03"/>
            <path d="m491.45 148.96 8.62 6.15-10.58.57z"/>
        </g>
        <g stroke="#000" class="edge">
            <path fill="none" d="M324.56 110.6c46.02 22.64 129.72 63.06 161.57 73.4 61.37 19.93 133.23 33.68 186.93 42.17"/>
            <path d="m673.39 222.68 9.34 4.99-10.41 1.92z"/>
        </g>
        <g stroke="#000" class="edge">
            <path fill="none" d="M312.22 111.74c23.05 19.52 63.64 51.73 102.91 72.26 33.05 17.29 72.95 30.89 103.72 39.99"/>
            <path d="m519.65 220.58 8.63 6.14-10.58.58z"/>
        </g>
        <g class="node" transform="translate(4 400)">
            <ellipse cx="261.13" cy="-234" fill="none" stroke="#000" rx="60.05" ry="18"/>
            <text x="261.13" y="-228.95" font-family="Times,serif" font-size="14" text-anchor="middle">:core:domain</text>
        </g>
        <g stroke="red" stroke-width="2" class="edge">
            <path fill="none" d="M286.21 112.3c-3.02 7.55-6.64 16.58-10.01 25.02"/>
            <path fill="red" d="m280.06 137.1-6.97 7.99.47-10.59z"/>
        </g>
        <g stroke="#000" class="edge">
            <path fill="none" d="M185.1 106.38c8.97 1.97 18.27 3.92 27.03 5.62 96.86 18.79 210.96 36.54 274.01 45.97"/>
            <path d="m486.43 154.48 9.38 4.93-10.41 1.99z"/>
        </g>
        <g stroke="#000" class="edge">
            <path fill="none" d="M184.42 106.53c49.42 12.04 122.7 30.67 149.71 41.47 31.02 12.41 34.32 25.36 66 36 25.32 8.51 176.67 29.6 272.79 42.46"/>
            <path d="m673.12 222.96 9.44 4.79-10.37 2.15z"/>
        </g>
        <g stroke="#000" class="edge">
            <path fill="none" d="M142.65 112.33c8.77 20.73 26.47 54.76 53.48 71.67 51.16 32.05 222.79 45.46 313.95 50.43"/>
            <path d="m510.01 230.92 9.8 4.02-10.17 2.97z"/>
        </g>
        <g stroke="#000" class="edge">
            <path fill="none" d="M164.76 110.54c18.33 9.94 42.33 22.96 62.26 33.78"/>
            <path d="m228.57 141.18 7.12 7.85-10.46-1.7z"/>
        </g>
        <g stroke="#000" class="edge">
            <path fill="none" d="M740.66 108.75c-47.3 12.88-117.31 31.95-162.43 44.24"/>
            <path d="m579.36 156.31-10.57-.75 8.73-6.01z"/>
        </g>
        <g stroke="#000" class="edge">
            <path fill="none" d="M786.47 112.41c-6.45 24.09-18.16 67.84-25.84 96.56"/>
            <path d="m764.06 209.67-5.96 8.76-.8-10.57z"/>
        </g>
        <g stroke="#000" class="edge">
            <path fill="none" d="M762.5 111.3c-17.81 10.27-41.11 23.97-61.37 36.7-35.41 22.25-75.16 49.1-101.9 67.45"/>
            <path d="m601.46 218.16-10.22 2.79 6.25-8.55z"/>
        </g>
        <g stroke="#000" class="edge">
            <path fill="none" d="M608.34 110.88c-13.34 9.73-30.58 22.3-45.08 32.88"/>
            <path d="m565.55 146.42-10.14 3.06 6.02-8.72z"/>
        </g>
        <g stroke="#000" class="edge">
            <path fill="none" d="M644.72 111.85c21.45 24.76 61.65 71.18 86.61 99.99"/>
            <path d="m733.66 209.18 3.9 9.85-9.19-5.27z"/>
        </g>
        <g stroke="#000" class="edge">
            <path fill="none" d="M622.65 112.13c-10.57 24.2-29.98 68.66-42.56 97.48"/>
            <path d="m583.45 210.66-7.21 7.76.79-10.56z"/>
        </g>
        <g stroke="#000" class="edge">
            <path fill="none" d="M469.27 111.59c11.19 9.21 25.27 20.81 37.45 30.84"/>
            <path d="m508.92 139.71 5.49 9.05-9.94-3.65z"/>
        </g>
        <g stroke="#000" class="edge">
            <path fill="none" d="M487.1 108.97c26.84 10.15 63.5 24.59 95.03 39.03 46.18 21.16 97.72 48.52 132.02 67.28"/>
            <path d="m715.82 212.2 7.07 7.89-10.45-1.75z"/>
        </g>
        <g stroke="#000" class="edge">
            <path fill="none" d="M453.03 112.36c5.02 19.22 15.3 50.31 33.1 71.64 11.56 13.85 27.68 25.35 42.57 34.05"/>
            <path d="m530.38 214.98 7.04 7.91-10.44-1.79z"/>
        </g>
        <g stroke="#000" class="edge">
            <path fill="none" d="M411.89 109.17c-28.84 10.97-68.96 26.23-99.97 38.03"/>
            <path d="m313.37 150.39-10.59.29 8.1-6.83z"/>
        </g>
        <g stroke="#000" class="edge">
            <path fill="none" d="M910.8 106.52c-9.2 1.93-18.7 3.84-27.67 5.48-106.85 19.59-233.04 37.46-300.57 46.6"/>
            <path d="m583.32 162.03-10.38-2.13 9.44-4.81z"/>
        </g>
        <g stroke="#000" class="edge">
            <path fill="none" d="M938.15 111.29c-37.2 25.28-108.95 74.03-151.34 102.83"/>
            <path d="m788.96 216.89-10.24 2.72 6.3-8.51z"/>
        </g>
        <g stroke="#000" class="edge">
            <path fill="none" d="M922.54 109.27c-73.93 26.64-232.51 83.8-309.98 111.72"/>
            <path d="m613.75 224.28-10.59.09 8.22-6.68z"/>
        </g>
        <g stroke="#000" class="edge">
            <path fill="none" d="M565.51 177.07c7.11 2.28 14.62 4.69 21.62 6.93 36.76 11.76 78.1 24.97 110.34 35.25"/>
            <path d="m698.13 215.79 8.46 6.37-10.59.29z"/>
        </g>
        <g stroke="#000" class="edge">
            <path fill="none" d="M501.47 176.06C454.01 191.19 367.66 226.6 331.13 292c-7.81 13.97-6.92 21.57 0 36 6.1 12.73 16.92 23.38 28.06 31.7"/>
            <path d="m361.04 356.72 6.24 8.57-10.22-2.81z"/>
        </g>
        <g stroke="#000" class="edge">
            <path fill="none" d="M559.54 179.96c18.57 9.94 44.02 24.55 64.59 40.04 18.58 13.99 16.95 26.1 38 36 119.92 56.41 164.92 16.44 296 36 10.56 1.58 21.74 3.41 32.6 5.27"/>
            <path d="m991.16 293.79 9.25 5.17-10.46 1.73z"/>
        </g>
        <g stroke="#000" class="edge">
            <path fill="none" d="M604.03 250.01c8.19 2.23 16.9 4.38 25.1 5.99 68.49 13.41 265.56-16.1 312 36 10.64 11.94 7.83 22.05 0 36-8.31 14.78-22.59 25.93-37.22 34.08"/>
            <path d="m905.65 365.13-10.5 1.44 7.31-7.67z"/>
        </g>
        <g stroke="#000" class="edge">
            <path fill="none" d="M604.02 250.08c8.19 2.23 16.9 4.36 25.11 5.92 151.45 28.79 192.72 11.94 345 36 6.72 1.06 13.72 2.32 20.67 3.67"/>
            <path d="m995.03 292.14 9.11 5.4-10.49 1.47z"/>
        </g>
        <g class="node" transform="translate(4 400)">
            <ellipse cx="400.13" cy="-90" fill="none" stroke="#000" rx="63.63" ry="18"/>
            <text x="400.13" y="-84.95" font-family="Times,serif" font-size="14" text-anchor="middle">:core:database</text>
        </g>
        <g stroke="red" stroke-width="2" class="edge">
            <path fill="none" d="M537.66 252c-24.97 10.66-60.66 25.89-88.86 37.93"/>
            <path fill="red" d="m451.75 292.48-10.57.71 7.82-7.15z"/>
        </g>
        <g class="node" transform="translate(4 400)">
            <ellipse cx="547.13" cy="-90" fill="none" stroke="#000" rx="65.17" ry="18"/>
            <text x="547.13" y="-84.95" font-family="Times,serif" font-size="14" text-anchor="middle">:core:datastore</text>
        </g>
        <g stroke="#000" class="edge">
            <path fill="none" d="M563.92 256.3c-1.79 7.38-3.92 16.18-5.93 24.45"/>
            <path d="m561.4 281.53-5.76 8.89-1.04-10.54z"/>
        </g>
        <g class="node" transform="translate(4 400)">
            <ellipse cx="692.13" cy="-90" fill="none" stroke="#000" rx="62.1" ry="18"/>
            <text x="692.13" y="-84.95" font-family="Times,serif" font-size="14" text-anchor="middle">:core:network</text>
        </g>
        <g stroke="#000" class="edge">
            <path fill="none" d="M594.34 253.33c18.39 10.06 43.28 23.67 63.84 34.92"/>
            <path d="m659.75 285.12 7.1 7.87-10.45-1.73z"/>
        </g>
        <g class="node" transform="translate(4 400)">
            <ellipse cx="850.13" cy="-90" fill="none" stroke="#000" rx="77.97" ry="18"/>
            <text x="850.13" y="-84.95" font-family="Times,serif" font-size="14" text-anchor="middle">:core:notifications</text>
        </g>
        <g stroke="#000" class="edge">
            <path fill="none" d="M605.16 249.58c7.89 2.18 16.19 4.42 23.97 6.42 53.39 13.72 114.26 27.98 159.21 38.24"/>
            <path d="m788.97 290.79 8.97 5.64-10.53 1.19z"/>
        </g>
        <g stroke="#000" class="edge">
            <path fill="none" d="M1007.5 172.82C933 181.91 786.21 200.44 662.13 220c-13.44 2.12-27.92 4.62-41.39 7.05"/>
            <path d="m621.66 230.44-10.47-1.65 9.21-5.23z"/>
        </g>
        <g stroke="#000" class="edge">
            <path fill="none" d="M1055.88 184.41c-.34 23.98-.95 67.45-1.35 96.17"/>
            <path d="m1058.03 280.43-3.64 9.95-3.36-10.05z"/>
        </g>
        <g stroke="#000" class="edge">
            <path fill="none" d="M1034.12 182.47c-35.49 24.95-105.61 74.24-147.08 103.39"/>
            <path d="m889.09 288.7-10.2 2.89 6.17-8.62z"/>
        </g>
        <g stroke="red" stroke-width="2" class="edge">
            <path fill="none" d="M311.48 177.71c55.64 12.85 148.61 34.33 206.07 47.61"/>
            <path fill="red" d="m516.64 221.51 8.96 5.66-10.54 1.16z"/>
        </g>
        <g stroke="#000" class="edge">
            <path fill="none" d="M264.13 184.42c-.92 31.77 1.42 99.89 34 143.58 12.27 16.46 31.2 28.35 49.24 36.64"/>
            <path d="m348.62 361.37 7.82 7.15-10.58-.72z"/>
        </g>
        <g stroke="red" stroke-width="2" class="edge">
            <path fill="none" d="m402.4 328.3-2.42 24.16"/>
            <path fill="red" d="m403.62 351.28-4.48 9.6-2.49-10.3z"/>
        </g>
        <g stroke="#000" class="edge">
            <path fill="none" d="M599.81 322.25c52.93 12.22 137.56 31.78 194.5 44.93"/>
            <path d="m794.88 363.72 8.96 5.66-10.53 1.16z"/>
        </g>
        <g stroke="#000" class="edge">
            <path fill="none" d="M518.47 325.85c-23.26 10.57-54.69 24.86-79.74 36.24"/>
            <path d="m440.35 365.2-10.55.95 7.66-7.33z"/>
        </g>
        <g class="node" transform="translate(4 400)">
            <ellipse cx="554.13" cy="-18" fill="none" stroke="#000" rx="87.69" ry="18"/>
            <text x="554.13" y="-12.95" font-family="Times,serif" font-size="14" text-anchor="middle">:core:datastore-proto</text>
        </g>
        <g stroke="#000" class="edge">
            <path fill="none" d="M552.86 328.3c.73 7.29 1.59 15.97 2.41 24.16"/>
            <path d="m558.75 352.09-2.48 10.3-4.48-9.6z"/>
        </g>
        <g stroke="#000" class="edge">
            <path fill="none" d="M729.25 325.67c23.62 10.47 55.62 24.64 81.31 36.03"/>
            <path d="m811.67 358.36 7.72 7.25-10.56-.85z"/>
        </g>
        <g stroke="#000" class="edge">
            <path fill="none" d="M649.56 322.28c-8.14 1.94-16.53 3.91-24.43 5.72-72.74 16.69-91.48 18.42-164 36-3.75.91-7.61 1.87-11.49 2.85"/>
            <path d="m450.74 370.19-10.56-.9 8.81-5.88z"/>
        </g>
        <g stroke="#000" class="edge">
            <path fill="none" d="M854.13 328.3v24.16"/>
            <path d="m857.63 352.38-3.5 10-3.5-10z"/>
        </g>
        <g stroke="#000" class="edge">
            <path fill="none" d="M797.61 322.69c-10.13 1.91-20.6 3.77-30.48 5.31-135.3 21.15-171.49 10.36-306 36a342 342 0 0 0-12.5 2.64"/>
            <path d="m449.57 370.02-10.54-1.05 8.89-5.76z"/>
        </g>
    </g>
</svg>
