<svg xmlns="http://www.w3.org/2000/svg" width="616" height="116pt" viewBox="0 0 462.5 116">
    <g class="graph">
        <path fill="#fff" d="M0 116V0h462.5v116z"/>
        <g class="node" transform="translate(4 112)">
            <ellipse cx="237.34" cy="-90" fill="none" stroke="#000" rx="40.53" ry="18"/>
            <text x="237.34" y="-85.8" font-family="Times,serif" font-size="14" text-anchor="middle">:core:ui</text>
        </g>
        <g class="node" transform="translate(4 112)">
            <ellipse cx="67.34" cy="-18" fill="none" stroke="#000" rx="67.34" ry="18"/>
            <text x="67.34" y="-13.8" font-family="Times,serif" font-size="14" text-anchor="middle">:core:analytics</text>
        </g>
        <g stroke="red" stroke-width="2" class="edge">
            <path fill="none" d="M212.5 34.87c-26.1 10.75-64.98 26.76-95.34 39.26"/>
            <path fill="red" d="m120.2 76.67-10.58.57 7.91-7.04z"/>
        </g>
        <g class="node" transform="translate(4 112)">
            <ellipse cx="237.34" cy="-18" fill="none" stroke="#000" rx="85.06" ry="18"/>
            <text x="237.34" y="-13.8" font-family="Times,serif" font-size="14" text-anchor="middle">:core:designsystem</text>
        </g>
        <g stroke="#000" class="edge">
            <path fill="none" d="M241.34 40.3v24.16"/>
            <path d="m244.84 64.38-3.5 10-3.5-10z"/>
        </g>
        <g class="node" transform="translate(4 112)">
            <ellipse cx="397.34" cy="-18" fill="none" stroke="#000" rx="57.16" ry="18"/>
            <text x="397.34" y="-13.8" font-family="Times,serif" font-size="14" text-anchor="middle">:core:model</text>
        </g>
        <g stroke="#000" class="edge">
            <path fill="none" d="M269.58 35.35c24.66 10.79 60.82 26.61 89.02 38.95"/>
            <path d="m359.84 71.02 7.76 7.22-10.57-.81z"/>
        </g>
    </g>
</svg>
