<svg xmlns="http://www.w3.org/2000/svg" width="1064pt" height="260pt" viewBox="0 0 1063.53 260">
    <g class="graph">
        <path fill="#fff" d="M0 260V0h1063.53v260z"/>
        <g class="node" transform="translate(4 256)">
            <ellipse cx="198.06" cy="-234" fill="none" stroke="#000" rx="72.71" ry="18"/>
            <text x="198.06" y="-229.8" font-family="Times,serif" font-size="14" text-anchor="middle">:feature:settings</text>
        </g>
        <g class="node" transform="translate(4 256)">
            <ellipse cx="198.06" cy="-162" fill="none" stroke="#000" rx="40.53" ry="18"/>
            <text x="198.06" y="-157.8" font-family="Times,serif" font-size="14" text-anchor="middle">:core:ui</text>
        </g>
        <g stroke="#000" class="edge">
            <path fill="none" d="M202.06 40.3v24.16"/>
            <path d="m205.56 64.38-3.5 10-3.5-10z"/>
        </g>
        <g class="node" transform="translate(4 256)">
            <ellipse cx="85.06" cy="-90" fill="none" stroke="#000" rx="85.06" ry="18"/>
            <text x="85.06" y="-85.8" font-family="Times,serif" font-size="14" text-anchor="middle">:core:designsystem</text>
        </g>
        <g stroke="#000" class="edge">
            <path fill="none" d="M185.21 39.63c-10 10.18-22.73 23.65-33.15 36.37-16.5 20.14-33.45 44.33-45.61 62.4"/>
            <path d="m109.52 140.11-8.46 6.38 2.63-10.26z"/>
        </g>
        <g class="node" transform="translate(4 256)">
            <ellipse cx="611.06" cy="-162" fill="none" stroke="#000" rx="49.1" ry="18"/>
            <text x="611.06" y="-157.8" font-family="Times,serif" font-size="14" text-anchor="middle">:core:data</text>
        </g>
        <g stroke="red" stroke-width="2" class="edge">
            <path fill="none" d="M260.79 32.95c79.81 13.53 221.46 37.54 299.28 50.73"/>
            <path fill="red" d="m558.81 79.92 9.28 5.12-10.45 1.78z"/>
        </g>
        <g stroke="#000" class="edge">
            <path fill="none" d="M179.19 109.17c-15.56 9.64-36.48 22.59-54.24 33.6"/>
            <path d="m127.09 145.56-10.35 2.29 6.66-8.24z"/>
        </g>
        <g class="node" transform="translate(4 256)">
            <ellipse cx="293.06" cy="-90" fill="none" stroke="#000" rx="67.34" ry="18"/>
            <text x="293.06" y="-85.8" font-family="Times,serif" font-size="14" text-anchor="middle">:core:analytics</text>
        </g>
        <g stroke="#000" class="edge">
            <path fill="none" d="M222.2 109.85c12.69 9.34 29.33 21.61 43.7 32.19"/>
            <path d="m267.76 139.06 5.97 8.75-10.13-3.11z"/>
        </g>
        <g class="node" transform="translate(4 256)">
            <ellipse cx="611.06" cy="-18" fill="none" stroke="#000" rx="57.16" ry="18"/>
            <text x="611.06" y="-13.8" font-family="Times,serif" font-size="14" text-anchor="middle">:core:model</text>
        </g>
        <g stroke="#000" class="edge">
            <path fill="none" d="M200.38 112.2c-.94 20.29.97 53.55 20.68 71.8 46.01 42.62 225.28 51.44 325.4 52.97"/>
            <path d="m546.2 233.46 9.95 3.63-10.04 3.37z"/>
        </g>
        <g stroke="#000" class="edge">
            <path fill="none" d="M573.69 104.09c-48.01 10.54-129.56 28.47-199.63 43.91-5.08 1.12-10.35 2.28-15.64 3.45"/>
            <path d="m359.58 154.77-10.51-1.26 9.01-5.57z"/>
        </g>
        <g class="node" transform="translate(4 256)">
            <ellipse cx="781.06" cy="-18" fill="none" stroke="#000" rx="66.81" ry="18"/>
            <text x="781.06" y="-13.8" font-family="Times,serif" font-size="14" text-anchor="middle">:core:common</text>
        </g>
        <g stroke="#000" class="edge">
            <path fill="none" d="M662.9 98.73c62.51 5.97 166.79 20.12 190.16 49.27 10.01 12.48 7.02 21.62 0 36-6.16 12.61-16.93 23.09-28.1 31.31"/>
            <path d="m827.06 218.12-10.24 2.71 6.31-8.51z"/>
        </g>
        <g class="node" transform="translate(4 256)">
            <ellipse cx="445.06" cy="-90" fill="none" stroke="#000" rx="66.26" ry="18"/>
            <text x="445.06" y="-85.8" font-family="Times,serif" font-size="14" text-anchor="middle">:core:database</text>
        </g>
        <g stroke="red" stroke-width="2" class="edge">
            <path fill="none" d="M583.83 108.17c-25.23 10.64-61.09 25.76-89.48 37.73"/>
            <path fill="red" d="m497.23 148.48-10.57.66 7.85-7.11z"/>
        </g>
        <g class="node" transform="translate(4 256)">
            <ellipse cx="964.06" cy="-90" fill="none" stroke="#000" rx="67.87" ry="18"/>
            <text x="964.06" y="-85.8" font-family="Times,serif" font-size="14" text-anchor="middle">:core:datastore</text>
        </g>
        <g stroke="#000" class="edge">
            <path fill="none" d="M657.8 103.2c53.43 10.3 147.66 28.56 228.26 44.8 6.21 1.25 12.68 2.57 19.14 3.89"/>
            <path d="m905.45 148.37 9.09 5.44-10.5 1.42z"/>
        </g>
        <g class="node" transform="translate(4 256)">
            <ellipse cx="775.06" cy="-90" fill="none" stroke="#000" rx="64.66" ry="18"/>
            <text x="775.06" y="-85.8" font-family="Times,serif" font-size="14" text-anchor="middle">:core:network</text>
        </g>
        <g stroke="#000" class="edge">
            <path fill="none" d="M646.29 108.33c24.97 10.66 60.29 25.74 88.23 37.66"/>
            <path d="m735.61 142.65 7.82 7.15-10.57-.71z"/>
        </g>
        <g class="node" transform="translate(4 256)">
            <ellipse cx="611.06" cy="-90" fill="none" stroke="#000" rx="81.29" ry="18"/>
            <text x="611.06" y="-85.8" font-family="Times,serif" font-size="14" text-anchor="middle">:core:notifications</text>
        </g>
        <g stroke="#000" class="edge">
            <path fill="none" d="M615.06 112.3v24.16"/>
            <path d="m618.56 136.38-3.5 10-3.5-10z"/>
        </g>
        <g stroke="red" stroke-width="2" class="edge">
            <path fill="none" d="M483.86 181.67c25.43 10.73 60.1 25.35 87.41 36.87"/>
            <path fill="red" d="m571.08 214.66 7.85 7.11-10.57-.66z"/>
        </g>
        <g stroke="#000" class="edge">
            <path fill="none" d="M914.83 177.56c-64.82 12.85-173.94 34.49-241.12 47.81"/>
            <path d="m674.46 228.79-10.49-1.49 9.13-5.38z"/>
        </g>
        <g stroke="#000" class="edge">
            <path fill="none" d="M930.58 181.33c-28.25 10.81-67.2 25.71-97.7 37.38"/>
            <path d="m834.49 221.84-10.59.3 8.08-6.84z"/>
        </g>
        <g class="node" transform="translate(4 256)">
            <ellipse cx="964.06" cy="-18" fill="none" stroke="#000" rx="91.47" ry="18"/>
            <text x="964.06" y="-13.8" font-family="Times,serif" font-size="14" text-anchor="middle">:core:datastore-proto</text>
        </g>
        <g stroke="#000" class="edge">
            <path fill="none" d="M968.06 184.3v24.16"/>
            <path d="m971.56 208.38-3.5 10-3.5-10z"/>
        </g>
        <g stroke="#000" class="edge">
            <path fill="none" d="M744.68 181.67c-25.13 10.73-59.38 25.35-86.36 36.87"/>
            <path d="m659.96 221.64-10.57.71 7.82-7.15z"/>
        </g>
        <g stroke="#000" class="edge">
            <path fill="none" d="M780.54 184.3c.63 7.29 1.37 15.97 2.07 24.16"/>
            <path d="m786.1 208.13-2.64 10.26-4.34-9.67z"/>
        </g>
        <g stroke="#000" class="edge">
            <path fill="none" d="M615.06 184.3v24.16"/>
            <path d="m618.56 208.38-3.5 10-3.5-10z"/>
        </g>
        <g stroke="#000" class="edge">
            <path fill="none" d="M652.36 182.36c25.54 10.52 59.58 24.53 86.78 35.73"/>
            <path d="m740.27 214.77 7.91 7.05-10.58-.58z"/>
        </g>
    </g>
</svg>
