<?xml version="1.0" encoding="UTF-8" standalone="no"?>
<!DOCTYPE svg PUBLIC "-//W3C//DTD SVG 1.1//EN"
 "http://www.w3.org/Graphics/SVG/1.1/DTD/svg11.dtd">
<!-- Generated by graphviz version 9.0.0 (20230911.1827)
 -->
<!-- Title: G Pages: 1 -->
<svg width="449pt" height="188pt"
 viewBox="0.00 0.00 448.51 188.00" xmlns="http://www.w3.org/2000/svg" xmlns:xlink="http://www.w3.org/1999/xlink">
<g id="graph0" class="graph" transform="scale(1 1) rotate(0) translate(4 184)">
<title>G</title>
<polygon fill="white" stroke="none" points="-4,4 -4,-184 444.51,-184 444.51,4 -4,4"/>
<!-- :app&#45;nia&#45;catalog -->
<g id="node1" class="node">
<title>:app&#45;nia&#45;catalog</title>
<ellipse fill="none" stroke="black" cx="164.06" cy="-162" rx="70.8" ry="18"/>
<text text-anchor="middle" x="164.06" y="-156.95" font-family="Times,serif" font-size="14.00">:app&#45;nia&#45;catalog</text>
</g>
<!-- :core:designsystem -->
<g id="node2" class="node">
<title>:core:designsystem</title>
<ellipse fill="none" stroke="black" cx="82.06" cy="-18" rx="82.06" ry="18"/>
<text text-anchor="middle" x="82.06" y="-12.95" font-family="Times,serif" font-size="14.00">:core:designsystem</text>
</g>
<!-- :app&#45;nia&#45;catalog&#45;&gt;:core:designsystem -->
<g id="edge1" class="edge">
<title>:app&#45;nia&#45;catalog&#45;&gt;:core:designsystem</title>
<path fill="none" stroke="black" d="M154.17,-143.87C140.13,-119.56 114.29,-74.82 97.66,-46.01"/>
<polygon fill="black" stroke="black" points="100.77,-44.41 92.74,-37.5 94.71,-47.91 100.77,-44.41"/>
</g>
<!-- :core:ui -->
<g id="node3" class="node">
<title>:core:ui</title>
<ellipse fill="none" stroke="black" cx="222.06" cy="-90" rx="39.07" ry="18"/>
<text text-anchor="middle" x="222.06" y="-84.95" font-family="Times,serif" font-size="14.00">:core:ui</text>
</g>
<!-- :app&#45;nia&#45;catalog&#45;&gt;:core:ui -->
<g id="edge2" class="edge">
<title>:app&#45;nia&#45;catalog&#45;&gt;:core:ui</title>
<path fill="none" stroke="red" stroke-width="2" d="M178.1,-144.05C185.04,-135.68 193.55,-125.4 201.23,-116.13"/>
<polygon fill="red" stroke="red" stroke-width="2" points="202.93,-119.57 206.62,-109.64 197.54,-115.11 202.93,-119.57"/>
</g>
<!-- :core:ui&#45;&gt;:core:designsystem -->
<g id="edge4" class="edge">
<title>:core:ui&#45;&gt;:core:designsystem</title>
<path fill="none" stroke="black" d="M196.38,-76.16C176.17,-66.05 147.57,-51.76 124.04,-39.99"/>
<polygon fill="black" stroke="black" points="125.83,-36.97 115.32,-35.63 122.7,-43.23 125.83,-36.97"/>
</g>
<!-- :core:analytics -->
<g id="node4" class="node">
<title>:core:analytics</title>
<ellipse fill="none" stroke="black" cx="247.06" cy="-18" rx="64.66" ry="18"/>
<text text-anchor="middle" x="247.06" y="-12.95" font-family="Times,serif" font-size="14.00">:core:analytics</text>
</g>
<!-- :core:ui&#45;&gt;:core:analytics -->
<g id="edge3" class="edge">
<title>:core:ui&#45;&gt;:core:analytics</title>
<path fill="none" stroke="red" stroke-width="2" d="M228.11,-72.05C230.8,-64.52 234.05,-55.44 237.08,-46.94"/>
<polygon fill="red" stroke="red" stroke-width="2" points="239.8,-49.72 239.87,-39.13 233.21,-47.37 239.8,-49.72"/>
</g>
<!-- :core:model -->
<g id="node5" class="node">
<title>:core:model</title>
<ellipse fill="none" stroke="black" cx="385.06" cy="-18" rx="55.45" ry="18"/>
<text text-anchor="middle" x="385.06" y="-12.95" font-family="Times,serif" font-size="14.00">:core:model</text>
</g>
<!-- :core:ui&#45;&gt;:core:model -->
<g id="edge5" class="edge">
<title>:core:ui&#45;&gt;:core:model</title>
<path fill="none" stroke="black" d="M250.08,-76.97C275.45,-66.07 313.21,-49.86 342.35,-37.34"/>
<polygon fill="black" stroke="black" points="343.45,-40.68 351.26,-33.52 340.69,-34.25 343.45,-40.68"/>
</g>
</g>
</svg>
