<?xml version="1.0" encoding="UTF-8" standalone="no"?>
<!DOCTYPE svg PUBLIC "-//W3C//DTD SVG 1.1//EN"
 "http://www.w3.org/Graphics/SVG/1.1/DTD/svg11.dtd">
<!-- Generated by graphviz version 9.0.0 (20230911.1827)
 -->
<!-- Title: G Pages: 1 -->
<svg width="449pt" height="116pt"
 viewBox="0.00 0.00 449.10 116.00" xmlns="http://www.w3.org/2000/svg" xmlns:xlink="http://www.w3.org/1999/xlink">
<g id="graph0" class="graph" transform="scale(1 1) rotate(0) translate(4 112)">
<title>G</title>
<polygon fill="white" stroke="none" points="-4,4 -4,-112 445.1,-112 445.1,4 -4,4"/>
<!-- :core:ui -->
<g id="node1" class="node">
<title>:core:ui</title>
<ellipse fill="none" stroke="black" cx="229.66" cy="-90" rx="39.07" ry="18"/>
<text text-anchor="middle" x="229.66" y="-84.95" font-family="Times,serif" font-size="14.00">:core:ui</text>
</g>
<!-- :core:analytics -->
<g id="node2" class="node">
<title>:core:analytics</title>
<ellipse fill="none" stroke="black" cx="64.66" cy="-18" rx="64.66" ry="18"/>
<text text-anchor="middle" x="64.66" y="-12.95" font-family="Times,serif" font-size="14.00">:core:analytics</text>
</g>
<!-- :core:ui&#45;&gt;:core:analytics -->
<g id="edge1" class="edge">
<title>:core:ui&#45;&gt;:core:analytics</title>
<path fill="none" stroke="red" stroke-width="2" d="M201.67,-77.13C176.45,-66.43 138.92,-50.51 109.52,-38.03"/>
<polygon fill="red" stroke="red" stroke-width="2" points="112.45,-35.47 101.88,-34.79 109.72,-41.92 112.45,-35.47"/>
</g>
<!-- :core:designsystem -->
<g id="node3" class="node">
<title>:core:designsystem</title>
<ellipse fill="none" stroke="black" cx="229.66" cy="-18" rx="82.06" ry="18"/>
<text text-anchor="middle" x="229.66" y="-12.95" font-family="Times,serif" font-size="14.00">:core:designsystem</text>
</g>
<!-- :core:ui&#45;&gt;:core:designsystem -->
<g id="edge2" class="edge">
<title>:core:ui&#45;&gt;:core:designsystem</title>
<path fill="none" stroke="black" d="M229.66,-71.7C229.66,-64.41 229.66,-55.73 229.66,-47.54"/>
<polygon fill="black" stroke="black" points="233.16,-47.62 229.66,-37.62 226.16,-47.62 233.16,-47.62"/>
</g>
<!-- :core:model -->
<g id="node4" class="node">
<title>:core:model</title>
<ellipse fill="none" stroke="black" cx="385.66" cy="-18" rx="55.45" ry="18"/>
<text text-anchor="middle" x="385.66" y="-12.95" font-family="Times,serif" font-size="14.00">:core:model</text>
</g>
<!-- :core:ui&#45;&gt;:core:model -->
<g id="edge3" class="edge">
<title>:core:ui&#45;&gt;:core:model</title>
<path fill="none" stroke="black" d="M256.83,-76.81C280.83,-66.04 316.19,-50.17 343.8,-37.78"/>
<polygon fill="black" stroke="black" points="344.89,-41.13 352.58,-33.84 342.02,-34.74 344.89,-41.13"/>
</g>
</g>
</svg>
