<?xml version="1.0" encoding="UTF-8" standalone="no"?>
<!DOCTYPE svg PUBLIC "-//W3C//DTD SVG 1.1//EN"
 "http://www.w3.org/Graphics/SVG/1.1/DTD/svg11.dtd">
<!-- Generated by graphviz version 9.0.0 (20230911.1827)
 -->
<!-- Title: G Pages: 1 -->
<svg width="1178pt" height="404pt"
 viewBox="0.00 0.00 1178.13 404.00" xmlns="http://www.w3.org/2000/svg" xmlns:xlink="http://www.w3.org/1999/xlink">
<g id="graph0" class="graph" transform="scale(1 1) rotate(0) translate(4 400)">
<title>G</title>
<polygon fill="white" stroke="none" points="-4,4 -4,-400 1174.13,-400 1174.13,4 -4,4"/>
<!-- :app -->
<g id="node1" class="node">
<title>:app</title>
<ellipse fill="none" stroke="black" cx="626.13" cy="-378" rx="27" ry="18"/>
<text text-anchor="middle" x="626.13" y="-372.95" font-family="Times,serif" font-size="14.00">:app</text>
</g>
<!-- :feature:interests -->
<g id="node2" class="node">
<title>:feature:interests</title>
<ellipse fill="none" stroke="black" cx="289.13" cy="-306" rx="72.34" ry="18"/>
<text text-anchor="middle" x="289.13" y="-300.95" font-family="Times,serif" font-size="14.00">:feature:interests</text>
</g>
<!-- :app&#45;&gt;:feature:interests -->
<g id="edge1" class="edge">
<title>:app&#45;&gt;:feature:interests</title>
<path fill="none" stroke="red" stroke-width="2" d="M600.52,-371.68C548.58,-360.89 429.43,-336.14 354.49,-320.58"/>
<polygon fill="red" stroke="red" stroke-width="2" points="356.78,-317.48 346.28,-318.87 355.36,-324.33 356.78,-317.48"/>
</g>
<!-- :feature:foryou -->
<g id="node3" class="node">
<title>:feature:foryou</title>
<ellipse fill="none" stroke="black" cx="132.13" cy="-306" rx="66.19" ry="18"/>
<text text-anchor="middle" x="132.13" y="-300.95" font-family="Times,serif" font-size="14.00">:feature:foryou</text>
</g>
<!-- :app&#45;&gt;:feature:foryou -->
<g id="edge2" class="edge">
<title>:app&#45;&gt;:feature:foryou</title>
<path fill="none" stroke="black" d="M599.59,-374.51C533.28,-368.1 355.12,-349.7 208.13,-324 202.83,-323.07 197.34,-322.02 191.85,-320.91"/>
<polygon fill="black" stroke="black" points="192.63,-317.5 182.12,-318.88 191.19,-324.35 192.63,-317.5"/>
</g>
<!-- :feature:bookmarks -->
<g id="node4" class="node">
<title>:feature:bookmarks</title>
<ellipse fill="none" stroke="black" cx="787.13" cy="-306" rx="83.08" ry="18"/>
<text text-anchor="middle" x="787.13" y="-300.95" font-family="Times,serif" font-size="14.00">:feature:bookmarks</text>
</g>
<!-- :app&#45;&gt;:feature:bookmarks -->
<g id="edge3" class="edge">
<title>:app&#45;&gt;:feature:bookmarks</title>
<path fill="none" stroke="black" d="M648.51,-367.27C672.32,-356.92 710.64,-340.25 740.97,-327.07"/>
<polygon fill="black" stroke="black" points="742.16,-330.37 749.93,-323.17 739.37,-323.95 742.16,-330.37"/>
</g>
<!-- :feature:topic -->
<g id="node5" class="node">
<title>:feature:topic</title>
<ellipse fill="none" stroke="black" cx="626.13" cy="-306" rx="60.05" ry="18"/>
<text text-anchor="middle" x="626.13" y="-300.95" font-family="Times,serif" font-size="14.00">:feature:topic</text>
</g>
<!-- :app&#45;&gt;:feature:topic -->
<g id="edge4" class="edge">
<title>:app&#45;&gt;:feature:topic</title>
<path fill="none" stroke="black" d="M626.13,-359.7C626.13,-352.41 626.13,-343.73 626.13,-335.54"/>
<polygon fill="black" stroke="black" points="629.63,-335.62 626.13,-325.62 622.63,-335.62 629.63,-335.62"/>
</g>
<!-- :feature:search -->
<g id="node6" class="node">
<title>:feature:search</title>
<ellipse fill="none" stroke="black" cx="445.13" cy="-306" rx="65.17" ry="18"/>
<text text-anchor="middle" x="445.13" y="-300.95" font-family="Times,serif" font-size="14.00">:feature:search</text>
</g>
<!-- :app&#45;&gt;:feature:search -->
<g id="edge5" class="edge">
<title>:app&#45;&gt;:feature:search</title>
<path fill="none" stroke="black" d="M603.2,-368.13C575.53,-357.43 528.27,-339.16 492.62,-325.37"/>
<polygon fill="black" stroke="black" points="493.96,-322.13 483.37,-321.79 491.44,-328.66 493.96,-322.13"/>
</g>
<!-- :feature:settings -->
<g id="node7" class="node">
<title>:feature:settings</title>
<ellipse fill="none" stroke="black" cx="958.13" cy="-306" rx="69.78" ry="18"/>
<text text-anchor="middle" x="958.13" y="-300.95" font-family="Times,serif" font-size="14.00">:feature:settings</text>
</g>
<!-- :app&#45;&gt;:feature:settings -->
<g id="edge6" class="edge">
<title>:app&#45;&gt;:feature:settings</title>
<path fill="none" stroke="black" d="M651.63,-371.7C697.28,-362.22 795.94,-341.66 879.13,-324 884.26,-322.91 889.58,-321.78 894.92,-320.63"/>
<polygon fill="black" stroke="black" points="895.34,-324.12 904.39,-318.6 893.88,-317.28 895.34,-324.12"/>
</g>
<!-- :core:common -->
<g id="node8" class="node">
<title>:core:common</title>
<ellipse fill="none" stroke="black" cx="760.13" cy="-18" rx="65.17" ry="18"/>
<text text-anchor="middle" x="760.13" y="-12.95" font-family="Times,serif" font-size="14.00">:core:common</text>
</g>
<!-- :app&#45;&gt;:core:common -->
<g id="edge7" class="edge">
<title>:app&#45;&gt;:core:common</title>
<path fill="none" stroke="black" d="M653.52,-377.16C744.97,-377.21 1038.43,-373.43 1116.13,-324 1155.16,-299.17 1170.13,-281.27 1170.13,-235 1170.13,-235 1170.13,-235 1170.13,-161 1170.13,-114.96 1155.63,-97.23 1117.13,-72 1064.1,-37.25 896.54,-47.11 834.13,-36 829.18,-35.12 824.06,-34.12 818.93,-33.06"/>
<polygon fill="black" stroke="black" points="819.74,-29.66 809.23,-30.99 818.28,-36.51 819.74,-29.66"/>
</g>
<!-- :core:ui -->
<g id="node9" class="node">
<title>:core:ui</title>
<ellipse fill="none" stroke="black" cx="530.13" cy="-234" rx="39.07" ry="18"/>
<text text-anchor="middle" x="530.13" y="-228.95" font-family="Times,serif" font-size="14.00">:core:ui</text>
</g>
<!-- :app&#45;&gt;:core:ui -->
<g id="edge8" class="edge">
<title>:app&#45;&gt;:core:ui</title>
<path fill="none" stroke="black" d="M605.49,-365.91C590.07,-356.62 569.59,-342.01 557.13,-324 544.69,-306.03 537.86,-282.18 534.18,-263.69"/>
<polygon fill="black" stroke="black" points="537.64,-263.17 532.45,-253.93 530.75,-264.38 537.64,-263.17"/>
</g>
<!-- :core:designsystem -->
<g id="node10" class="node">
<title>:core:designsystem</title>
<ellipse fill="none" stroke="black" cx="749.13" cy="-162" rx="82.06" ry="18"/>
<text text-anchor="middle" x="749.13" y="-156.95" font-family="Times,serif" font-size="14.00">:core:designsystem</text>
</g>
<!-- :app&#45;&gt;:core:designsystem -->
<g id="edge9" class="edge">
<title>:app&#45;&gt;:core:designsystem</title>
<path fill="none" stroke="black" d="M653.33,-375.54C740.95,-370.56 1011.68,-352.94 1037.13,-324 1047.69,-311.98 1045.9,-301.38 1037.13,-288 1023.35,-267 880.1,-211.43 800.97,-181.97"/>
<polygon fill="black" stroke="black" points="802.26,-178.71 791.67,-178.52 799.82,-185.28 802.26,-178.71"/>
</g>
<!-- :core:data -->
<g id="node11" class="node">
<title>:core:data</title>
<ellipse fill="none" stroke="black" cx="564.13" cy="-162" rx="47.26" ry="18"/>
<text text-anchor="middle" x="564.13" y="-156.95" font-family="Times,serif" font-size="14.00">:core:data</text>
</g>
<!-- :app&#45;&gt;:core:data -->
<g id="edge10" class="edge">
<title>:app&#45;&gt;:core:data</title>
<path fill="none" stroke="black" d="M598.83,-376.56C490.37,-374.55 94,-364.47 57.13,-324 -72.66,-181.56 345.93,-164.36 505.2,-162.87"/>
<polygon fill="black" stroke="black" points="505.17,-166.37 515.14,-162.79 505.12,-159.37 505.17,-166.37"/>
</g>
<!-- :core:model -->
<g id="node12" class="node">
<title>:core:model</title>
<ellipse fill="none" stroke="black" cx="391.13" cy="-18" rx="55.45" ry="18"/>
<text text-anchor="middle" x="391.13" y="-12.95" font-family="Times,serif" font-size="14.00">:core:model</text>
</g>
<!-- :app&#45;&gt;:core:model -->
<g id="edge11" class="edge">
<title>:app&#45;&gt;:core:model</title>
<path fill="none" stroke="black" d="M599.09,-376.3C488.77,-373.19 76.42,-359.31 31.13,-324 -1.91,-298.24 0.13,-276.89 0.13,-235 0.13,-235 0.13,-235 0.13,-161 0.13,-91.6 220.52,-46.37 330.37,-28.13"/>
<polygon fill="black" stroke="black" points="330.81,-31.61 340.11,-26.54 329.68,-24.7 330.81,-31.61"/>
</g>
<!-- :core:analytics -->
<g id="node13" class="node">
<title>:core:analytics</title>
<ellipse fill="none" stroke="black" cx="1043.13" cy="-90" rx="64.66" ry="18"/>
<text text-anchor="middle" x="1043.13" y="-84.95" font-family="Times,serif" font-size="14.00">:core:analytics</text>
</g>
<!-- :app&#45;&gt;:core:analytics -->
<g id="edge12" class="edge">
<title>:app&#45;&gt;:core:analytics</title>
<path fill="none" stroke="black" d="M653.6,-377.55C742.51,-378.76 1020.63,-378.07 1088.13,-324 1126.58,-293.2 1125.57,-263.67 1113.13,-216 1103.47,-178.98 1080.15,-141.32 1063.07,-117.16"/>
<polygon fill="black" stroke="black" points="1066,-115.25 1057.3,-109.2 1060.33,-119.35 1066,-115.25"/>
</g>
<!-- :sync:work -->
<g id="node14" class="node">
<title>:sync:work</title>
<ellipse fill="none" stroke="black" cx="1052.13" cy="-234" rx="51.86" ry="18"/>
<text text-anchor="middle" x="1052.13" y="-228.95" font-family="Times,serif" font-size="14.00">:sync:work</text>
</g>
<!-- :app&#45;&gt;:sync:work -->
<g id="edge13" class="edge">
<title>:app&#45;&gt;:sync:work</title>
<path fill="none" stroke="black" d="M653.22,-375.82C745.34,-371.53 1042.3,-355.35 1070.13,-324 1085.05,-307.19 1077.76,-281.49 1068.38,-262.03"/>
<polygon fill="black" stroke="black" points="1071.54,-260.51 1063.78,-253.29 1065.34,-263.77 1071.54,-260.51"/>
</g>
<!-- :feature:interests&#45;&gt;:core:ui -->
<g id="edge14" class="edge">
<title>:feature:interests&#45;&gt;:core:ui</title>
<path fill="none" stroke="black" d="M335.02,-291.67C378.65,-279 443.79,-260.08 486.61,-247.64"/>
<polygon fill="black" stroke="black" points="487.45,-251.04 496.07,-244.89 485.49,-244.32 487.45,-251.04"/>
</g>
<!-- :feature:interests&#45;&gt;:core:designsystem -->
<g id="edge15" class="edge">
<title>:feature:interests&#45;&gt;:core:designsystem</title>
<path fill="none" stroke="black" d="M320.56,-289.4C366.58,-266.76 450.28,-226.34 482.13,-216 543.5,-196.07 615.36,-182.32 669.06,-173.83"/>
<polygon fill="black" stroke="black" points="669.39,-177.32 678.73,-172.33 668.32,-170.41 669.39,-177.32"/>
</g>
<!-- :feature:interests&#45;&gt;:core:data -->
<g id="edge16" class="edge">
<title>:feature:interests&#45;&gt;:core:data</title>
<path fill="none" stroke="black" d="M308.22,-288.26C331.27,-268.74 371.86,-236.53 411.13,-216 444.18,-198.71 484.08,-185.11 514.85,-176.01"/>
<polygon fill="black" stroke="black" points="515.65,-179.42 524.28,-173.28 513.7,-172.7 515.65,-179.42"/>
</g>
<!-- :core:domain -->
<g id="node15" class="node">
<title>:core:domain</title>
<ellipse fill="none" stroke="black" cx="261.13" cy="-234" rx="60.05" ry="18"/>
<text text-anchor="middle" x="261.13" y="-228.95" font-family="Times,serif" font-size="14.00">:core:domain</text>
</g>
<!-- :feature:interests&#45;&gt;:core:domain -->
<g id="edge17" class="edge">
<title>:feature:interests&#45;&gt;:core:domain</title>
<path fill="none" stroke="red" stroke-width="2" d="M282.21,-287.7C279.19,-280.15 275.57,-271.12 272.2,-262.68"/>
<polygon fill="red" stroke="red" stroke-width="2" points="276.06,-262.9 269.09,-254.91 269.56,-265.5 276.06,-262.9"/>
</g>
<!-- :feature:foryou&#45;&gt;:core:ui -->
<g id="edge37" class="edge">
<title>:feature:foryou&#45;&gt;:core:ui</title>
<path fill="none" stroke="black" d="M181.1,-293.62C190.07,-291.65 199.37,-289.7 208.13,-288 304.99,-269.21 419.09,-251.46 482.14,-242.03"/>
<polygon fill="black" stroke="black" points="482.43,-245.52 491.81,-240.59 481.4,-238.6 482.43,-245.52"/>
</g>
<!-- :feature:foryou&#45;&gt;:core:designsystem -->
<g id="edge38" class="edge">
<title>:feature:foryou&#45;&gt;:core:designsystem</title>
<path fill="none" stroke="black" d="M180.42,-293.47C229.84,-281.43 303.12,-262.8 330.13,-252 361.15,-239.59 364.45,-226.64 396.13,-216 421.45,-207.49 572.8,-186.4 668.92,-173.54"/>
<polygon fill="black" stroke="black" points="669.12,-177.04 678.56,-172.25 668.19,-170.1 669.12,-177.04"/>
</g>
<!-- :feature:foryou&#45;&gt;:core:data -->
<g id="edge39" class="edge">
<title>:feature:foryou&#45;&gt;:core:data</title>
<path fill="none" stroke="black" d="M138.65,-287.67C147.42,-266.94 165.12,-232.91 192.13,-216 243.29,-183.95 414.92,-170.54 506.08,-165.57"/>
<polygon fill="black" stroke="black" points="506.01,-169.08 515.81,-165.06 505.64,-162.09 506.01,-169.08"/>
</g>
<!-- :feature:foryou&#45;&gt;:core:domain -->
<g id="edge40" class="edge">
<title>:feature:foryou&#45;&gt;:core:domain</title>
<path fill="none" stroke="black" d="M160.76,-289.46C179.09,-279.52 203.09,-266.5 223.02,-255.68"/>
<polygon fill="black" stroke="black" points="224.57,-258.82 231.69,-250.97 221.23,-252.67 224.57,-258.82"/>
</g>
<!-- :feature:bookmarks&#45;&gt;:core:ui -->
<g id="edge41" class="edge">
<title>:feature:bookmarks&#45;&gt;:core:ui</title>
<path fill="none" stroke="black" d="M736.66,-291.25C689.36,-278.37 619.35,-259.3 574.23,-247.01"/>
<polygon fill="black" stroke="black" points="575.36,-243.69 564.79,-244.44 573.52,-250.45 575.36,-243.69"/>
</g>
<!-- :feature:bookmarks&#45;&gt;:core:designsystem -->
<g id="edge42" class="edge">
<title>:feature:bookmarks&#45;&gt;:core:designsystem</title>
<path fill="none" stroke="black" d="M782.47,-287.59C776.02,-263.5 764.31,-219.75 756.63,-191.03"/>
<polygon fill="black" stroke="black" points="760.06,-190.33 754.1,-181.57 753.3,-192.14 760.06,-190.33"/>
</g>
<!-- :feature:bookmarks&#45;&gt;:core:data -->
<g id="edge43" class="edge">
<title>:feature:bookmarks&#45;&gt;:core:data</title>
<path fill="none" stroke="black" d="M758.5,-288.7C740.69,-278.43 717.39,-264.73 697.13,-252 661.72,-229.75 621.97,-202.9 595.23,-184.55"/>
<polygon fill="black" stroke="black" points="597.46,-181.84 587.24,-179.05 593.49,-187.6 597.46,-181.84"/>
</g>
<!-- :feature:topic&#45;&gt;:core:ui -->
<g id="edge44" class="edge">
<title>:feature:topic&#45;&gt;:core:ui</title>
<path fill="none" stroke="black" d="M604.34,-289.12C591,-279.39 573.76,-266.82 559.26,-256.24"/>
<polygon fill="black" stroke="black" points="561.55,-253.58 551.41,-250.52 557.43,-259.24 561.55,-253.58"/>
</g>
<!-- :feature:topic&#45;&gt;:core:designsystem -->
<g id="edge45" class="edge">
<title>:feature:topic&#45;&gt;:core:designsystem</title>
<path fill="none" stroke="black" d="M640.72,-288.15C662.17,-263.39 702.37,-216.97 727.33,-188.16"/>
<polygon fill="black" stroke="black" points="729.66,-190.82 733.56,-180.97 724.37,-186.24 729.66,-190.82"/>
</g>
<!-- :feature:topic&#45;&gt;:core:data -->
<g id="edge46" class="edge">
<title>:feature:topic&#45;&gt;:core:data</title>
<path fill="none" stroke="black" d="M618.65,-287.87C608.08,-263.67 588.67,-219.21 576.09,-190.39"/>
<polygon fill="black" stroke="black" points="579.45,-189.34 572.24,-181.58 573.03,-192.14 579.45,-189.34"/>
</g>
<!-- :feature:search&#45;&gt;:core:ui -->
<g id="edge47" class="edge">
<title>:feature:search&#45;&gt;:core:ui</title>
<path fill="none" stroke="black" d="M465.27,-288.41C476.46,-279.2 490.54,-267.6 502.72,-257.57"/>
<polygon fill="black" stroke="black" points="504.92,-260.29 510.41,-251.24 500.47,-254.89 504.92,-260.29"/>
</g>
<!-- :feature:search&#45;&gt;:core:designsystem -->
<g id="edge48" class="edge">
<title>:feature:search&#45;&gt;:core:designsystem</title>
<path fill="none" stroke="black" d="M483.1,-291.03C509.94,-280.88 546.6,-266.44 578.13,-252 624.31,-230.84 675.85,-203.48 710.15,-184.72"/>
<polygon fill="black" stroke="black" points="711.82,-187.8 718.89,-179.91 708.44,-181.66 711.82,-187.8"/>
</g>
<!-- :feature:search&#45;&gt;:core:data -->
<g id="edge49" class="edge">
<title>:feature:search&#45;&gt;:core:data</title>
<path fill="none" stroke="black" d="M449.03,-287.64C454.05,-268.42 464.33,-237.33 482.13,-216 493.69,-202.15 509.81,-190.65 524.7,-181.95"/>
<polygon fill="black" stroke="black" points="526.38,-185.02 533.42,-177.11 522.98,-178.9 526.38,-185.02"/>
</g>
<!-- :feature:search&#45;&gt;:core:domain -->
<g id="edge50" class="edge">
<title>:feature:search&#45;&gt;:core:domain</title>
<path fill="none" stroke="black" d="M407.89,-290.83C379.05,-279.86 338.93,-264.6 307.92,-252.8"/>
<polygon fill="black" stroke="black" points="309.37,-249.61 298.78,-249.32 306.88,-256.15 309.37,-249.61"/>
</g>
<!-- :feature:settings&#45;&gt;:core:ui -->
<g id="edge51" class="edge">
<title>:feature:settings&#45;&gt;:core:ui</title>
<path fill="none" stroke="black" d="M906.8,-293.48C897.6,-291.55 888.1,-289.64 879.13,-288 772.28,-268.41 646.09,-250.54 578.56,-241.4"/>
<polygon fill="black" stroke="black" points="579.32,-237.97 568.94,-240.1 578.38,-244.91 579.32,-237.97"/>
</g>
<!-- :feature:settings&#45;&gt;:core:designsystem -->
<g id="edge52" class="edge">
<title>:feature:settings&#45;&gt;:core:designsystem</title>
<path fill="none" stroke="black" d="M934.15,-288.71C896.95,-263.43 825.2,-214.68 782.81,-185.88"/>
<polygon fill="black" stroke="black" points="784.96,-183.11 774.72,-180.39 781.02,-188.9 784.96,-183.11"/>
</g>
<!-- :feature:settings&#45;&gt;:core:data -->
<g id="edge53" class="edge">
<title>:feature:settings&#45;&gt;:core:data</title>
<path fill="none" stroke="black" d="M918.54,-290.73C844.61,-264.09 686.03,-206.93 608.56,-179.01"/>
<polygon fill="black" stroke="black" points="609.75,-175.72 599.16,-175.63 607.38,-182.31 609.75,-175.72"/>
</g>
<!-- :core:ui&#45;&gt;:core:designsystem -->
<g id="edge19" class="edge">
<title>:core:ui&#45;&gt;:core:designsystem</title>
<path fill="none" stroke="black" d="M561.51,-222.93C568.62,-220.65 576.13,-218.24 583.13,-216 619.89,-204.24 661.23,-191.03 693.47,-180.75"/>
<polygon fill="black" stroke="black" points="694.13,-184.21 702.59,-177.84 692,-177.55 694.13,-184.21"/>
</g>
<!-- :core:ui&#45;&gt;:core:model -->
<g id="edge20" class="edge">
<title>:core:ui&#45;&gt;:core:model</title>
<path fill="none" stroke="black" d="M496.49,-224.51C447.08,-210.02 356.59,-175.34 318.13,-108 310.19,-94.11 310.86,-86.25 318.13,-72 325.1,-58.32 337.43,-47.35 350,-39.02"/>
<polygon fill="black" stroke="black" points="351.58,-42.15 358.28,-33.95 347.93,-36.18 351.58,-42.15"/>
</g>
<!-- :core:ui&#45;&gt;:core:analytics -->
<g id="edge18" class="edge">
<title>:core:ui&#45;&gt;:core:analytics</title>
<path fill="none" stroke="black" d="M555.54,-220.04C574.11,-210.1 599.56,-195.49 620.13,-180 638.71,-166.01 637.05,-153.85 658.13,-144 782.97,-85.63 830.22,-130.89 966.13,-108 972.03,-107.01 978.17,-105.85 984.28,-104.63"/>
<polygon fill="black" stroke="black" points="984.65,-108.13 993.73,-102.67 983.23,-101.27 984.65,-108.13"/>
</g>
<!-- :core:data&#45;&gt;:core:common -->
<g id="edge21" class="edge">
<title>:core:data&#45;&gt;:core:common</title>
<path fill="none" stroke="black" d="M601.15,-150.4C609.05,-148.22 617.35,-145.99 625.13,-144 693.65,-126.5 736.14,-163.38 780.13,-108 794.09,-90.42 786.46,-65.02 776.87,-45.85"/>
<polygon fill="black" stroke="black" points="780.04,-44.37 772.18,-37.26 773.9,-47.72 780.04,-44.37"/>
</g>
<!-- :core:data&#45;&gt;:core:analytics -->
<g id="edge25" class="edge">
<title>:core:data&#45;&gt;:core:analytics</title>
<path fill="none" stroke="black" d="M600.02,-149.93C608.21,-147.7 616.92,-145.57 625.13,-144 774.83,-115.44 815.71,-132.47 966.13,-108 972.04,-107.04 978.18,-105.91 984.3,-104.7"/>
<polygon fill="black" stroke="black" points="984.66,-108.2 993.75,-102.75 983.25,-101.34 984.66,-108.2"/>
</g>
<!-- :core:database -->
<g id="node16" class="node">
<title>:core:database</title>
<ellipse fill="none" stroke="black" cx="391.13" cy="-90" rx="63.63" ry="18"/>
<text text-anchor="middle" x="391.13" y="-84.95" font-family="Times,serif" font-size="14.00">:core:database</text>
</g>
<!-- :core:data&#45;&gt;:core:database -->
<g id="edge22" class="edge">
<title>:core:data&#45;&gt;:core:database</title>
<path fill="none" stroke="red" stroke-width="2" d="M532.8,-148.32C506.06,-137.5 467.25,-121.8 437,-109.56"/>
<polygon fill="red" stroke="red" stroke-width="2" points="440.09,-107.03 429.5,-106.53 437.46,-113.52 440.09,-107.03"/>
</g>
<!-- :core:datastore -->
<g id="node17" class="node">
<title>:core:datastore</title>
<ellipse fill="none" stroke="black" cx="892.13" cy="-90" rx="65.17" ry="18"/>
<text text-anchor="middle" x="892.13" y="-84.95" font-family="Times,serif" font-size="14.00">:core:datastore</text>
</g>
<!-- :core:data&#45;&gt;:core:datastore -->
<g id="edge23" class="edge">
<title>:core:data&#45;&gt;:core:datastore</title>
<path fill="none" stroke="black" d="M600.77,-150.26C608.77,-148.06 617.21,-145.86 625.13,-144 707.95,-124.56 729.76,-124.95 813.13,-108 819.06,-106.79 825.23,-105.51 831.4,-104.21"/>
<polygon fill="black" stroke="black" points="831.9,-107.69 840.95,-102.19 830.45,-100.84 831.9,-107.69"/>
</g>
<!-- :core:network -->
<g id="node18" class="node">
<title>:core:network</title>
<ellipse fill="none" stroke="black" cx="709.13" cy="-90" rx="62.1" ry="18"/>
<text text-anchor="middle" x="709.13" y="-84.95" font-family="Times,serif" font-size="14.00">:core:network</text>
</g>
<!-- :core:data&#45;&gt;:core:network -->
<g id="edge24" class="edge">
<title>:core:data&#45;&gt;:core:network</title>
<path fill="none" stroke="black" d="M592.43,-147.34C613.89,-136.97 643.72,-122.58 667.85,-110.93"/>
<polygon fill="black" stroke="black" points="669.29,-114.12 676.77,-106.62 666.25,-107.82 669.29,-114.12"/>
</g>
<!-- :core:notifications -->
<g id="node19" class="node">
<title>:core:notifications</title>
<ellipse fill="none" stroke="black" cx="551.13" cy="-90" rx="77.97" ry="18"/>
<text text-anchor="middle" x="551.13" y="-84.95" font-family="Times,serif" font-size="14.00">:core:notifications</text>
</g>
<!-- :core:data&#45;&gt;:core:notifications -->
<g id="edge26" class="edge">
<title>:core:data&#45;&gt;:core:notifications</title>
<path fill="none" stroke="black" d="M560.91,-143.7C559.54,-136.32 557.91,-127.52 556.37,-119.25"/>
<polygon fill="black" stroke="black" points="559.85,-118.79 554.58,-109.59 552.96,-120.06 559.85,-118.79"/>
</g>
<!-- :sync:work&#45;&gt;:core:data -->
<g id="edge55" class="edge">
<title>:sync:work&#45;&gt;:core:data</title>
<path fill="none" stroke="black" d="M1003.5,-227.18C929,-218.09 782.21,-199.56 658.13,-180 644.69,-177.88 630.21,-175.38 616.74,-172.95"/>
<polygon fill="black" stroke="black" points="617.66,-169.56 607.19,-171.21 616.4,-176.44 617.66,-169.56"/>
</g>
<!-- :sync:work&#45;&gt;:core:analytics -->
<g id="edge54" class="edge">
<title>:sync:work&#45;&gt;:core:analytics</title>
<path fill="none" stroke="black" d="M1051.02,-215.59C1049.5,-191.61 1046.75,-148.14 1044.93,-119.42"/>
<polygon fill="black" stroke="black" points="1048.43,-119.38 1044.31,-109.62 1041.45,-119.82 1048.43,-119.38"/>
</g>
<!-- :core:domain&#45;&gt;:core:data -->
<g id="edge35" class="edge">
<title>:core:domain&#45;&gt;:core:data</title>
<path fill="none" stroke="red" stroke-width="2" d="M307.48,-222.29C363.12,-209.44 456.09,-187.96 513.55,-174.68"/>
<polygon fill="red" stroke="red" stroke-width="2" points="512.64,-178.49 521.6,-172.83 511.06,-171.67 512.64,-178.49"/>
</g>
<!-- :core:domain&#45;&gt;:core:model -->
<g id="edge36" class="edge">
<title>:core:domain&#45;&gt;:core:model</title>
<path fill="none" stroke="black" d="M258.85,-215.58C255.67,-183.81 253.43,-115.69 285.13,-72 297.97,-54.29 318.43,-42.15 337.96,-34.01"/>
<polygon fill="black" stroke="black" points="339.18,-37.29 347.25,-30.43 336.66,-30.76 339.18,-37.29"/>
</g>
<!-- :core:database&#45;&gt;:core:model -->
<g id="edge27" class="edge">
<title>:core:database&#45;&gt;:core:model</title>
<path fill="none" stroke="red" stroke-width="2" d="M391.13,-71.7C391.13,-64.41 391.13,-55.73 391.13,-47.54"/>
<polygon fill="red" stroke="red" stroke-width="2" points="394.63,-49.13 391.13,-39.13 387.63,-49.13 394.63,-49.13"/>
</g>
<!-- :core:datastore&#45;&gt;:core:common -->
<g id="edge30" class="edge">
<title>:core:datastore&#45;&gt;:core:common</title>
<path fill="none" stroke="black" d="M862.83,-73.46C844.12,-63.54 819.63,-50.56 799.26,-39.75"/>
<polygon fill="black" stroke="black" points="801.15,-36.79 790.68,-35.2 797.87,-42.98 801.15,-36.79"/>
</g>
<!-- :core:datastore&#45;&gt;:core:model -->
<g id="edge29" class="edge">
<title>:core:datastore&#45;&gt;:core:model</title>
<path fill="none" stroke="black" d="M836.32,-80.36C818.39,-77.63 798.43,-74.64 780.13,-72 664.78,-55.39 530,-37.33 453.19,-27.16"/>
<polygon fill="black" stroke="black" points="453.7,-23.7 443.33,-25.86 452.78,-30.64 453.7,-23.7"/>
</g>
<!-- :core:datastore&#45;proto -->
<g id="node20" class="node">
<title>:core:datastore&#45;proto</title>
<ellipse fill="none" stroke="black" cx="931.13" cy="-18" rx="87.69" ry="18"/>
<text text-anchor="middle" x="931.13" y="-12.95" font-family="Times,serif" font-size="14.00">:core:datastore&#45;proto</text>
</g>
<!-- :core:datastore&#45;&gt;:core:datastore&#45;proto -->
<g id="edge28" class="edge">
<title>:core:datastore&#45;&gt;:core:datastore&#45;proto</title>
<path fill="none" stroke="black" d="M901.57,-72.05C905.91,-64.26 911.17,-54.82 916.04,-46.08"/>
<polygon fill="black" stroke="black" points="918.96,-48.04 920.77,-37.6 912.84,-44.63 918.96,-48.04"/>
</g>
<!-- :core:network&#45;&gt;:core:common -->
<g id="edge31" class="edge">
<title>:core:network&#45;&gt;:core:common</title>
<path fill="none" stroke="black" d="M721.47,-72.05C727.42,-63.89 734.69,-53.91 741.31,-44.82"/>
<polygon fill="black" stroke="black" points="743.94,-47.16 747,-37.01 738.29,-43.03 743.94,-47.16"/>
</g>
<!-- :core:network&#45;&gt;:core:model -->
<g id="edge32" class="edge">
<title>:core:network&#45;&gt;:core:model</title>
<path fill="none" stroke="black" d="M662.57,-77.69C654.43,-75.76 646.04,-73.8 638.13,-72 573.05,-57.23 498.08,-41.3 447.97,-30.8"/>
<polygon fill="black" stroke="black" points="448.71,-27.38 438.2,-28.76 447.28,-34.23 448.71,-27.38"/>
</g>
<!-- :core:notifications&#45;&gt;:core:common -->
<g id="edge34" class="edge">
<title>:core:notifications&#45;&gt;:core:common</title>
<path fill="none" stroke="black" d="M594.18,-74.58C627.64,-63.37 674.14,-47.8 709.41,-35.99"/>
<polygon fill="black" stroke="black" points="710.16,-39.43 718.53,-32.93 707.94,-32.79 710.16,-39.43"/>
</g>
<!-- :core:notifications&#45;&gt;:core:model -->
<g id="edge33" class="edge">
<title>:core:notifications&#45;&gt;:core:model</title>
<path fill="none" stroke="black" d="M516.01,-73.64C491.68,-62.99 459.15,-48.76 433.39,-37.49"/>
<polygon fill="black" stroke="black" points="435.12,-34.43 424.55,-33.62 432.31,-40.84 435.12,-34.43"/>
</g>
</g>
</svg>
