<svg xmlns="http://www.w3.org/2000/svg" width="446pt" height="116pt" viewBox="0 0 445.51 116">
    <g class="graph">
        <path fill="#fff" d="M0 116V0h445.51v116z"/>
        <g class="node" transform="translate(4 112)">
            <ellipse cx="194.47" cy="-90" fill="none" stroke="#000" rx="27" ry="18"/>
            <text x="194.47" y="-84.95" font-family="Times,serif" font-size="14" text-anchor="middle">:app</text>
        </g>
        <g class="node" transform="translate(4 112)">
            <ellipse cx="56.47" cy="-18" fill="none" stroke="#000" rx="56.47" ry="18"/>
            <text x="56.47" y="-12.95" font-family="Times,serif" font-size="14" text-anchor="middle">:core:testing</text>
        </g>
        <g stroke="red" stroke-width="2" class="edge">
            <path fill="none" d="M177.51 33.63C156.9 44.09 124.94 60.3 99.62 73.14"/>
            <path fill="red" d="m102.78 75.46-10.5 1.4 7.33-7.64z"/>
        </g>
        <g class="node" transform="translate(4 112)">
            <ellipse cx="194.47" cy="-18" fill="none" stroke="#000" rx="63.12" ry="18"/>
            <text x="194.47" y="-12.95" font-family="Times,serif" font-size="14" text-anchor="middle">:core:data-test</text>
        </g>
        <g stroke="#000" class="edge">
            <path fill="none" d="M198.47 40.3v24.16"/>
            <path d="m201.97 64.38-3.5 10-3.5-10z"/>
        </g>
        <g class="node" transform="translate(4 112)">
            <ellipse cx="356.47" cy="-18" fill="none" stroke="#000" rx="81.04" ry="18"/>
            <text x="356.47" y="-12.95" font-family="Times,serif" font-size="14" text-anchor="middle">:core:datastore-test</text>
        </g>
        <g stroke="#000" class="edge">
            <path fill="none" d="M220.66 32.59c23.95 10.35 62.79 27.13 93.46 40.38"/>
            <path d="m315.41 69.72 7.79 7.18-10.57-.76z"/>
        </g>
    </g>
</svg>
