<svg xmlns="http://www.w3.org/2000/svg" width="1248" height="404pt" viewBox="0 0 935.81 404">
    <g class="graph">
        <path fill="#fff" d="M0 404V0h935.81v404z"/>
        <g class="node" transform="translate(4 400)">
            <ellipse cx="583.69" cy="-378" fill="none" stroke="#000" rx="69.78" ry="18"/>
            <text x="583.69" y="-372.95" font-family="Times,serif" font-size="14" text-anchor="middle">:feature:settings</text>
        </g>
        <g class="node" transform="translate(4 400)">
            <ellipse cx="740.69" cy="-306" fill="none" stroke="#000" rx="39.07" ry="18"/>
            <text x="740.69" y="-300.95" font-family="Times,serif" font-size="14" text-anchor="middle">:core:ui</text>
        </g>
        <g stroke="red" stroke-width="2" class="edge">
            <path fill="none" d="M621.37 38.02c25.18 11.22 59.62 26.58 85.7 38.21"/>
            <path fill="red" d="m706.86 72.3 7.71 7.27-10.56-.88z"/>
        </g>
        <g class="node" transform="translate(4 400)">
            <ellipse cx="583.69" cy="-234" fill="none" stroke="#000" rx="82.06" ry="18"/>
            <text x="583.69" y="-228.95" font-family="Times,serif" font-size="14" text-anchor="middle">:core:designsystem</text>
        </g>
        <g stroke="#000" class="edge">
            <path fill="none" d="M587.69 40.41v96.17"/>
            <path d="m591.19 136.38-3.5 10-3.5-10z"/>
        </g>
        <g class="node" transform="translate(4 400)">
            <ellipse cx="473.69" cy="-162" fill="none" stroke="#000" rx="47.26" ry="18"/>
            <text x="473.69" y="-156.95" font-family="Times,serif" font-size="14" text-anchor="middle">:core:data</text>
        </g>
        <g stroke="#000" class="edge">
            <path fill="none" d="M571.87 39.74c-20.54 22.7-56.03 65.36-75.18 108.26-8.57 19.2-13.36 42.49-15.99 60.43"/>
            <path d="m484.2 208.65-4.77 9.46-2.17-10.37z"/>
        </g>
        <g stroke="#000" class="edge">
            <path fill="none" d="M717.34 107.19c-23.19 10.34-56.93 25.39-84.17 37.53"/>
            <path d="m634.64 147.9-10.56.88 7.71-7.27z"/>
        </g>
        <g class="node" transform="translate(4 400)">
            <ellipse cx="740.69" cy="-234" fill="none" stroke="#000" rx="56.47" ry="18"/>
            <text x="740.69" y="-228.95" font-family="Times,serif" font-size="14" text-anchor="middle">:core:testing</text>
        </g>
        <g stroke="red" stroke-width="2" class="edge">
            <path fill="none" d="M744.69 112.3v24.16"/>
            <path fill="red" d="m748.19 134.87-3.5 10-3.5-10z"/>
        </g>
        <g class="node" transform="translate(4 400)">
            <ellipse cx="833.69" cy="-90" fill="none" stroke="#000" rx="64.66" ry="18"/>
            <text x="833.69" y="-84.95" font-family="Times,serif" font-size="14" text-anchor="middle">:core:analytics</text>
        </g>
        <g stroke="#000" class="edge">
            <path fill="none" d="M768.83 108.58c14.17 9.26 31.15 22.83 40.86 39.42 24.25 41.44 28.67 98.44 28.89 132.32"/>
            <path d="m842.08 280.2-3.57 9.98-3.43-10.03z"/>
        </g>
        <g class="node" transform="translate(4 400)">
            <ellipse cx="554.69" cy="-18" fill="none" stroke="#000" rx="55.45" ry="18"/>
            <text x="554.69" y="-12.95" font-family="Times,serif" font-size="14" text-anchor="middle">:core:model</text>
        </g>
        <g stroke="#000" class="edge">
            <path fill="none" d="M771.97 107.28c18.27 9.23 41.95 23.27 58.72 40.72 60.78 63.26 138.24 113.52 81 180-36.16 42-194.09 51.18-286 52.9"/>
            <path d="m625.85 384.4-10.06-3.34 9.94-3.66z"/>
        </g>
        <g stroke="#000" class="edge">
            <path fill="none" d="M518.99 247.03c62.71 12.19 182.42 35.47 255.94 49.77"/>
            <path d="m775.24 293.29 9.15 5.35-10.48 1.52z"/>
        </g>
        <g class="node" transform="translate(4 400)">
            <ellipse cx="258.69" cy="-18" fill="none" stroke="#000" rx="65.17" ry="18"/>
            <text x="258.69" y="-12.95" font-family="Times,serif" font-size="14" text-anchor="middle">:core:common</text>
        </g>
        <g stroke="#000" class="edge">
            <path fill="none" d="M429.99 238.62c-88.82.43-274.22 7.01-314.3 53.38-10.46 12.11-9.2 22.91 0 36 10.56 15.04 51.12 29 86.96 38.82"/>
            <path d="m203.36 363.39 8.76 5.95-10.56.81z"/>
        </g>
        <g class="node" transform="translate(4 400)">
            <ellipse cx="634.69" cy="-90" fill="none" stroke="#000" rx="77.97" ry="18"/>
            <text x="634.69" y="-84.95" font-family="Times,serif" font-size="14" text-anchor="middle">:core:notifications</text>
        </g>
        <g stroke="#000" class="edge">
            <path fill="none" d="M507.97 252.17c23.89 10.38 57.59 25.03 84.79 36.86"/>
            <path d="m594.05 285.77 7.77 7.2-10.56-.78z"/>
        </g>
        <g class="node" transform="translate(4 400)">
            <ellipse cx="474.69" cy="-90" fill="none" stroke="#000" rx="63.63" ry="18"/>
            <text x="474.69" y="-84.95" font-family="Times,serif" font-size="14" text-anchor="middle">:core:database</text>
        </g>
        <g stroke="red" stroke-width="2" class="edge">
            <path fill="none" d="M477.94 256.3c.1 7.29.23 15.97.34 24.16"/>
            <path fill="red" d="m481.76 278.82-3.36 10.05-3.64-9.95z"/>
        </g>
        <g class="node" transform="translate(4 400)">
            <ellipse cx="185.69" cy="-90" fill="none" stroke="#000" rx="65.17" ry="18"/>
            <text x="185.69" y="-84.95" font-family="Times,serif" font-size="14" text-anchor="middle">:core:datastore</text>
        </g>
        <g stroke="#000" class="edge">
            <path fill="none" d="M438.55 248.51c-49.02 11.92-133.46 32.44-190.22 46.24"/>
            <path d="m249.39 298.09-10.55-1.04 8.89-5.76z"/>
        </g>
        <g class="node" transform="translate(4 400)">
            <ellipse cx="330.69" cy="-90" fill="none" stroke="#000" rx="62.1" ry="18"/>
            <text x="330.69" y="-84.95" font-family="Times,serif" font-size="14" text-anchor="middle">:core:network</text>
        </g>
        <g stroke="#000" class="edge">
            <path fill="none" d="M449.44 252.83c-21.13 10.34-50.33 24.64-73.99 36.22"/>
            <path d="m377.24 292.07-10.52 1.25 7.44-7.54z"/>
        </g>
        <g stroke="red" stroke-width="2" class="edge">
            <path fill="none" d="M702.09 178.17c-47.77 12.52-125.11 32.8-175.36 45.97"/>
            <path fill="red" d="m529.3 227.09-10.56-.85 8.79-5.92z"/>
        </g>
        <g stroke="#000" class="edge">
            <path fill="none" d="M755.91 184.13c15.99 24.41 45.48 69.44 64.34 98.23"/>
            <path d="m823.05 280.26 2.55 10.28-8.4-6.44z"/>
        </g>
        <g stroke="#000" class="edge">
            <path fill="none" d="M748.17 184.34c5.42 32.27 11.94 102-22.48 143.66-24.56 29.73-65.75 43.01-101.08 48.85"/>
            <path d="m625.27 380.29-10.4-2.02 9.39-4.91z"/>
        </g>
        <g stroke="#000" class="edge">
            <path fill="none" d="M702.96 178.51c-8.02 1.99-16.38 3.93-24.27 5.49-127.32 25.23-493.02 6.57-574 108-9.98 12.5-9.34 23.01 0 36 6.31 8.78 59.13 25.38 101.98 37.67"/>
            <path d="m207.48 362.26 8.67 6.1-10.58.63z"/>
        </g>
        <g stroke="#000" class="edge">
            <path fill="none" d="M732.11 183.85c-18.32 24.55-52.53 70.38-74.08 99.24"/>
            <path d="m660.94 285.04-8.79 5.92 3.18-10.11z"/>
        </g>
        <g stroke="#000" class="edge">
            <path fill="none" d="M619.73 327.59c-10.13 8.87-22.79 19.94-33.95 29.7"/>
            <path d="m588.21 359.82-9.83 3.95 5.22-9.21z"/>
        </g>
        <g stroke="#000" class="edge">
            <path fill="none" d="M580.68 322.43c-9.68 1.88-19.62 3.79-28.99 5.57-76.94 14.57-165.53 30.73-224.13 41.32"/>
            <path d="m328.21 372.76-10.47-1.66 9.22-5.22z"/>
        </g>
        <g stroke="red" stroke-width="2" class="edge">
            <path fill="none" d="M497.65 327.59c10.13 8.87 22.79 19.94 33.94 29.7"/>
            <path fill="red" d="m532.64 353.56 5.22 9.22-9.83-3.95z"/>
        </g>
        <g stroke="#000" class="edge">
            <path fill="none" d="M237.78 322.4c8.61 1.94 17.52 3.88 25.91 5.6 81.18 16.61 175.51 33.06 235.22 43.13"/>
            <path d="m499.23 367.63 9.28 5.11-10.44 1.79z"/>
        </g>
        <g stroke="#000" class="edge">
            <path fill="none" d="M206.99 327.59c9.03 8.65 20.24 19.41 30.24 28.99"/>
            <path d="m239.37 353.79 4.8 9.45-9.64-4.4z"/>
        </g>
        <g class="node" transform="translate(4 400)">
            <ellipse cx="87.69" cy="-18" fill="none" stroke="#000" rx="87.69" ry="18"/>
            <text x="87.69" y="-12.95" font-family="Times,serif" font-size="14" text-anchor="middle">:core:datastore-proto</text>
        </g>
        <g stroke="#000" class="edge">
            <path fill="none" d="M166.96 327.24c-12.68 9.05-28.69 20.49-42.68 30.48"/>
            <path d="m126.38 360.52-10.17 2.97 6.1-8.66z"/>
        </g>
        <g stroke="#000" class="edge">
            <path fill="none" d="M375.77 323.84c37.53 11.72 93.08 29.09 133.12 41.6"/>
            <path d="m509.79 362.05 8.51 6.33-10.59.35z"/>
        </g>
        <g stroke="#000" class="edge">
            <path fill="none" d="M317.63 327.59c-8.97 8.72-20.13 19.56-30.04 29.2"/>
            <path d="m290.33 359.01-9.61 4.46 4.73-9.48z"/>
        </g>
    </g>
</svg>
