<?xml version="1.0" encoding="UTF-8" standalone="no"?>
<!DOCTYPE svg PUBLIC "-//W3C//DTD SVG 1.1//EN"
 "http://www.w3.org/Graphics/SVG/1.1/DTD/svg11.dtd">
<!-- Generated by graphviz version 9.0.0 (20230911.1827)
 -->
<!-- Title: G Pages: 1 -->
<svg width="268pt" height="116pt"
 viewBox="0.00 0.00 267.62 116.00" xmlns="http://www.w3.org/2000/svg" xmlns:xlink="http://www.w3.org/1999/xlink">
<g id="graph0" class="graph" transform="scale(1 1) rotate(0) translate(4 112)">
<title>G</title>
<polygon fill="white" stroke="none" points="-4,4 -4,-112 263.62,-112 263.62,4 -4,4"/>
<!-- :core:notifications -->
<g id="node1" class="node">
<title>:core:notifications</title>
<ellipse fill="none" stroke="black" cx="124.45" cy="-90" rx="77.97" ry="18"/>
<text text-anchor="middle" x="124.45" y="-84.95" font-family="Times,serif" font-size="14.00">:core:notifications</text>
</g>
<!-- :core:model -->
<g id="node2" class="node">
<title>:core:model</title>
<ellipse fill="none" stroke="black" cx="55.45" cy="-18" rx="55.45" ry="18"/>
<text text-anchor="middle" x="55.45" y="-12.95" font-family="Times,serif" font-size="14.00">:core:model</text>
</g>
<!-- :core:notifications&#45;&gt;:core:model -->
<g id="edge1" class="edge">
<title>:core:notifications&#45;&gt;:core:model</title>
<path fill="none" stroke="red" stroke-width="2" d="M107.74,-72.05C99.23,-63.42 88.72,-52.76 79.37,-43.27"/>
<polygon fill="red" stroke="red" stroke-width="2" points="83.16,-42.13 73.64,-37.46 78.17,-47.04 83.16,-42.13"/>
</g>
<!-- :core:common -->
<g id="node3" class="node">
<title>:core:common</title>
<ellipse fill="none" stroke="black" cx="194.45" cy="-18" rx="65.17" ry="18"/>
<text text-anchor="middle" x="194.45" y="-12.95" font-family="Times,serif" font-size="14.00">:core:common</text>
</g>
<!-- :core:notifications&#45;&gt;:core:common -->
<g id="edge2" class="edge">
<title>:core:notifications&#45;&gt;:core:common</title>
<path fill="none" stroke="black" d="M141.39,-72.05C149.9,-63.54 160.38,-53.07 169.76,-43.68"/>
<polygon fill="black" stroke="black" points="171.99,-46.41 176.59,-36.86 167.04,-41.46 171.99,-46.41"/>
</g>
</g>
</svg>
